DINishCondensed-Bold.ufo
<glyph name="dollar" format="2">
  <advance width="438"/>
  <unicode hex="0024"/>
  <outline>
    <contour>
      <point x="172" y="-46" type="line"/>
      <point x="259" y="-46" type="line"/>
      <point x="259" y="19" type="line"/>
      <point x="351" y="33"/>
      <point x="404" y="97"/>
      <point x="403" y="200" type="curve" smooth="yes"/>
      <point x="403" y="279"/>
      <point x="372" y="344"/>
      <point x="226" y="410" type="curve" smooth="yes"/>
      <point x="176" y="432"/>
      <point x="155" y="453"/>
      <point x="155" y="498" type="curve" smooth="yes"/>
      <point x="155" y="547"/>
      <point x="177" y="571"/>
      <point x="221" y="571" type="curve" smooth="yes"/>
      <point x="268" y="571"/>
      <point x="286" y="542"/>
      <point x="287" y="485" type="curve"/>
      <point x="397" y="485" type="line"/>
      <point x="393" y="590"/>
      <point x="345" y="652"/>
      <point x="259" y="666" type="curve"/>
      <point x="259" y="773" type="line"/>
      <point x="172" y="773" type="line"/>
      <point x="172" y="664" type="line"/>
      <point x="88" y="646"/>
      <point x="40" y="581"/>
      <point x="40" y="493" type="curve" smooth="yes"/>
      <point x="40" y="400"/>
      <point x="76" y="354"/>
      <point x="208" y="296" type="curve" smooth="yes"/>
      <point x="264" y="272"/>
      <point x="287" y="247"/>
      <point x="287" y="198" type="curve" smooth="yes"/>
      <point x="287" y="139"/>
      <point x="267" y="113"/>
      <point x="219" y="113" type="curve" smooth="yes"/>
      <point x="172" y="113"/>
      <point x="148" y="142"/>
      <point x="146" y="205" type="curve"/>
      <point x="33" y="205" type="line"/>
      <point x="35" y="99"/>
      <point x="83" y="34"/>
      <point x="172" y="19" type="curve"/>
    </contour>
  </outline>
</glyph>
<glyph name="percent" format="2">
  <advance width="780"/>
  <unicode hex="0025"/>
  <outline>
    <contour>
      <point x="635" y="-7" type="curve" smooth="yes"/>
      <point x="711" y="-7"/>
      <point x="749" y="31"/>
      <point x="749" y="108" type="curve" smooth="yes"/>
      <point x="749" y="318" type="line" smooth="yes"/>
      <point x="749" y="395"/>
      <point x="711" y="433"/>
      <point x="635" y="433" type="curve" smooth="yes"/>
      <point x="559" y="433"/>
      <point x="521" y="395"/>
      <point x="521" y="318" type="curve" smooth="yes"/>
      <point x="521" y="108" type="line" smooth="yes"/>
      <point x="521" y="31"/>
      <point x="559" y="-7"/>
    </contour>
    <contour>
      <point x="145" y="272" type="curve" smooth="yes"/>
      <point x="221" y="272"/>
      <point x="259" y="310"/>
      <point x="259" y="387" type="curve" smooth="yes"/>
      <point x="259" y="598" type="line" smooth="yes"/>
      <point x="259" y="675"/>
      <point x="221" y="713"/>
      <point x="145" y="713" type="curve" smooth="yes"/>
      <point x="70" y="713"/>
      <point x="32" y="675"/>
      <point x="32" y="598" type="curve" smooth="yes"/>
      <point x="32" y="387" type="line" smooth="yes"/>
      <point x="32" y="310"/>
      <point x="70" y="272"/>
    </contour>
    <contour>
      <point x="215" y="0" type="line"/>
      <point x="299" y="0" type="line"/>
      <point x="565" y="715" type="line"/>
      <point x="481" y="715" type="line"/>
    </contour>
    <contour>
      <point x="611" y="80" type="curve" smooth="yes"/>
      <point x="607" y="87"/>
      <point x="605" y="100"/>
      <point x="605" y="120" type="curve" smooth="yes"/>
      <point x="605" y="306" type="line" smooth="yes"/>
      <point x="605" y="327"/>
      <point x="607" y="340"/>
      <point x="612" y="347" type="curve" smooth="yes"/>
      <point x="616" y="354"/>
      <point x="624" y="357"/>
      <point x="635" y="357" type="curve" smooth="yes"/>
      <point x="646" y="357"/>
      <point x="654" y="354"/>
      <point x="659" y="347" type="curve" smooth="yes"/>
      <point x="664" y="340"/>
      <point x="666" y="327"/>
      <point x="666" y="306" type="curve" smooth="yes"/>
      <point x="666" y="120" type="line" smooth="yes"/>
      <point x="666" y="100"/>
      <point x="664" y="87"/>
      <point x="659" y="80" type="curve" smooth="yes"/>
      <point x="654" y="73"/>
      <point x="646" y="69"/>
      <point x="635" y="69" type="curve" smooth="yes"/>
      <point x="623" y="69"/>
      <point x="615" y="73"/>
    </contour>
    <contour>
      <point x="122" y="359" type="curve" smooth="yes"/>
      <point x="118" y="366"/>
      <point x="116" y="379"/>
      <point x="116" y="399" type="curve" smooth="yes"/>
      <point x="116" y="586" type="line" smooth="yes"/>
      <point x="116" y="606"/>
      <point x="118" y="620"/>
      <point x="122" y="627" type="curve" smooth="yes"/>
      <point x="126" y="634"/>
      <point x="134" y="637"/>
      <point x="145" y="637" type="curve" smooth="yes"/>
      <point x="157" y="637"/>
      <point x="165" y="634"/>
      <point x="170" y="627" type="curve" smooth="yes"/>
      <point x="174" y="620"/>
      <point x="176" y="607"/>
      <point x="176" y="586" type="curve" smooth="yes"/>
      <point x="176" y="399" type="line" smooth="yes"/>
      <point x="176" y="380"/>
      <point x="174" y="366"/>
      <point x="170" y="359" type="curve" smooth="yes"/>
      <point x="165" y="352"/>
      <point x="157" y="348"/>
      <point x="145" y="348" type="curve" smooth="yes"/>
      <point x="134" y="348"/>
      <point x="126" y="352"/>
    </contour>
  </outline>
</glyph>
<glyph name="ampersand" format="2">
  <advance width="526"/>
  <unicode hex="0026"/>
  <outline>
    <contour>
      <point x="199" y="-10" type="curve" smooth="yes"/>
      <point x="259" y="-10"/>
      <point x="307" y="7"/>
      <point x="346" y="58" type="curve"/>
      <point x="376" y="14"/>
      <point x="391" y="0"/>
      <point x="437" y="0" type="curve" smooth="yes"/>
      <point x="486" y="0" type="line"/>
      <point x="486" y="103" type="line"/>
      <point x="474" y="103" type="line" smooth="yes"/>
      <point x="457" y="103"/>
      <point x="442" y="111"/>
      <point x="432" y="130" type="curve" smooth="yes"/>
      <point x="414" y="161" type="line"/>
      <point x="487" y="275" type="line"/>
      <point x="402" y="334" type="line"/>
      <point x="355" y="258" type="line"/>
      <point x="293" y="362" type="line"/>
      <point x="367" y="441"/>
      <point x="395" y="501"/>
      <point x="395" y="561" type="curve" smooth="yes"/>
      <point x="395" y="655"/>
      <point x="332" y="717"/>
      <point x="238" y="717" type="curve" smooth="yes"/>
      <point x="144" y="717"/>
      <point x="79" y="655"/>
      <point x="79" y="561" type="curve" smooth="yes"/>
      <point x="79" y="507"/>
      <point x="99" y="465"/>
      <point x="153" y="377" type="curve"/>
      <point x="70" y="288"/>
      <point x="39" y="224"/>
      <point x="39" y="155" type="curve" smooth="yes"/>
      <point x="39" y="55"/>
      <point x="103" y="-10"/>
    </contour>
    <contour>
      <point x="213" y="99" type="curve" smooth="yes"/>
      <point x="179" y="99"/>
      <point x="158" y="123"/>
      <point x="158" y="167" type="curve" smooth="yes"/>
      <point x="158" y="205"/>
      <point x="171" y="234"/>
      <point x="211" y="281" type="curve"/>
      <point x="290" y="152" type="line"/>
      <point x="258" y="110"/>
      <point x="238" y="99"/>
    </contour>
    <contour>
      <point x="233" y="461" type="curve"/>
      <point x="203" y="516"/>
      <point x="193" y="543"/>
      <point x="193" y="567" type="curve" smooth="yes"/>
      <point x="193" y="602"/>
      <point x="207" y="624"/>
      <point x="238" y="624" type="curve" smooth="yes"/>
      <point x="265" y="624"/>
      <point x="282" y="604"/>
      <point x="282" y="567" type="curve" smooth="yes"/>
      <point x="282" y="531"/>
      <point x="271" y="505"/>
    </contour>
  </outline>
</glyph>
<glyph name="parenleft" format="2">
  <advance width="278"/>
  <unicode hex="0028"/>
  <outline>
    <contour>
      <point x="138" y="-86" type="curve"/>
      <point x="240" y="-86" type="line"/>
      <point x="186" y="45"/>
      <point x="156" y="193"/>
      <point x="156" y="336" type="curve" smooth="yes"/>
      <point x="156" y="477"/>
      <point x="186" y="625"/>
      <point x="240" y="758" type="curve"/>
      <point x="138" y="758" type="line"/>
      <point x="72" y="631"/>
      <point x="39" y="485"/>
      <point x="39" y="336" type="curve" smooth="yes"/>
      <point x="39" y="185"/>
      <point x="72" y="39"/>
    </contour>
  </outline>
</glyph>
<glyph name="parenright" format="2">
  <advance width="278"/>
  <unicode hex="0029"/>
  <outline>
    <contour>
      <point x="39" y="-86" type="curve"/>
      <point x="140" y="-86" type="line"/>
      <point x="206" y="39"/>
      <point x="240" y="185"/>
      <point x="240" y="336" type="curve" smooth="yes"/>
      <point x="240" y="484"/>
      <point x="206" y="632"/>
      <point x="140" y="758" type="curve"/>
      <point x="39" y="758" type="line"/>
      <point x="93" y="624"/>
      <point x="123" y="478"/>
      <point x="123" y="336" type="curve" smooth="yes"/>
      <point x="123" y="194"/>
      <point x="93" y="46"/>
    </contour>
  </outline>
</glyph>
<glyph name="asterisk" format="2">
  <advance width="344"/>
  <unicode hex="002A"/>
  <outline>
    <contour>
      <point x="138" y="401" type="line"/>
      <point x="206" y="401" type="line"/>
      <point x="206" y="501" type="line"/>
      <point x="274" y="461" type="line"/>
      <point x="305" y="514" type="line"/>
      <point x="232" y="557" type="line"/>
      <point x="304" y="598" type="line"/>
      <point x="274" y="650" type="line"/>
      <point x="206" y="610" type="line"/>
      <point x="206" y="707" type="line"/>
      <point x="138" y="707" type="line"/>
      <point x="138" y="612" type="line"/>
      <point x="70" y="652" type="line"/>
      <point x="39" y="598" type="line"/>
      <point x="111" y="556" type="line"/>
      <point x="40" y="515" type="line"/>
      <point x="70" y="463" type="line"/>
      <point x="138" y="503" type="line"/>
    </contour>
  </outline>
</glyph>
<glyph name="slash" format="2">
  <advance width="305"/>
  <unicode hex="002F"/>
  <outline>
    <contour>
      <point x="39" y="-10" type="line"/>
      <point x="132" y="-10" type="line"/>
      <point x="266" y="715" type="line"/>
      <point x="172" y="715" type="line"/>
    </contour>
  </outline>
</glyph>
<glyph name="zero" format="2">
  <advance width="418"/>
  <unicode hex="0030"/>
  <outline>
    <contour>
      <point x="209" y="-10" type="curve" smooth="yes"/>
      <point x="325" y="-10"/>
      <point x="380" y="56"/>
      <point x="380" y="190" type="curve" smooth="yes"/>
      <point x="380" y="518" type="line" smooth="yes"/>
      <point x="380" y="652"/>
      <point x="325" y="718"/>
      <point x="209" y="718" type="curve" smooth="yes"/>
      <point x="95" y="718"/>
      <point x="39" y="652"/>
      <point x="39" y="518" type="curve" smooth="yes"/>
      <point x="39" y="190" type="line" smooth="yes"/>
      <point x="39" y="56"/>
      <point x="95" y="-10"/>
    </contour>
    <contour>
      <point x="165" y="191" type="curve" smooth="yes"/>
      <point x="165" y="517" type="line" smooth="yes"/>
      <point x="165" y="583"/>
      <point x="175" y="604"/>
      <point x="209" y="604" type="curve" smooth="yes"/>
      <point x="243" y="604"/>
      <point x="255" y="581"/>
      <point x="255" y="517" type="curve" smooth="yes"/>
      <point x="255" y="191" type="line" smooth="yes"/>
      <point x="255" y="125"/>
      <point x="243" y="103"/>
      <point x="209" y="103" type="curve" smooth="yes"/>
      <point x="174" y="103"/>
      <point x="165" y="126"/>
    </contour>
  </outline>
</glyph>
<glyph name="two" format="2">
  <advance width="406"/>
  <unicode hex="0032"/>
  <outline>
    <contour>
      <point x="35" y="0" type="line"/>
      <point x="372" y="0" type="line"/>
      <point x="372" y="114" type="line"/>
      <point x="175" y="114" type="line"/>
      <point x="321" y="346" type="line" smooth="yes"/>
      <point x="355" y="404"/>
      <point x="372" y="442"/>
      <point x="372" y="504" type="curve" smooth="yes"/>
      <point x="372" y="554" type="line" smooth="yes"/>
      <point x="372" y="655"/>
      <point x="308" y="717"/>
      <point x="207" y="717" type="curve" smooth="yes"/>
      <point x="105" y="717"/>
      <point x="39" y="656"/>
      <point x="39" y="558" type="curve" smooth="yes"/>
      <point x="39" y="496" type="line"/>
      <point x="161" y="496" type="line"/>
      <point x="161" y="543" type="line" smooth="yes"/>
      <point x="161" y="584"/>
      <point x="175" y="604"/>
      <point x="204" y="604" type="curve" smooth="yes"/>
      <point x="233" y="604"/>
      <point x="248" y="585"/>
      <point x="248" y="548" type="curve" smooth="yes"/>
      <point x="248" y="508" type="line" smooth="yes"/>
      <point x="248" y="462"/>
      <point x="238" y="441"/>
      <point x="214" y="399" type="curve" smooth="yes"/>
      <point x="35" y="110" type="line"/>
    </contour>
  </outline>
</glyph>
<glyph name="three" format="2">
  <advance width="408"/>
  <unicode hex="0033"/>
  <outline>
    <contour>
      <point x="201" y="-10" type="curve" smooth="yes"/>
      <point x="306" y="-10"/>
      <point x="370" y="53"/>
      <point x="370" y="160" type="curve" smooth="yes"/>
      <point x="370" y="232" type="line" smooth="yes"/>
      <point x="370" y="308"/>
      <point x="357" y="345"/>
      <point x="299" y="369" type="curve"/>
      <point x="352" y="393"/>
      <point x="370" y="431"/>
      <point x="370" y="500" type="curve" smooth="yes"/>
      <point x="370" y="548" type="line" smooth="yes"/>
      <point x="370" y="656"/>
      <point x="308" y="717"/>
      <point x="202" y="717" type="curve" smooth="yes"/>
      <point x="95" y="717"/>
      <point x="34" y="654"/>
      <point x="34" y="555" type="curve" smooth="yes"/>
      <point x="34" y="505" type="line"/>
      <point x="156" y="505" type="line"/>
      <point x="156" y="548" type="line" smooth="yes"/>
      <point x="156" y="585"/>
      <point x="171" y="603"/>
      <point x="200" y="603" type="curve" smooth="yes"/>
      <point x="232" y="603"/>
      <point x="244" y="583"/>
      <point x="244" y="541" type="curve" smooth="yes"/>
      <point x="244" y="482" type="line" smooth="yes"/>
      <point x="244" y="439"/>
      <point x="234" y="420"/>
      <point x="195" y="420" type="curve" smooth="yes"/>
      <point x="166" y="420" type="line"/>
      <point x="166" y="307" type="line"/>
      <point x="193" y="307" type="line" smooth="yes"/>
      <point x="233" y="307"/>
      <point x="244" y="289"/>
      <point x="244" y="239" type="curve" smooth="yes"/>
      <point x="244" y="166" type="line" smooth="yes"/>
      <point x="244" y="122"/>
      <point x="233" y="103"/>
      <point x="200" y="103" type="curve" smooth="yes"/>
      <point x="171" y="104"/>
      <point x="156" y="122"/>
      <point x="156" y="159" type="curve" smooth="yes"/>
      <point x="156" y="205" type="line"/>
      <point x="34" y="205" type="line"/>
      <point x="34" y="153" type="line" smooth="yes"/>
      <point x="34" y="51"/>
      <point x="93" y="-10"/>
    </contour>
  </outline>
</glyph>
<glyph name="five" format="2">
  <advance width="415"/>
  <unicode hex="0035"/>
  <outline>
    <contour>
      <point x="208" y="-10" type="curve" smooth="yes"/>
      <point x="318" y="-10"/>
      <point x="377" y="49"/>
      <point x="377" y="165" type="curve" smooth="yes"/>
      <point x="377" y="296" type="line" smooth="yes"/>
      <point x="377" y="406"/>
      <point x="332" y="461"/>
      <point x="242" y="461" type="curve" smooth="yes"/>
      <point x="209" y="461"/>
      <point x="182" y="452"/>
      <point x="162" y="434" type="curve"/>
      <point x="162" y="592" type="line"/>
      <point x="377" y="592" type="line"/>
      <point x="377" y="707" type="line"/>
      <point x="47" y="707" type="line"/>
      <point x="47" y="315" type="line"/>
      <point x="162" y="315" type="line"/>
      <point x="172" y="340"/>
      <point x="184" y="351"/>
      <point x="207" y="351" type="curve" smooth="yes"/>
      <point x="236" y="351"/>
      <point x="251" y="331"/>
      <point x="251" y="291" type="curve" smooth="yes"/>
      <point x="251" y="167" type="line" smooth="yes"/>
      <point x="251" y="119"/>
      <point x="238" y="102"/>
      <point x="207" y="102" type="curve" smooth="yes"/>
      <point x="176" y="102"/>
      <point x="163" y="119"/>
      <point x="163" y="167" type="curve" smooth="yes"/>
      <point x="163" y="195" type="line"/>
      <point x="39" y="195" type="line"/>
      <point x="39" y="162" type="line" smooth="yes"/>
      <point x="39" y="50"/>
      <point x="98" y="-10"/>
    </contour>
  </outline>
</glyph>
<glyph name="six" format="2">
  <advance width="409"/>
  <unicode hex="0036"/>
  <outline>
    <contour>
      <point x="205" y="-10" type="curve" smooth="yes"/>
      <point x="259" y="-10"/>
      <point x="301" y="5"/>
      <point x="331" y="35" type="curve" smooth="yes"/>
      <point x="360" y="64"/>
      <point x="375" y="106"/>
      <point x="375" y="159" type="curve" smooth="yes"/>
      <point x="375" y="283" type="line" smooth="yes"/>
      <point x="375" y="331"/>
      <point x="363" y="369"/>
      <point x="340" y="397" type="curve" smooth="yes"/>
      <point x="317" y="424"/>
      <point x="285" y="438"/>
      <point x="244" y="438" type="curve" smooth="yes"/>
      <point x="229" y="438"/>
      <point x="216" y="436"/>
      <point x="205" y="431" type="curve"/>
      <point x="325" y="707" type="line"/>
      <point x="195" y="707" type="line"/>
      <point x="70" y="425" type="line" smooth="yes"/>
      <point x="57" y="396"/>
      <point x="48" y="371"/>
      <point x="43" y="349" type="curve" smooth="yes"/>
      <point x="38" y="327"/>
      <point x="35" y="300"/>
      <point x="35" y="268" type="curve" smooth="yes"/>
      <point x="35" y="163" type="line" smooth="yes"/>
      <point x="35" y="107"/>
      <point x="50" y="64"/>
      <point x="79" y="35" type="curve" smooth="yes"/>
      <point x="108" y="5"/>
      <point x="150" y="-10"/>
    </contour>
    <contour>
      <point x="205" y="103" type="curve" smooth="yes"/>
      <point x="176" y="104"/>
      <point x="161" y="122"/>
      <point x="161" y="158" type="curve" smooth="yes"/>
      <point x="161" y="279" type="line" smooth="yes"/>
      <point x="161" y="294"/>
      <point x="165" y="306"/>
      <point x="172" y="315" type="curve" smooth="yes"/>
      <point x="179" y="324"/>
      <point x="190" y="328"/>
      <point x="205" y="328" type="curve" smooth="yes"/>
      <point x="234" y="327"/>
      <point x="249" y="309"/>
      <point x="249" y="273" type="curve" smooth="yes"/>
      <point x="249" y="159" type="line" smooth="yes"/>
      <point x="249" y="141"/>
      <point x="245" y="127"/>
      <point x="238" y="118" type="curve" smooth="yes"/>
      <point x="230" y="108"/>
      <point x="219" y="103"/>
    </contour>
  </outline>
</glyph>
<glyph name="eight" format="2">
  <advance width="419"/>
  <unicode hex="0038"/>
  <outline>
    <contour>
      <point x="210" y="-10" type="curve" smooth="yes"/>
      <point x="318" y="-10"/>
      <point x="381" y="50"/>
      <point x="381" y="168" type="curve" smooth="yes"/>
      <point x="381" y="241" type="line" smooth="yes"/>
      <point x="381" y="302"/>
      <point x="361" y="345"/>
      <point x="321" y="370" type="curve"/>
      <point x="358" y="392"/>
      <point x="381" y="440"/>
      <point x="381" y="487" type="curve" smooth="yes"/>
      <point x="381" y="554" type="line" smooth="yes"/>
      <point x="381" y="654"/>
      <point x="316" y="717"/>
      <point x="210" y="717" type="curve" smooth="yes"/>
      <point x="106" y="717"/>
      <point x="39" y="654"/>
      <point x="39" y="554" type="curve" smooth="yes"/>
      <point x="39" y="487" type="line" smooth="yes"/>
      <point x="39" y="441"/>
      <point x="59" y="392"/>
      <point x="99" y="370" type="curve"/>
      <point x="59" y="344"/>
      <point x="39" y="301"/>
      <point x="39" y="241" type="curve" smooth="yes"/>
      <point x="39" y="168" type="line" smooth="yes"/>
      <point x="39" y="51"/>
      <point x="101" y="-10"/>
    </contour>
    <contour>
      <point x="166" y="167" type="curve" smooth="yes"/>
      <point x="166" y="250" type="line" smooth="yes"/>
      <point x="166" y="286"/>
      <point x="174" y="310"/>
      <point x="210" y="310" type="curve" smooth="yes"/>
      <point x="239" y="310"/>
      <point x="254" y="290"/>
      <point x="254" y="250" type="curve" smooth="yes"/>
      <point x="254" y="167" type="line" smooth="yes"/>
      <point x="254" y="122"/>
      <point x="245" y="101"/>
      <point x="210" y="101" type="curve" smooth="yes"/>
      <point x="176" y="101"/>
      <point x="166" y="123"/>
    </contour>
    <contour>
      <point x="166" y="481" type="curve" smooth="yes"/>
      <point x="166" y="553" type="line" smooth="yes"/>
      <point x="166" y="587"/>
      <point x="180" y="605"/>
      <point x="210" y="605" type="curve" smooth="yes"/>
      <point x="237" y="605"/>
      <point x="254" y="588"/>
      <point x="254" y="553" type="curve" smooth="yes"/>
      <point x="254" y="481" type="line" smooth="yes"/>
      <point x="254" y="443"/>
      <point x="244" y="420"/>
      <point x="210" y="420" type="curve" smooth="yes"/>
      <point x="176" y="420"/>
      <point x="166" y="440"/>
    </contour>
  </outline>
</glyph>
<glyph name="nine" format="2">
  <advance width="409"/>
  <unicode hex="0039"/>
  <outline>
    <contour>
      <point x="85" y="0" type="line"/>
      <point x="215" y="0" type="line"/>
      <point x="341" y="282" type="line" smooth="yes"/>
      <point x="365" y="338"/>
      <point x="375" y="374"/>
      <point x="375" y="438" type="curve" smooth="yes"/>
      <point x="375" y="544" type="line" smooth="yes"/>
      <point x="375" y="655"/>
      <point x="317" y="717"/>
      <point x="206" y="717" type="curve" smooth="yes"/>
      <point x="94" y="717"/>
      <point x="35" y="652"/>
      <point x="35" y="548" type="curve" smooth="yes"/>
      <point x="35" y="424" type="line" smooth="yes"/>
      <point x="35" y="325"/>
      <point x="85" y="268"/>
      <point x="166" y="268" type="curve" smooth="yes"/>
      <point x="183" y="268"/>
      <point x="196" y="270"/>
      <point x="205" y="275" type="curve"/>
    </contour>
    <contour>
      <point x="161" y="433" type="curve" smooth="yes"/>
      <point x="161" y="548" type="line" smooth="yes"/>
      <point x="161" y="585"/>
      <point x="176" y="603"/>
      <point x="206" y="603" type="curve" smooth="yes"/>
      <point x="235" y="603"/>
      <point x="249" y="585"/>
      <point x="249" y="549" type="curve" smooth="yes"/>
      <point x="249" y="428" type="line" smooth="yes"/>
      <point x="249" y="394"/>
      <point x="230" y="379"/>
      <point x="206" y="379" type="curve" smooth="yes"/>
      <point x="176" y="379"/>
      <point x="161" y="397"/>
    </contour>
  </outline>
</glyph>
<glyph name="semicolon" format="2">
  <advance width="179"/>
  <unicode hex="003B"/>
  <outline>
    <contour>
      <point x="34" y="-164" type="line"/>
      <point x="150" y="-71" type="line"/>
      <point x="150" y="136" type="line"/>
      <point x="34" y="136" type="line"/>
    </contour>
    <contour>
      <point x="30" y="346" type="line"/>
      <point x="150" y="346" type="line"/>
      <point x="150" y="481" type="line"/>
      <point x="30" y="481" type="line"/>
    </contour>
  </outline>
</glyph>
<glyph name="question" format="2">
  <advance width="385"/>
  <unicode hex="003F"/>
  <outline>
    <contour>
      <point x="132" y="203" type="line"/>
      <point x="245" y="203" type="line"/>
      <point x="245" y="248" type="line" smooth="yes"/>
      <point x="245" y="294"/>
      <point x="248" y="312"/>
      <point x="272" y="346" type="curve" smooth="yes"/>
      <point x="312" y="404" type="line" smooth="yes"/>
      <point x="350" y="458"/>
      <point x="358" y="493"/>
      <point x="358" y="547" type="curve" smooth="yes"/>
      <point x="358" y="653"/>
      <point x="293" y="716"/>
      <point x="189" y="716" type="curve" smooth="yes"/>
      <point x="70" y="716"/>
      <point x="20" y="646"/>
      <point x="20" y="509" type="curve"/>
      <point x="139" y="509" type="line"/>
      <point x="139" y="580"/>
      <point x="146" y="608"/>
      <point x="188" y="608" type="curve" smooth="yes"/>
      <point x="221" y="608"/>
      <point x="237" y="588"/>
      <point x="237" y="544" type="curve" smooth="yes"/>
      <point x="237" y="502"/>
      <point x="231" y="480"/>
      <point x="209" y="446" type="curve" smooth="yes"/>
      <point x="173" y="389" type="line" smooth="yes"/>
      <point x="134" y="329"/>
      <point x="132" y="305"/>
      <point x="132" y="247" type="curve" smooth="yes"/>
    </contour>
    <contour>
      <point x="132" y="0" type="line"/>
      <point x="245" y="0" type="line"/>
      <point x="245" y="130" type="line"/>
      <point x="132" y="130" type="line"/>
    </contour>
  </outline>
</glyph>
<glyph name="at" format="2">
  <advance width="731"/>
  <unicode hex="0040"/>
  <outline>
    <contour>
      <point x="39" y="204" type="curve" smooth="yes"/>
      <point x="39" y="379" type="line" smooth="yes"/>
      <point x="39" y="448"/>
      <point x="53" y="508"/>
      <point x="80" y="559" type="curve" smooth="yes"/>
      <point x="107" y="610"/>
      <point x="145" y="650"/>
      <point x="194" y="678" type="curve" smooth="yes"/>
      <point x="243" y="705"/>
      <point x="300" y="719"/>
      <point x="366" y="719" type="curve" smooth="yes"/>
      <point x="431" y="719"/>
      <point x="489" y="705"/>
      <point x="538" y="678" type="curve" smooth="yes"/>
      <point x="587" y="650"/>
      <point x="625" y="611"/>
      <point x="652" y="560" type="curve" smooth="yes"/>
      <point x="679" y="509"/>
      <point x="692" y="450"/>
      <point x="692" y="383" type="curve" smooth="yes"/>
      <point x="692" y="221" type="line" smooth="yes"/>
      <point x="692" y="168"/>
      <point x="680" y="127"/>
      <point x="656" y="99" type="curve" smooth="yes"/>
      <point x="632" y="71"/>
      <point x="597" y="57"/>
      <point x="551" y="57" type="curve" smooth="yes"/>
      <point x="522" y="57"/>
      <point x="498" y="63"/>
      <point x="477" y="75" type="curve" smooth="yes"/>
      <point x="456" y="87"/>
      <point x="440" y="104"/>
      <point x="429" y="126" type="curve"/>
      <point x="421" y="102"/>
      <point x="409" y="85"/>
      <point x="393" y="74" type="curve" smooth="yes"/>
      <point x="377" y="63"/>
      <point x="355" y="57"/>
      <point x="328" y="57" type="curve" smooth="yes"/>
      <point x="291" y="57"/>
      <point x="263" y="70"/>
      <point x="246" y="95" type="curve" smooth="yes"/>
      <point x="229" y="120"/>
      <point x="220" y="159"/>
      <point x="220" y="211" type="curve" smooth="yes"/>
      <point x="220" y="373" type="line" smooth="yes"/>
      <point x="220" y="420"/>
      <point x="228" y="455"/>
      <point x="245" y="479" type="curve" smooth="yes"/>
      <point x="261" y="503"/>
      <point x="288" y="515"/>
      <point x="325" y="515" type="curve" smooth="yes"/>
      <point x="344" y="515"/>
      <point x="359" y="511"/>
      <point x="372" y="504" type="curve" smooth="yes"/>
      <point x="385" y="497"/>
      <point x="395" y="485"/>
      <point x="404" y="468" type="curve"/>
      <point x="404" y="507" type="line"/>
      <point x="512" y="507" type="line"/>
      <point x="512" y="197" type="line" smooth="yes"/>
      <point x="512" y="181"/>
      <point x="516" y="169"/>
      <point x="523" y="162" type="curve" smooth="yes"/>
      <point x="530" y="154"/>
      <point x="540" y="150"/>
      <point x="552" y="150" type="curve" smooth="yes"/>
      <point x="567" y="150"/>
      <point x="578" y="155"/>
      <point x="584" y="165" type="curve" smooth="yes"/>
      <point x="589" y="175"/>
      <point x="592" y="189"/>
      <point x="592" y="207" type="curve" smooth="yes"/>
      <point x="592" y="392" type="line" smooth="yes"/>
      <point x="592" y="467"/>
      <point x="573" y="524"/>
      <point x="534" y="565" type="curve" smooth="yes"/>
      <point x="495" y="605"/>
      <point x="439" y="625"/>
      <point x="366" y="625" type="curve" smooth="yes"/>
      <point x="291" y="625"/>
      <point x="235" y="604"/>
      <point x="198" y="563" type="curve" smooth="yes"/>
      <point x="160" y="522"/>
      <point x="141" y="460"/>
      <point x="141" y="378" type="curve" smooth="yes"/>
      <point x="141" y="214" type="line" smooth="yes"/>
      <point x="141" y="43"/>
      <point x="216" y="-43"/>
      <point x="366" y="-43" type="curve" smooth="yes"/>
      <point x="399" y="-43"/>
      <point x="428" y="-39"/>
      <point x="453" y="-31" type="curve" smooth="yes"/>
      <point x="478" y="-24"/>
      <point x="503" y="-11"/>
      <point x="528" y="6" type="curve"/>
      <point x="581" y="-68" type="line"/>
      <point x="548" y="-92"/>
      <point x="514" y="-109"/>
      <point x="479" y="-120" type="curve" smooth="yes"/>
      <point x="444" y="-131"/>
      <point x="406" y="-137"/>
      <point x="366" y="-137" type="curve" smooth="yes"/>
      <point x="298" y="-137"/>
      <point x="240" y="-123"/>
      <point x="191" y="-96" type="curve" smooth="yes"/>
      <point x="142" y="-69"/>
      <point x="105" y="-29"/>
      <point x="79" y="22" type="curve" smooth="yes"/>
      <point x="52" y="73"/>
      <point x="39" y="134"/>
    </contour>
    <contour>
      <point x="406" y="211" type="curve" smooth="yes"/>
      <point x="406" y="368" type="line" smooth="yes"/>
      <point x="406" y="403"/>
      <point x="393" y="421"/>
      <point x="366" y="421" type="curve" smooth="yes"/>
      <point x="340" y="421"/>
      <point x="327" y="403"/>
      <point x="327" y="368" type="curve" smooth="yes"/>
      <point x="327" y="208" type="line" smooth="yes"/>
      <point x="327" y="189"/>
      <point x="330" y="175"/>
      <point x="336" y="166" type="curve" smooth="yes"/>
      <point x="341" y="157"/>
      <point x="351" y="152"/>
      <point x="366" y="152" type="curve" smooth="yes"/>
      <point x="381" y="152"/>
      <point x="392" y="157"/>
      <point x="398" y="168" type="curve" smooth="yes"/>
      <point x="403" y="178"/>
      <point x="406" y="192"/>
    </contour>
  </outline>
</glyph>
<glyph name="B" format="2">
  <advance width="466"/>
  <unicode hex="0042"/>
  <outline>
    <contour>
      <point x="43" y="0" type="line"/>
      <point x="234" y="0" type="line" smooth="yes"/>
      <point x="305" y="0"/>
      <point x="355" y="16"/>
      <point x="384" y="49" type="curve" smooth="yes"/>
      <point x="413" y="81"/>
      <point x="428" y="133"/>
      <point x="428" y="205" type="curve" smooth="yes"/>
      <point x="428" y="248"/>
      <point x="423" y="283"/>
      <point x="412" y="310" type="curve" smooth="yes"/>
      <point x="401" y="337"/>
      <point x="380" y="357"/>
      <point x="349" y="371" type="curve"/>
      <point x="377" y="384"/>
      <point x="397" y="402"/>
      <point x="409" y="427" type="curve" smooth="yes"/>
      <point x="420" y="452"/>
      <point x="426" y="481"/>
      <point x="426" y="516" type="curve" smooth="yes"/>
      <point x="426" y="582"/>
      <point x="411" y="630"/>
      <point x="382" y="661" type="curve" smooth="yes"/>
      <point x="352" y="692"/>
      <point x="303" y="707"/>
      <point x="234" y="707" type="curve" smooth="yes"/>
      <point x="43" y="707" type="line"/>
    </contour>
    <contour>
      <point x="168" y="113" type="line"/>
      <point x="168" y="314" type="line"/>
      <point x="220" y="314" type="line" smooth="yes"/>
      <point x="249" y="314"/>
      <point x="270" y="306"/>
      <point x="283" y="291" type="curve" smooth="yes"/>
      <point x="296" y="275"/>
      <point x="302" y="249"/>
      <point x="302" y="214" type="curve" smooth="yes"/>
      <point x="302" y="177"/>
      <point x="296" y="151"/>
      <point x="285" y="136" type="curve" smooth="yes"/>
      <point x="273" y="121"/>
      <point x="251" y="113"/>
      <point x="220" y="113" type="curve" smooth="yes"/>
    </contour>
    <contour>
      <point x="168" y="423" type="line"/>
      <point x="168" y="594" type="line"/>
      <point x="221" y="594" type="line" smooth="yes"/>
      <point x="250" y="594"/>
      <point x="271" y="588"/>
      <point x="283" y="575" type="curve" smooth="yes"/>
      <point x="294" y="562"/>
      <point x="300" y="539"/>
      <point x="300" y="508" type="curve" smooth="yes"/>
      <point x="300" y="478"/>
      <point x="294" y="456"/>
      <point x="283" y="443" type="curve" smooth="yes"/>
      <point x="271" y="430"/>
      <point x="250" y="423"/>
      <point x="221" y="423" type="curve" smooth="yes"/>
    </contour>
  </outline>
</glyph>
<glyph name="C" format="2">
  <advance width="479"/>
  <unicode hex="0043"/>
  <outline>
    <contour>
      <point x="237" y="-8" type="curve" smooth="yes"/>
      <point x="354" y="-8"/>
      <point x="439" y="61"/>
      <point x="439" y="198" type="curve" smooth="yes"/>
      <point x="439" y="217" type="line"/>
      <point x="314" y="217" type="line"/>
      <point x="314" y="199" type="line" smooth="yes"/>
      <point x="314" y="137"/>
      <point x="287" y="105"/>
      <point x="241" y="105" type="curve" smooth="yes"/>
      <point x="190" y="106"/>
      <point x="165" y="140"/>
      <point x="165" y="209" type="curve" smooth="yes"/>
      <point x="165" y="493" type="line" smooth="yes"/>
      <point x="165" y="566"/>
      <point x="186" y="603"/>
      <point x="241" y="603" type="curve" smooth="yes"/>
      <point x="285" y="603"/>
      <point x="314" y="573"/>
      <point x="314" y="509" type="curve" smooth="yes"/>
      <point x="314" y="488" type="line"/>
      <point x="440" y="488" type="line"/>
      <point x="440" y="510" type="line" smooth="yes"/>
      <point x="440" y="647"/>
      <point x="363" y="717"/>
      <point x="244" y="717" type="curve" smooth="yes"/>
      <point x="121" y="717"/>
      <point x="39" y="646"/>
      <point x="39" y="513" type="curve" smooth="yes"/>
      <point x="39" y="195" type="line" smooth="yes"/>
      <point x="39" y="60"/>
      <point x="116" y="-8"/>
    </contour>
  </outline>
</glyph>
<glyph name="D" format="2">
  <advance width="474"/>
  <unicode hex="0044"/>
  <outline>
    <contour>
      <point x="43" y="0" type="line"/>
      <point x="232" y="0" type="line" smooth="yes"/>
      <point x="354" y="0"/>
      <point x="435" y="71"/>
      <point x="435" y="203" type="curve" smooth="yes"/>
      <point x="435" y="504" type="line" smooth="yes"/>
      <point x="435" y="638"/>
      <point x="357" y="707"/>
      <point x="239" y="707" type="curve" smooth="yes"/>
      <point x="43" y="707" type="line"/>
    </contour>
    <contour>
      <point x="168" y="113" type="line"/>
      <point x="168" y="593" type="line"/>
      <point x="236" y="593" type="line" smooth="yes"/>
      <point x="283" y="593"/>
      <point x="309" y="555"/>
      <point x="309" y="482" type="curve" smooth="yes"/>
      <point x="309" y="217" type="line" smooth="yes"/>
      <point x="309" y="149"/>
      <point x="283" y="113"/>
      <point x="236" y="113" type="curve" smooth="yes"/>
    </contour>
  </outline>
</glyph>
<glyph name="E" format="2">
  <advance width="416"/>
  <unicode hex="0045"/>
  <outline>
    <contour>
      <point x="43" y="0" type="line"/>
      <point x="390" y="0" type="line"/>
      <point x="390" y="113" type="line"/>
      <point x="168" y="113" type="line"/>
      <point x="168" y="303" type="line"/>
      <point x="364" y="303" type="line"/>
      <point x="364" y="416" type="line"/>
      <point x="168" y="416" type="line"/>
      <point x="168" y="593" type="line"/>
      <point x="390" y="593" type="line"/>
      <point x="390" y="707" type="line"/>
      <point x="43" y="707" type="line"/>
    </contour>
  </outline>
</glyph>
<glyph name="F" format="2">
  <advance width="420"/>
  <unicode hex="0046"/>
  <outline>
    <contour>
      <point x="43" y="0" type="line"/>
      <point x="169" y="0" type="line"/>
      <point x="169" y="302" type="line"/>
      <point x="365" y="302" type="line"/>
      <point x="365" y="416" type="line"/>
      <point x="169" y="416" type="line"/>
      <point x="169" y="593" type="line"/>
      <point x="390" y="593" type="line"/>
      <point x="390" y="707" type="line"/>
      <point x="43" y="707" type="line"/>
    </contour>
  </outline>
</glyph>
<glyph name="G" format="2">
  <advance width="479"/>
  <unicode hex="0047"/>
  <outline>
    <contour>
      <point x="237" y="-8" type="curve" smooth="yes"/>
      <point x="297" y="-8"/>
      <point x="346" y="10"/>
      <point x="384" y="45" type="curve" smooth="yes"/>
      <point x="421" y="80"/>
      <point x="440" y="130"/>
      <point x="440" y="195" type="curve" smooth="yes"/>
      <point x="440" y="377" type="line"/>
      <point x="240" y="377" type="line"/>
      <point x="240" y="278" type="line"/>
      <point x="314" y="278" type="line"/>
      <point x="314" y="203" type="line" smooth="yes"/>
      <point x="314" y="172"/>
      <point x="308" y="148"/>
      <point x="296" y="131" type="curve" smooth="yes"/>
      <point x="284" y="114"/>
      <point x="266" y="105"/>
      <point x="241" y="105" type="curve" smooth="yes"/>
      <point x="190" y="106"/>
      <point x="165" y="140"/>
      <point x="165" y="209" type="curve" smooth="yes"/>
      <point x="165" y="493" type="line" smooth="yes"/>
      <point x="165" y="530"/>
      <point x="171" y="557"/>
      <point x="183" y="576" type="curve" smooth="yes"/>
      <point x="195" y="594"/>
      <point x="214" y="603"/>
      <point x="241" y="603" type="curve" smooth="yes"/>
      <point x="262" y="603"/>
      <point x="280" y="596"/>
      <point x="294" y="581" type="curve" smooth="yes"/>
      <point x="307" y="566"/>
      <point x="314" y="545"/>
      <point x="314" y="518" type="curve" smooth="yes"/>
      <point x="314" y="497" type="line"/>
      <point x="440" y="497" type="line"/>
      <point x="440" y="518" type="line" smooth="yes"/>
      <point x="440" y="583"/>
      <point x="422" y="633"/>
      <point x="386" y="667" type="curve" smooth="yes"/>
      <point x="350" y="700"/>
      <point x="303" y="717"/>
      <point x="244" y="717" type="curve" smooth="yes"/>
      <point x="183" y="717"/>
      <point x="133" y="700"/>
      <point x="96" y="665" type="curve" smooth="yes"/>
      <point x="58" y="630"/>
      <point x="39" y="580"/>
      <point x="39" y="513" type="curve" smooth="yes"/>
      <point x="39" y="195" type="line" smooth="yes"/>
      <point x="39" y="128"/>
      <point x="57" y="78"/>
      <point x="92" y="44" type="curve" smooth="yes"/>
      <point x="127" y="9"/>
      <point x="176" y="-8"/>
    </contour>
  </outline>
</glyph>
<glyph name="I" format="2">
  <advance width="219"/>
  <unicode hex="0049"/>
  <anchor x="109" y="707" name="top"/>
  <outline>
    <contour>
      <point x="47" y="0" type="line"/>
      <point x="172" y="0" type="line"/>
      <point x="172" y="707" type="line"/>
      <point x="47" y="707" type="line"/>
    </contour>
  </outline>
</glyph>
<glyph name="J" format="2">
  <advance width="272"/>
  <unicode hex="004A"/>
  <anchor x="162" y="707" name="top"/>
  <outline>
    <contour>
      <point x="17" y="0" type="line"/>
      <point x="42" y="0" type="line" smooth="yes"/>
      <point x="164" y="0"/>
      <point x="225" y="56"/>
      <point x="225" y="168" type="curve" smooth="yes"/>
      <point x="225" y="707" type="line"/>
      <point x="99" y="707" type="line"/>
      <point x="99" y="182" type="line" smooth="yes"/>
      <point x="99" y="137"/>
      <point x="77" y="114"/>
      <point x="34" y="114" type="curve" smooth="yes"/>
      <point x="17" y="114" type="line"/>
    </contour>
  </outline>
</glyph>
<glyph name="K" format="2">
  <advance width="471"/>
  <unicode hex="004B"/>
  <outline>
    <contour>
      <point x="43" y="0" type="line"/>
      <point x="168" y="0" type="line"/>
      <point x="168" y="160" type="line"/>
      <point x="225" y="273" type="line"/>
      <point x="333" y="0" type="line"/>
      <point x="467" y="0" type="line"/>
      <point x="297" y="416" type="line"/>
      <point x="444" y="707" type="line"/>
      <point x="318" y="707" type="line"/>
      <point x="168" y="374" type="line"/>
      <point x="168" y="707" type="line"/>
      <point x="43" y="707" type="line"/>
    </contour>
  </outline>
</glyph>
<glyph name="L" format="2">
  <advance width="375"/>
  <unicode hex="004C"/>
  <outline>
    <contour>
      <point x="43" y="0" type="line"/>
      <point x="358" y="0" type="line"/>
      <point x="358" y="113" type="line"/>
      <point x="169" y="113" type="line"/>
      <point x="169" y="707" type="line"/>
      <point x="43" y="707" type="line"/>
    </contour>
  </outline>
</glyph>
<glyph name="N" format="2">
  <advance width="485"/>
  <unicode hex="004E"/>
  <outline>
    <contour>
      <point x="43" y="0" type="line"/>
      <point x="169" y="0" type="line"/>
      <point x="169" y="377" type="line"/>
      <point x="316" y="0" type="line"/>
      <point x="442" y="0" type="line"/>
      <point x="442" y="707" type="line"/>
      <point x="316" y="707" type="line"/>
      <point x="316" y="313" type="line"/>
      <point x="169" y="707" type="line"/>
      <point x="43" y="707" type="line"/>
    </contour>
  </outline>
</glyph>
<glyph name="O" format="2">
  <advance width="479"/>
  <unicode hex="004F"/>
  <outline>
    <contour>
      <point x="237" y="-8" type="curve" smooth="yes"/>
      <point x="297" y="-8"/>
      <point x="346" y="10"/>
      <point x="384" y="45" type="curve" smooth="yes"/>
      <point x="421" y="80"/>
      <point x="440" y="130"/>
      <point x="440" y="195" type="curve" smooth="yes"/>
      <point x="440" y="513" type="line" smooth="yes"/>
      <point x="440" y="580"/>
      <point x="422" y="630"/>
      <point x="387" y="665" type="curve" smooth="yes"/>
      <point x="351" y="700"/>
      <point x="303" y="717"/>
      <point x="244" y="717" type="curve" smooth="yes"/>
      <point x="183" y="717"/>
      <point x="133" y="700"/>
      <point x="96" y="665" type="curve" smooth="yes"/>
      <point x="58" y="630"/>
      <point x="39" y="580"/>
      <point x="39" y="513" type="curve" smooth="yes"/>
      <point x="39" y="195" type="line" smooth="yes"/>
      <point x="39" y="128"/>
      <point x="57" y="78"/>
      <point x="92" y="44" type="curve" smooth="yes"/>
      <point x="127" y="9"/>
      <point x="176" y="-8"/>
    </contour>
    <contour>
      <point x="241" y="105" type="curve" smooth="yes"/>
      <point x="190" y="106"/>
      <point x="165" y="140"/>
      <point x="165" y="209" type="curve" smooth="yes"/>
      <point x="165" y="493" type="line" smooth="yes"/>
      <point x="165" y="530"/>
      <point x="171" y="557"/>
      <point x="183" y="576" type="curve" smooth="yes"/>
      <point x="195" y="594"/>
      <point x="214" y="603"/>
      <point x="241" y="603" type="curve" smooth="yes"/>
      <point x="266" y="603"/>
      <point x="284" y="594"/>
      <point x="296" y="575" type="curve" smooth="yes"/>
      <point x="308" y="556"/>
      <point x="314" y="529"/>
      <point x="314" y="493" type="curve" smooth="yes"/>
      <point x="314" y="209" type="line" smooth="yes"/>
      <point x="314" y="176"/>
      <point x="308" y="151"/>
      <point x="295" y="133" type="curve" smooth="yes"/>
      <point x="282" y="114"/>
      <point x="264" y="105"/>
    </contour>
  </outline>
</glyph>
<glyph name="P" format="2">
  <advance width="444"/>
  <unicode hex="0050"/>
  <outline>
    <contour>
      <point x="43" y="0" type="line"/>
      <point x="168" y="0" type="line"/>
      <point x="168" y="261" type="line"/>
      <point x="233" y="261" type="line" smooth="yes"/>
      <point x="302" y="261"/>
      <point x="351" y="279"/>
      <point x="382" y="316" type="curve" smooth="yes"/>
      <point x="412" y="353"/>
      <point x="427" y="409"/>
      <point x="427" y="484" type="curve" smooth="yes"/>
      <point x="427" y="559"/>
      <point x="412" y="615"/>
      <point x="383" y="652" type="curve" smooth="yes"/>
      <point x="353" y="689"/>
      <point x="303" y="707"/>
      <point x="233" y="707" type="curve" smooth="yes"/>
      <point x="43" y="707" type="line"/>
    </contour>
    <contour>
      <point x="168" y="375" type="line"/>
      <point x="168" y="594" type="line"/>
      <point x="229" y="594" type="line" smooth="yes"/>
      <point x="256" y="594"/>
      <point x="274" y="585"/>
      <point x="285" y="567" type="curve" smooth="yes"/>
      <point x="296" y="549"/>
      <point x="301" y="521"/>
      <point x="301" y="484" type="curve" smooth="yes"/>
      <point x="301" y="447"/>
      <point x="296" y="419"/>
      <point x="285" y="402" type="curve" smooth="yes"/>
      <point x="274" y="384"/>
      <point x="256" y="375"/>
      <point x="229" y="375" type="curve" smooth="yes"/>
    </contour>
  </outline>
</glyph>
<glyph name="Q" format="2">
  <advance width="479"/>
  <unicode hex="0051"/>
  <anchor x="240" y="707" name="top"/>
  <outline>
    <contour>
      <point x="290" y="-148" type="line"/>
      <point x="394" y="-110" type="line"/>
      <point x="348" y="18" type="line"/>
      <point x="405" y="49"/>
      <point x="440" y="107"/>
      <point x="440" y="195" type="curve" smooth="yes"/>
      <point x="440" y="513" type="line" smooth="yes"/>
      <point x="440" y="648"/>
      <point x="361" y="717"/>
      <point x="244" y="717" type="curve" smooth="yes"/>
      <point x="121" y="717"/>
      <point x="39" y="646"/>
      <point x="39" y="513" type="curve" smooth="yes"/>
      <point x="39" y="195" type="line" smooth="yes"/>
      <point x="39" y="62"/>
      <point x="115" y="-8"/>
      <point x="236" y="-8" type="curve" smooth="yes"/>
      <point x="236" y="-8"/>
      <point x="238" y="-8"/>
      <point x="240" y="-8" type="curve"/>
    </contour>
    <contour>
      <point x="165" y="209" type="curve" smooth="yes"/>
      <point x="165" y="493" type="line" smooth="yes"/>
      <point x="165" y="566"/>
      <point x="186" y="603"/>
      <point x="241" y="603" type="curve" smooth="yes"/>
      <point x="291" y="603"/>
      <point x="314" y="565"/>
      <point x="314" y="493" type="curve" smooth="yes"/>
      <point x="314" y="209" type="line" smooth="yes"/>
      <point x="314" y="141"/>
      <point x="288" y="105"/>
      <point x="241" y="105" type="curve" smooth="yes"/>
      <point x="190" y="105"/>
      <point x="165" y="140"/>
    </contour>
  </outline>
</glyph>
<glyph name="R" format="2">
  <advance width="471"/>
  <unicode hex="0052"/>
  <outline>
    <contour>
      <point x="43" y="0" type="line"/>
      <point x="169" y="0" type="line"/>
      <point x="169" y="284" type="line"/>
      <point x="229" y="284" type="line"/>
      <point x="318" y="0" type="line"/>
      <point x="450" y="0" type="line"/>
      <point x="344" y="307" type="line"/>
      <point x="402" y="339"/>
      <point x="427" y="402"/>
      <point x="427" y="496" type="curve" smooth="yes"/>
      <point x="427" y="641"/>
      <point x="375" y="707"/>
      <point x="236" y="707" type="curve" smooth="yes"/>
      <point x="43" y="707" type="line"/>
    </contour>
    <contour>
      <point x="169" y="396" type="line"/>
      <point x="169" y="594" type="line"/>
      <point x="234" y="594" type="line" smooth="yes"/>
      <point x="287" y="594"/>
      <point x="301" y="560"/>
      <point x="301" y="496" type="curve" smooth="yes"/>
      <point x="301" y="429"/>
      <point x="283" y="396"/>
      <point x="234" y="396" type="curve" smooth="yes"/>
    </contour>
  </outline>
</glyph>
<glyph name="S" format="2">
  <advance width="436"/>
  <unicode hex="0053"/>
  <outline>
    <contour>
      <point x="212" y="-8" type="curve" smooth="yes"/>
      <point x="336" y="-8"/>
      <point x="409" y="65"/>
      <point x="409" y="197" type="curve" smooth="yes"/>
      <point x="409" y="308"/>
      <point x="365" y="366"/>
      <point x="268" y="410" type="curve" smooth="yes"/>
      <point x="222" y="430" type="line" smooth="yes"/>
      <point x="168" y="452"/>
      <point x="148" y="478"/>
      <point x="148" y="528" type="curve" smooth="yes"/>
      <point x="148" y="582"/>
      <point x="171" y="609"/>
      <point x="217" y="609" type="curve" smooth="yes"/>
      <point x="267" y="609"/>
      <point x="285" y="577"/>
      <point x="287" y="513" type="curve"/>
      <point x="402" y="513" type="line"/>
      <point x="398" y="646"/>
      <point x="332" y="718"/>
      <point x="217" y="718" type="curve" smooth="yes"/>
      <point x="97" y="718"/>
      <point x="26" y="638"/>
      <point x="26" y="522" type="curve" smooth="yes"/>
      <point x="26" y="419"/>
      <point x="64" y="368"/>
      <point x="155" y="326" type="curve" smooth="yes"/>
      <point x="203" y="304" type="line" smooth="yes"/>
      <point x="263" y="278"/>
      <point x="286" y="249"/>
      <point x="286" y="195" type="curve" smooth="yes"/>
      <point x="286" y="129"/>
      <point x="265" y="100"/>
      <point x="215" y="100" type="curve" smooth="yes"/>
      <point x="165" y="100"/>
      <point x="140" y="132"/>
      <point x="138" y="202" type="curve"/>
      <point x="19" y="202" type="line"/>
      <point x="21" y="66"/>
      <point x="88" y="-8"/>
    </contour>
  </outline>
</glyph>
<glyph name="T" format="2">
  <advance width="394"/>
  <unicode hex="0054"/>
  <outline>
    <contour>
      <point x="135" y="0" type="line"/>
      <point x="260" y="0" type="line"/>
      <point x="260" y="593" type="line"/>
      <point x="382" y="593" type="line"/>
      <point x="382" y="707" type="line"/>
      <point x="12" y="707" type="line"/>
      <point x="12" y="593" type="line"/>
      <point x="135" y="593" type="line"/>
    </contour>
  </outline>
</glyph>
<glyph name="U" format="2">
  <advance width="471"/>
  <unicode hex="0055"/>
  <outline>
    <contour>
      <point x="236" y="-8" type="curve" smooth="yes"/>
      <point x="346" y="-8"/>
      <point x="428" y="70"/>
      <point x="428" y="185" type="curve" smooth="yes"/>
      <point x="428" y="707" type="line"/>
      <point x="302" y="707" type="line"/>
      <point x="302" y="188" type="line" smooth="yes"/>
      <point x="302" y="134"/>
      <point x="283" y="105"/>
      <point x="236" y="105" type="curve" smooth="yes"/>
      <point x="190" y="105"/>
      <point x="169" y="130"/>
      <point x="169" y="188" type="curve" smooth="yes"/>
      <point x="169" y="707" type="line"/>
      <point x="43" y="707" type="line"/>
      <point x="43" y="185" type="line" smooth="yes"/>
      <point x="43" y="71"/>
      <point x="125" y="-8"/>
    </contour>
  </outline>
</glyph>
<glyph name="Y" format="2">
  <advance width="424"/>
  <unicode hex="0059"/>
  <outline>
    <contour>
      <point x="150" y="0" type="line"/>
      <point x="275" y="0" type="line"/>
      <point x="275" y="275" type="line"/>
      <point x="419" y="707" type="line"/>
      <point x="280" y="707" type="line"/>
      <point x="212" y="436" type="line"/>
      <point x="144" y="707" type="line"/>
      <point x="6" y="707" type="line"/>
      <point x="150" y="278" type="line"/>
    </contour>
  </outline>
</glyph>
<glyph name="bracketright" format="2">
  <advance width="289"/>
  <unicode hex="005D"/>
  <outline>
    <contour>
      <point x="39" y="-86" type="line"/>
      <point x="247" y="-86" type="line"/>
      <point x="247" y="758" type="line"/>
      <point x="39" y="758" type="line"/>
      <point x="39" y="644" type="line"/>
      <point x="129" y="644" type="line"/>
      <point x="129" y="28" type="line"/>
      <point x="39" y="28" type="line"/>
    </contour>
  </outline>
</glyph>
<glyph name="underscore" format="2">
  <advance width="435"/>
  <unicode hex="005F"/>
  <outline>
    <contour>
      <point x="0" y="-120" type="line"/>
      <point x="435" y="-120" type="line"/>
      <point x="435" y="-49" type="line"/>
      <point x="0" y="-49" type="line"/>
    </contour>
  </outline>
</glyph>
<glyph name="grave" format="2">
  <advance width="512"/>
  <unicode hex="0060"/>
  <outline>
    <contour>
      <point x="268" y="604" type="line"/>
      <point x="370" y="604" type="line"/>
      <point x="268" y="743" type="line"/>
      <point x="142" y="743" type="line"/>
    </contour>
  </outline>
</glyph>
<glyph name="a" format="2">
  <advance width="414"/>
  <unicode hex="0061"/>
  <outline>
    <contour>
      <point x="373" y="377" type="curve" smooth="yes"/>
      <point x="373" y="0" type="line"/>
      <point x="262" y="0" type="line"/>
      <point x="262" y="45" type="line"/>
      <point x="247" y="26"/>
      <point x="233" y="13"/>
      <point x="220" y="5" type="curve" smooth="yes"/>
      <point x="207" y="-4"/>
      <point x="189" y="-8"/>
      <point x="167" y="-8" type="curve" smooth="yes"/>
      <point x="122" y="-8"/>
      <point x="88" y="7"/>
      <point x="65" y="36" type="curve" smooth="yes"/>
      <point x="42" y="65"/>
      <point x="31" y="106"/>
      <point x="31" y="159" type="curve" smooth="yes"/>
      <point x="31" y="210"/>
      <point x="46" y="249"/>
      <point x="77" y="276" type="curve" smooth="yes"/>
      <point x="108" y="303"/>
      <point x="152" y="317"/>
      <point x="209" y="317" type="curve" smooth="yes"/>
      <point x="254" y="317" type="line"/>
      <point x="254" y="386" type="line" smooth="yes"/>
      <point x="254" y="405"/>
      <point x="250" y="420"/>
      <point x="241" y="430" type="curve" smooth="yes"/>
      <point x="232" y="439"/>
      <point x="220" y="444"/>
      <point x="204" y="444" type="curve" smooth="yes"/>
      <point x="189" y="444"/>
      <point x="177" y="439"/>
      <point x="168" y="430" type="curve" smooth="yes"/>
      <point x="159" y="421"/>
      <point x="155" y="408"/>
      <point x="155" y="391" type="curve" smooth="yes"/>
      <point x="155" y="383" type="line"/>
      <point x="45" y="383" type="line"/>
      <point x="45" y="387" type="line" smooth="yes"/>
      <point x="45" y="440"/>
      <point x="60" y="481"/>
      <point x="90" y="508" type="curve" smooth="yes"/>
      <point x="120" y="535"/>
      <point x="159" y="549"/>
      <point x="207" y="549" type="curve" smooth="yes"/>
      <point x="260" y="549"/>
      <point x="301" y="534"/>
      <point x="330" y="503" type="curve" smooth="yes"/>
      <point x="359" y="472"/>
      <point x="373" y="430"/>
    </contour>
    <contour>
      <point x="254" y="162" type="curve" smooth="yes"/>
      <point x="254" y="234" type="line"/>
      <point x="223" y="234" type="line" smooth="yes"/>
      <point x="199" y="234"/>
      <point x="181" y="229"/>
      <point x="169" y="218" type="curve" smooth="yes"/>
      <point x="156" y="207"/>
      <point x="150" y="189"/>
      <point x="150" y="164" type="curve" smooth="yes"/>
      <point x="150" y="141"/>
      <point x="154" y="124"/>
      <point x="163" y="113" type="curve" smooth="yes"/>
      <point x="172" y="101"/>
      <point x="185" y="95"/>
      <point x="202" y="95" type="curve" smooth="yes"/>
      <point x="217" y="95"/>
      <point x="229" y="101"/>
      <point x="239" y="113" type="curve" smooth="yes"/>
      <point x="249" y="125"/>
      <point x="254" y="141"/>
    </contour>
  </outline>
</glyph>
<glyph name="c" format="2">
  <advance width="416"/>
  <unicode hex="0063"/>
  <outline>
    <contour>
      <point x="211" y="-8" type="curve" smooth="yes"/>
      <point x="318" y="-8"/>
      <point x="378" y="50"/>
      <point x="378" y="171" type="curve" smooth="yes"/>
      <point x="378" y="188" type="line"/>
      <point x="263" y="188" type="line"/>
      <point x="263" y="171" type="line" smooth="yes"/>
      <point x="263" y="121"/>
      <point x="244" y="98"/>
      <point x="210" y="98" type="curve" smooth="yes"/>
      <point x="176" y="98"/>
      <point x="158" y="124"/>
      <point x="158" y="186" type="curve" smooth="yes"/>
      <point x="158" y="354" type="line" smooth="yes"/>
      <point x="158" y="416"/>
      <point x="175" y="442"/>
      <point x="211" y="442" type="curve" smooth="yes"/>
      <point x="246" y="442"/>
      <point x="263" y="418"/>
      <point x="263" y="371" type="curve" smooth="yes"/>
      <point x="263" y="352" type="line"/>
      <point x="378" y="352" type="line"/>
      <point x="378" y="373" type="line" smooth="yes"/>
      <point x="378" y="491"/>
      <point x="319" y="549"/>
      <point x="211" y="549" type="curve" smooth="yes"/>
      <point x="99" y="549"/>
      <point x="39" y="491"/>
      <point x="39" y="353" type="curve" smooth="yes"/>
      <point x="39" y="187" type="line" smooth="yes"/>
      <point x="39" y="49"/>
      <point x="99" y="-8"/>
    </contour>
  </outline>
</glyph>
<glyph name="e" format="2">
  <advance width="420"/>
  <unicode hex="0065"/>
  <outline>
    <contour>
      <point x="211" y="-8" type="curve" smooth="yes"/>
      <point x="319" y="-8"/>
      <point x="378" y="50"/>
      <point x="378" y="164" type="curve" smooth="yes"/>
      <point x="378" y="170" type="line"/>
      <point x="263" y="170" type="line"/>
      <point x="263" y="165" type="line" smooth="yes"/>
      <point x="263" y="119"/>
      <point x="246" y="96"/>
      <point x="211" y="96" type="curve" smooth="yes"/>
      <point x="176" y="96"/>
      <point x="158" y="124"/>
      <point x="158" y="179" type="curve" smooth="yes"/>
      <point x="158" y="228" type="line"/>
      <point x="382" y="228" type="line"/>
      <point x="382" y="336" type="line" smooth="yes"/>
      <point x="382" y="481"/>
      <point x="317" y="549"/>
      <point x="208" y="549" type="curve" smooth="yes"/>
      <point x="95" y="549"/>
      <point x="39" y="483"/>
      <point x="39" y="336" type="curve" smooth="yes"/>
      <point x="39" y="204" type="line" smooth="yes"/>
      <point x="39" y="52"/>
      <point x="101" y="-8"/>
    </contour>
    <contour>
      <point x="158" y="314" type="line"/>
      <point x="158" y="354" type="line" smooth="yes"/>
      <point x="158" y="416"/>
      <point x="176" y="442"/>
      <point x="210" y="442" type="curve" smooth="yes"/>
      <point x="246" y="442"/>
      <point x="263" y="416"/>
      <point x="263" y="354" type="curve" smooth="yes"/>
      <point x="263" y="314" type="line"/>
    </contour>
  </outline>
</glyph>
<glyph name="f" format="2">
  <advance width="293"/>
  <unicode hex="0066"/>
  <outline>
    <contour>
      <point x="82" y="0" type="line"/>
      <point x="200" y="0" type="line"/>
      <point x="200" y="458" type="line"/>
      <point x="272" y="458" type="line"/>
      <point x="272" y="541" type="line"/>
      <point x="200" y="541" type="line"/>
      <point x="200" y="563" type="line" smooth="yes"/>
      <point x="200" y="606"/>
      <point x="214" y="623"/>
      <point x="257" y="623" type="curve" smooth="yes"/>
      <point x="272" y="623" type="line"/>
      <point x="272" y="707" type="line"/>
      <point x="221" y="707" type="line" smooth="yes"/>
      <point x="128" y="706"/>
      <point x="82" y="661"/>
      <point x="82" y="571" type="curve" smooth="yes"/>
      <point x="82" y="541" type="line"/>
      <point x="28" y="541" type="line"/>
      <point x="28" y="458" type="line"/>
      <point x="82" y="458" type="line"/>
    </contour>
  </outline>
</glyph>
<glyph name="g" format="2">
  <advance width="419"/>
  <unicode hex="0067"/>
  <outline>
    <contour>
      <point x="210" y="-172" type="curve" smooth="yes"/>
      <point x="263" y="-172"/>
      <point x="304" y="-156"/>
      <point x="334" y="-124" type="curve" smooth="yes"/>
      <point x="363" y="-92"/>
      <point x="378" y="-49"/>
      <point x="378" y="6" type="curve" smooth="yes"/>
      <point x="378" y="541" type="line"/>
      <point x="260" y="541" type="line"/>
      <point x="260" y="498" type="line"/>
      <point x="251" y="514"/>
      <point x="238" y="527"/>
      <point x="223" y="536" type="curve" smooth="yes"/>
      <point x="207" y="545"/>
      <point x="189" y="549"/>
      <point x="169" y="549" type="curve" smooth="yes"/>
      <point x="130" y="549"/>
      <point x="98" y="535"/>
      <point x="75" y="507" type="curve" smooth="yes"/>
      <point x="51" y="479"/>
      <point x="39" y="435"/>
      <point x="39" y="374" type="curve" smooth="yes"/>
      <point x="39" y="217" type="line" smooth="yes"/>
      <point x="39" y="156"/>
      <point x="51" y="112"/>
      <point x="76" y="84" type="curve" smooth="yes"/>
      <point x="100" y="56"/>
      <point x="132" y="42"/>
      <point x="171" y="42" type="curve" smooth="yes"/>
      <point x="207" y="42"/>
      <point x="238" y="57"/>
      <point x="264" y="88" type="curve"/>
      <point x="264" y="-5" type="line" smooth="yes"/>
      <point x="264" y="-26"/>
      <point x="260" y="-42"/>
      <point x="251" y="-53" type="curve" smooth="yes"/>
      <point x="242" y="-64"/>
      <point x="228" y="-70"/>
      <point x="211" y="-70" type="curve" smooth="yes"/>
      <point x="194" y="-70"/>
      <point x="181" y="-65"/>
      <point x="172" y="-56" type="curve" smooth="yes"/>
      <point x="163" y="-47"/>
      <point x="159" y="-35"/>
      <point x="159" y="-18" type="curve"/>
      <point x="48" y="-18" type="line"/>
      <point x="49" y="-69"/>
      <point x="64" y="-107"/>
      <point x="93" y="-133" type="curve" smooth="yes"/>
      <point x="121" y="-159"/>
      <point x="160" y="-172"/>
    </contour>
    <contour>
      <point x="171" y="169" type="curve" smooth="yes"/>
      <point x="162" y="183"/>
      <point x="158" y="206"/>
      <point x="158" y="237" type="curve" smooth="yes"/>
      <point x="158" y="354" type="line" smooth="yes"/>
      <point x="158" y="385"/>
      <point x="162" y="407"/>
      <point x="171" y="421" type="curve" smooth="yes"/>
      <point x="179" y="435"/>
      <point x="192" y="442"/>
      <point x="209" y="442" type="curve" smooth="yes"/>
      <point x="227" y="442"/>
      <point x="240" y="435"/>
      <point x="249" y="421" type="curve" smooth="yes"/>
      <point x="258" y="407"/>
      <point x="262" y="385"/>
      <point x="262" y="354" type="curve" smooth="yes"/>
      <point x="262" y="237" type="line" smooth="yes"/>
      <point x="262" y="178"/>
      <point x="245" y="149"/>
      <point x="210" y="148" type="curve" smooth="yes"/>
      <point x="192" y="148"/>
      <point x="179" y="155"/>
    </contour>
  </outline>
</glyph>
<glyph name="h" format="2">
  <advance width="419"/>
  <unicode hex="0068"/>
  <outline>
    <contour>
      <point x="42" y="0" type="line"/>
      <point x="161" y="0" type="line"/>
      <point x="161" y="385" type="line" smooth="yes"/>
      <point x="161" y="422"/>
      <point x="179" y="442"/>
      <point x="210" y="442" type="curve" smooth="yes"/>
      <point x="239" y="442"/>
      <point x="259" y="422"/>
      <point x="259" y="385" type="curve" smooth="yes"/>
      <point x="259" y="0" type="line"/>
      <point x="378" y="0" type="line"/>
      <point x="378" y="386" type="line" smooth="yes"/>
      <point x="378" y="492"/>
      <point x="338" y="549"/>
      <point x="246" y="549" type="curve" smooth="yes"/>
      <point x="215" y="549"/>
      <point x="186" y="535"/>
      <point x="161" y="506" type="curve"/>
      <point x="161" y="707" type="line"/>
      <point x="42" y="707" type="line"/>
    </contour>
  </outline>
</glyph>
<glyph name="i" format="2">
  <advance width="210"/>
  <unicode hex="0069"/>
  <outline>
    <contour>
      <point x="46" y="0" type="line"/>
      <point x="165" y="0" type="line"/>
      <point x="165" y="541" type="line"/>
      <point x="46" y="541" type="line"/>
    </contour>
    <contour>
      <point x="46" y="607" type="line"/>
      <point x="165" y="607" type="line"/>
      <point x="165" y="707" type="line"/>
      <point x="46" y="707" type="line"/>
    </contour>
  </outline>
</glyph>
<glyph name="j" format="2">
  <advance width="210"/>
  <unicode hex="006A"/>
  <outline>
    <contour>
      <point x="-25" y="-162" type="line"/>
      <point x="-18" y="-162" type="line" smooth="yes"/>
      <point x="104" y="-162"/>
      <point x="165" y="-106"/>
      <point x="165" y="6" type="curve" smooth="yes"/>
      <point x="165" y="541" type="line"/>
      <point x="46" y="541" type="line"/>
      <point x="46" y="13" type="line" smooth="yes"/>
      <point x="46" y="-10"/>
      <point x="41" y="-28"/>
      <point x="29" y="-39" type="curve" smooth="yes"/>
      <point x="18" y="-50"/>
      <point x="2" y="-55"/>
      <point x="-19" y="-55" type="curve" smooth="yes"/>
      <point x="-25" y="-55" type="line"/>
    </contour>
    <contour>
      <point x="46" y="607" type="line"/>
      <point x="165" y="607" type="line"/>
      <point x="165" y="707" type="line"/>
      <point x="46" y="707" type="line"/>
    </contour>
  </outline>
</glyph>
<glyph name="k" format="2">
  <advance width="429"/>
  <unicode hex="006B"/>
  <outline>
    <contour>
      <point x="42" y="0" type="line"/>
      <point x="161" y="0" type="line"/>
      <point x="161" y="153" type="line"/>
      <point x="202" y="215" type="line"/>
      <point x="288" y="0" type="line"/>
      <point x="419" y="0" type="line"/>
      <point x="275" y="329" type="line"/>
      <point x="414" y="541" type="line"/>
      <point x="290" y="541" type="line"/>
      <point x="161" y="321" type="line"/>
      <point x="161" y="707" type="line"/>
      <point x="42" y="707" type="line"/>
    </contour>
  </outline>
</glyph>
<glyph name="l" format="2">
  <advance width="245"/>
  <unicode hex="006C"/>
  <outline>
    <contour>
      <point x="42" y="168" type="curve" smooth="yes"/>
      <point x="42" y="707" type="line"/>
      <point x="161" y="707" type="line"/>
      <point x="161" y="175" type="line" smooth="yes"/>
      <point x="161" y="129"/>
      <point x="183" y="106"/>
      <point x="226" y="106" type="curve" smooth="yes"/>
      <point x="231" y="106" type="line"/>
      <point x="231" y="0" type="line"/>
      <point x="225" y="0" type="line" smooth="yes"/>
      <point x="103" y="0"/>
      <point x="42" y="56"/>
    </contour>
  </outline>
</glyph>
<glyph name="m" format="2">
  <advance width="636"/>
  <unicode hex="006D"/>
  <outline>
    <contour>
      <point x="42" y="0" type="line"/>
      <point x="161" y="0" type="line"/>
      <point x="161" y="385" type="line" smooth="yes"/>
      <point x="161" y="422"/>
      <point x="179" y="442"/>
      <point x="210" y="442" type="curve" smooth="yes"/>
      <point x="239" y="442"/>
      <point x="259" y="422"/>
      <point x="259" y="385" type="curve" smooth="yes"/>
      <point x="259" y="0" type="line"/>
      <point x="378" y="0" type="line"/>
      <point x="378" y="385" type="line" smooth="yes"/>
      <point x="378" y="422"/>
      <point x="396" y="442"/>
      <point x="427" y="442" type="curve" smooth="yes"/>
      <point x="458" y="442"/>
      <point x="476" y="422"/>
      <point x="476" y="385" type="curve" smooth="yes"/>
      <point x="476" y="0" type="line"/>
      <point x="595" y="0" type="line"/>
      <point x="595" y="386" type="line" smooth="yes"/>
      <point x="595" y="494"/>
      <point x="557" y="549"/>
      <point x="459" y="549" type="curve" smooth="yes"/>
      <point x="419" y="549"/>
      <point x="378" y="527"/>
      <point x="352" y="493" type="curve"/>
      <point x="330" y="528"/>
      <point x="290" y="549"/>
      <point x="247" y="549" type="curve" smooth="yes"/>
      <point x="211" y="549"/>
      <point x="181" y="533"/>
      <point x="156" y="501" type="curve"/>
      <point x="156" y="541" type="line"/>
      <point x="42" y="541" type="line"/>
    </contour>
  </outline>
</glyph>
<glyph name="n" format="2">
  <advance width="419"/>
  <unicode hex="006E"/>
  <outline>
    <contour>
      <point x="42" y="0" type="line"/>
      <point x="161" y="0" type="line"/>
      <point x="161" y="385" type="line" smooth="yes"/>
      <point x="161" y="422"/>
      <point x="179" y="442"/>
      <point x="210" y="442" type="curve" smooth="yes"/>
      <point x="239" y="442"/>
      <point x="259" y="422"/>
      <point x="259" y="385" type="curve" smooth="yes"/>
      <point x="259" y="0" type="line"/>
      <point x="378" y="0" type="line"/>
      <point x="378" y="386" type="line" smooth="yes"/>
      <point x="378" y="495"/>
      <point x="334" y="549"/>
      <point x="246" y="549" type="curve" smooth="yes"/>
      <point x="211" y="549"/>
      <point x="181" y="533"/>
      <point x="156" y="501" type="curve"/>
      <point x="156" y="541" type="line"/>
      <point x="42" y="541" type="line"/>
    </contour>
  </outline>
</glyph>
<glyph name="o" format="2">
  <advance width="420"/>
  <unicode hex="006F"/>
  <outline>
    <contour>
      <point x="211" y="-8" type="curve" smooth="yes"/>
      <point x="323" y="-8"/>
      <point x="382" y="49"/>
      <point x="382" y="187" type="curve" smooth="yes"/>
      <point x="382" y="353" type="line" smooth="yes"/>
      <point x="382" y="491"/>
      <point x="323" y="549"/>
      <point x="211" y="549" type="curve" smooth="yes"/>
      <point x="99" y="549"/>
      <point x="39" y="491"/>
      <point x="39" y="353" type="curve" smooth="yes"/>
      <point x="39" y="187" type="line" smooth="yes"/>
      <point x="39" y="49"/>
      <point x="99" y="-8"/>
    </contour>
    <contour>
      <point x="158" y="186" type="curve" smooth="yes"/>
      <point x="158" y="354" type="line" smooth="yes"/>
      <point x="158" y="416"/>
      <point x="176" y="442"/>
      <point x="210" y="442" type="curve" smooth="yes"/>
      <point x="246" y="442"/>
      <point x="263" y="416"/>
      <point x="263" y="354" type="curve" smooth="yes"/>
      <point x="263" y="186" type="line" smooth="yes"/>
      <point x="263" y="124"/>
      <point x="246" y="98"/>
      <point x="210" y="98" type="curve" smooth="yes"/>
      <point x="176" y="98"/>
      <point x="158" y="124"/>
    </contour>
  </outline>
</glyph>
<glyph name="q" format="2">
  <advance width="419"/>
  <unicode hex="0071"/>
  <outline>
    <contour>
      <point x="260" y="-162" type="line"/>
      <point x="378" y="-162" type="line"/>
      <point x="378" y="541" type="line"/>
      <point x="264" y="541" type="line"/>
      <point x="264" y="498" type="line"/>
      <point x="239" y="532"/>
      <point x="208" y="549"/>
      <point x="169" y="549" type="curve" smooth="yes"/>
      <point x="90" y="549"/>
      <point x="39" y="495"/>
      <point x="39" y="374" type="curve" smooth="yes"/>
      <point x="39" y="167" type="line" smooth="yes"/>
      <point x="39" y="46"/>
      <point x="92" y="-8"/>
      <point x="171" y="-8" type="curve" smooth="yes"/>
      <point x="207" y="-8"/>
      <point x="237" y="6"/>
      <point x="260" y="33" type="curve"/>
    </contour>
    <contour>
      <point x="158" y="186" type="curve" smooth="yes"/>
      <point x="158" y="354" type="line" smooth="yes"/>
      <point x="158" y="415"/>
      <point x="174" y="442"/>
      <point x="209" y="442" type="curve" smooth="yes"/>
      <point x="245" y="442"/>
      <point x="262" y="416"/>
      <point x="262" y="354" type="curve" smooth="yes"/>
      <point x="262" y="186" type="line" smooth="yes"/>
      <point x="262" y="127"/>
      <point x="245" y="98"/>
      <point x="210" y="98" type="curve" smooth="yes"/>
      <point x="174" y="98"/>
      <point x="158" y="123"/>
    </contour>
  </outline>
</glyph>
<glyph name="r" format="2">
  <advance width="313"/>
  <unicode hex="0072"/>
  <outline>
    <contour>
      <point x="42" y="0" type="line"/>
      <point x="161" y="0" type="line"/>
      <point x="161" y="340" type="line" smooth="yes"/>
      <point x="161" y="398"/>
      <point x="195" y="432"/>
      <point x="245" y="432" type="curve" smooth="yes"/>
      <point x="262" y="432"/>
      <point x="280" y="429"/>
      <point x="299" y="422" type="curve"/>
      <point x="299" y="547" type="line"/>
      <point x="288" y="550"/>
      <point x="275" y="551"/>
      <point x="262" y="551" type="curve" smooth="yes"/>
      <point x="216" y="551"/>
      <point x="182" y="534"/>
      <point x="156" y="490" type="curve"/>
      <point x="156" y="541" type="line"/>
      <point x="42" y="541" type="line"/>
    </contour>
  </outline>
</glyph>
<glyph name="s" format="2">
  <advance width="401"/>
  <unicode hex="0073"/>
  <outline>
    <contour>
      <point x="202" y="-8" type="curve" smooth="yes"/>
      <point x="307" y="-8"/>
      <point x="374" y="57"/>
      <point x="374" y="152" type="curve" smooth="yes"/>
      <point x="374" y="230"/>
      <point x="342" y="274"/>
      <point x="264" y="308" type="curve" smooth="yes"/>
      <point x="198" y="337" type="line" smooth="yes"/>
      <point x="160" y="353"/>
      <point x="148" y="369"/>
      <point x="148" y="399" type="curve" smooth="yes"/>
      <point x="148" y="433"/>
      <point x="168" y="451"/>
      <point x="200" y="451" type="curve" smooth="yes"/>
      <point x="231" y="451"/>
      <point x="253" y="429"/>
      <point x="253" y="386" type="curve" smooth="yes"/>
      <point x="253" y="380" type="line"/>
      <point x="368" y="380" type="line"/>
      <point x="368" y="390" type="line" smooth="yes"/>
      <point x="368" y="484"/>
      <point x="301" y="549"/>
      <point x="201" y="549" type="curve" smooth="yes"/>
      <point x="101" y="549"/>
      <point x="34" y="484"/>
      <point x="34" y="394" type="curve" smooth="yes"/>
      <point x="34" y="322"/>
      <point x="61" y="278"/>
      <point x="143" y="242" type="curve" smooth="yes"/>
      <point x="205" y="215" type="line" smooth="yes"/>
      <point x="242" y="199"/>
      <point x="258" y="179"/>
      <point x="258" y="150" type="curve" smooth="yes"/>
      <point x="258" y="112"/>
      <point x="240" y="91"/>
      <point x="204" y="91" type="curve" smooth="yes"/>
      <point x="165" y="91"/>
      <point x="145" y="115"/>
      <point x="145" y="156" type="curve" smooth="yes"/>
      <point x="145" y="162" type="line"/>
      <point x="31" y="162" type="line"/>
      <point x="31" y="156" type="line" smooth="yes"/>
      <point x="31" y="54"/>
      <point x="96" y="-8"/>
    </contour>
  </outline>
</glyph>
<glyph name="t" format="2">
  <advance width="309"/>
  <unicode hex="0074"/>
  <outline>
    <contour>
      <point x="267" y="0" type="curve" smooth="yes"/>
      <point x="271" y="0" type="line"/>
      <point x="271" y="106" type="line"/>
      <point x="267" y="106" type="line" smooth="yes"/>
      <point x="222" y="106"/>
      <point x="199" y="129"/>
      <point x="199" y="175" type="curve" smooth="yes"/>
      <point x="199" y="458" type="line"/>
      <point x="285" y="458" type="line"/>
      <point x="285" y="541" type="line"/>
      <point x="199" y="541" type="line"/>
      <point x="199" y="684" type="line"/>
      <point x="80" y="636" type="line"/>
      <point x="80" y="541" type="line"/>
      <point x="19" y="541" type="line"/>
      <point x="19" y="458" type="line"/>
      <point x="80" y="458" type="line"/>
      <point x="80" y="168" type="line" smooth="yes"/>
      <point x="80" y="53"/>
      <point x="144" y="0"/>
    </contour>
  </outline>
</glyph>
<glyph name="u" format="2">
  <advance width="419"/>
  <unicode hex="0075"/>
  <outline>
    <contour>
      <point x="210" y="-8" type="curve" smooth="yes"/>
      <point x="339" y="-8"/>
      <point x="378" y="50"/>
      <point x="378" y="181" type="curve" smooth="yes"/>
      <point x="378" y="541" type="line"/>
      <point x="259" y="541" type="line"/>
      <point x="259" y="206" type="line" smooth="yes"/>
      <point x="259" y="127"/>
      <point x="257" y="98"/>
      <point x="210" y="98" type="curve" smooth="yes"/>
      <point x="165" y="98"/>
      <point x="161" y="126"/>
      <point x="161" y="206" type="curve" smooth="yes"/>
      <point x="161" y="541" type="line"/>
      <point x="42" y="541" type="line"/>
      <point x="42" y="181" type="line" smooth="yes"/>
      <point x="42" y="55"/>
      <point x="80" y="-8"/>
    </contour>
  </outline>
</glyph>
<glyph name="v" format="2">
  <advance width="418"/>
  <unicode hex="0076"/>
  <outline>
    <contour>
      <point x="146" y="0" type="line"/>
      <point x="272" y="0" type="line"/>
      <point x="408" y="541" type="line"/>
      <point x="276" y="541" type="line"/>
      <point x="210" y="189" type="line"/>
      <point x="142" y="541" type="line"/>
      <point x="11" y="541" type="line"/>
    </contour>
  </outline>
</glyph>
<glyph name="x" format="2">
  <advance width="389"/>
  <unicode hex="0078"/>
  <outline>
    <contour>
      <point x="11" y="0" type="line"/>
      <point x="133" y="0" type="line"/>
      <point x="190" y="152" type="line"/>
      <point x="257" y="0" type="line"/>
      <point x="378" y="0" type="line"/>
      <point x="253" y="283" type="line"/>
      <point x="372" y="541" type="line"/>
      <point x="250" y="541" type="line"/>
      <point x="200" y="404" type="line"/>
      <point x="139" y="541" type="line"/>
      <point x="18" y="541" type="line"/>
      <point x="133" y="281" type="line"/>
    </contour>
  </outline>
</glyph>
<glyph name="y" format="2">
  <advance width="418"/>
  <unicode hex="0079"/>
  <outline>
    <contour>
      <point x="50" y="-162" type="line"/>
      <point x="54" y="-162" type="line" smooth="yes"/>
      <point x="96" y="-162"/>
      <point x="130" y="-159"/>
      <point x="157" y="-152" type="curve" smooth="yes"/>
      <point x="184" y="-145"/>
      <point x="206" y="-133"/>
      <point x="223" y="-115" type="curve" smooth="yes"/>
      <point x="240" y="-98"/>
      <point x="253" y="-72"/>
      <point x="261" y="-39" type="curve" smooth="yes"/>
      <point x="408" y="541" type="line"/>
      <point x="283" y="541" type="line"/>
      <point x="215" y="212" type="line"/>
      <point x="142" y="541" type="line"/>
      <point x="11" y="541" type="line"/>
      <point x="162" y="-30" type="line"/>
      <point x="151" y="-48"/>
      <point x="128" y="-57"/>
      <point x="93" y="-57" type="curve" smooth="yes"/>
      <point x="50" y="-57" type="line"/>
    </contour>
  </outline>
</glyph>
<glyph name="braceleft" format="2">
  <advance width="326"/>
  <unicode hex="007B"/>
  <outline>
    <contour>
      <point x="230" y="-86" type="curve" smooth="yes"/>
      <point x="288" y="-86" type="line"/>
      <point x="288" y="19" type="line"/>
      <point x="267" y="19" type="line" smooth="yes"/>
      <point x="240" y="19"/>
      <point x="224" y="36"/>
      <point x="224" y="67" type="curve" smooth="yes"/>
      <point x="224" y="202" type="line" smooth="yes"/>
      <point x="224" y="289"/>
      <point x="214" y="319"/>
      <point x="162" y="339" type="curve"/>
      <point x="214" y="357"/>
      <point x="224" y="386"/>
      <point x="224" y="475" type="curve" smooth="yes"/>
      <point x="224" y="605" type="line" smooth="yes"/>
      <point x="224" y="635"/>
      <point x="237" y="652"/>
      <point x="267" y="652" type="curve" smooth="yes"/>
      <point x="288" y="652" type="line"/>
      <point x="288" y="758" type="line"/>
      <point x="230" y="758" type="line" smooth="yes"/>
      <point x="150" y="758"/>
      <point x="106" y="713"/>
      <point x="106" y="631" type="curve" smooth="yes"/>
      <point x="106" y="466" type="line" smooth="yes"/>
      <point x="106" y="412"/>
      <point x="91" y="391"/>
      <point x="39" y="391" type="curve"/>
      <point x="39" y="286" type="line"/>
      <point x="91" y="286"/>
      <point x="106" y="266"/>
      <point x="106" y="212" type="curve" smooth="yes"/>
      <point x="106" y="41" type="line" smooth="yes"/>
      <point x="106" y="-41"/>
      <point x="150" y="-86"/>
    </contour>
  </outline>
</glyph>
<glyph name="braceright" format="2">
  <advance width="326"/>
  <unicode hex="007D"/>
  <outline>
    <contour>
      <point x="39" y="-86" type="line"/>
      <point x="97" y="-86" type="line" smooth="yes"/>
      <point x="179" y="-86"/>
      <point x="220" y="-41"/>
      <point x="220" y="41" type="curve" smooth="yes"/>
      <point x="220" y="212" type="line" smooth="yes"/>
      <point x="220" y="265"/>
      <point x="235" y="286"/>
      <point x="288" y="286" type="curve"/>
      <point x="288" y="391" type="line"/>
      <point x="235" y="391"/>
      <point x="220" y="413"/>
      <point x="220" y="466" type="curve" smooth="yes"/>
      <point x="220" y="631" type="line" smooth="yes"/>
      <point x="220" y="713"/>
      <point x="177" y="758"/>
      <point x="97" y="758" type="curve" smooth="yes"/>
      <point x="39" y="758" type="line"/>
      <point x="39" y="652" type="line"/>
      <point x="59" y="652" type="line" smooth="yes"/>
      <point x="89" y="652"/>
      <point x="102" y="635"/>
      <point x="102" y="605" type="curve" smooth="yes"/>
      <point x="102" y="475" type="line" smooth="yes"/>
      <point x="102" y="389"/>
      <point x="113" y="357"/>
      <point x="165" y="339" type="curve"/>
      <point x="115" y="319"/>
      <point x="102" y="287"/>
      <point x="102" y="202" type="curve" smooth="yes"/>
      <point x="102" y="67" type="line" smooth="yes"/>
      <point x="102" y="36"/>
      <point x="88" y="19"/>
      <point x="59" y="19" type="curve" smooth="yes"/>
      <point x="39" y="19" type="line"/>
    </contour>
  </outline>
</glyph>
<glyph name="asciitilde" format="2">
  <advance width="429"/>
  <unicode hex="007E"/>
  <outline>
    <contour>
      <point x="99" y="202" type="line"/>
      <point x="121" y="242"/>
      <point x="135" y="253"/>
      <point x="155" y="253" type="curve" smooth="yes"/>
      <point x="167" y="253"/>
      <point x="181" y="247"/>
      <point x="200" y="234" type="curve" smooth="yes"/>
      <point x="225" y="217"/>
      <point x="249" y="207"/>
      <point x="276" y="207" type="curve" smooth="yes"/>
      <point x="325" y="207"/>
      <point x="361" y="236"/>
      <point x="395" y="307" type="curve"/>
      <point x="323" y="350" type="line"/>
      <point x="299" y="308"/>
      <point x="289" y="298"/>
      <point x="267" y="298" type="curve" smooth="yes"/>
      <point x="255" y="298"/>
      <point x="237" y="306"/>
      <point x="221" y="316" type="curve" smooth="yes"/>
      <point x="193" y="334"/>
      <point x="170" y="344"/>
      <point x="144" y="344" type="curve" smooth="yes"/>
      <point x="95" y="344"/>
      <point x="60" y="313"/>
      <point x="26" y="244" type="curve"/>
    </contour>
  </outline>
</glyph>
<glyph name="cent" format="2">
  <advance width="453"/>
  <unicode hex="00A2"/>
  <outline>
    <contour>
      <point x="202" y="-102" type="line"/>
      <point x="262" y="-102" type="line"/>
      <point x="262" y="-3" type="line"/>
      <point x="336" y="13"/>
      <point x="378" y="71"/>
      <point x="378" y="171" type="curve" smooth="yes"/>
      <point x="378" y="188" type="line"/>
      <point x="263" y="188" type="line"/>
      <point x="263" y="171" type="line" smooth="yes"/>
      <point x="263" y="121"/>
      <point x="244" y="98"/>
      <point x="210" y="98" type="curve" smooth="yes"/>
      <point x="176" y="98"/>
      <point x="158" y="124"/>
      <point x="158" y="186" type="curve" smooth="yes"/>
      <point x="158" y="354" type="line" smooth="yes"/>
      <point x="158" y="416"/>
      <point x="175" y="442"/>
      <point x="211" y="442" type="curve" smooth="yes"/>
      <point x="246" y="442"/>
      <point x="263" y="418"/>
      <point x="263" y="371" type="curve" smooth="yes"/>
      <point x="263" y="352" type="line"/>
      <point x="378" y="352" type="line"/>
      <point x="378" y="373" type="line" smooth="yes"/>
      <point x="378" y="470"/>
      <point x="339" y="527"/>
      <point x="262" y="544" type="curve"/>
      <point x="262" y="650" type="line"/>
      <point x="202" y="650" type="line"/>
      <point x="202" y="549" type="line"/>
      <point x="95" y="547"/>
      <point x="39" y="486"/>
      <point x="39" y="353" type="curve" smooth="yes"/>
      <point x="39" y="187" type="line" smooth="yes"/>
      <point x="39" y="54"/>
      <point x="95" y="-6"/>
      <point x="202" y="-8" type="curve"/>
    </contour>
  </outline>
</glyph>
<glyph name="sterling" format="2">
  <advance width="430"/>
  <unicode hex="00A3"/>
  <outline>
    <contour>
      <point x="37" y="0" type="line"/>
      <point x="402" y="0" type="line"/>
      <point x="402" y="114" type="line"/>
      <point x="173" y="114" type="line"/>
      <point x="197" y="136"/>
      <point x="208" y="164"/>
      <point x="208" y="206" type="curve" smooth="yes"/>
      <point x="208" y="296" type="line"/>
      <point x="331" y="296" type="line"/>
      <point x="331" y="410" type="line"/>
      <point x="208" y="410" type="line"/>
      <point x="208" y="561" type="line" smooth="yes"/>
      <point x="208" y="599"/>
      <point x="221" y="616"/>
      <point x="251" y="616" type="curve" smooth="yes"/>
      <point x="278" y="616"/>
      <point x="291" y="599"/>
      <point x="291" y="548" type="curve"/>
      <point x="411" y="548" type="line"/>
      <point x="411" y="656"/>
      <point x="357" y="717"/>
      <point x="247" y="717" type="curve" smooth="yes"/>
      <point x="137" y="717"/>
      <point x="82" y="658"/>
      <point x="82" y="552" type="curve" smooth="yes"/>
      <point x="82" y="410" type="line"/>
      <point x="19" y="410" type="line"/>
      <point x="19" y="296" type="line"/>
      <point x="82" y="296" type="line"/>
      <point x="82" y="208" type="line" smooth="yes"/>
      <point x="82" y="151"/>
      <point x="74" y="130"/>
      <point x="37" y="116" type="curve"/>
    </contour>
  </outline>
</glyph>
<glyph name="currency" format="2">
  <advance width="584"/>
  <unicode hex="00A4"/>
  <outline>
    <contour>
      <point x="466" y="70" type="line"/>
      <point x="543" y="146" type="line"/>
      <point x="475" y="215" type="line"/>
      <point x="493" y="247"/>
      <point x="502" y="281"/>
      <point x="502" y="318" type="curve" smooth="yes"/>
      <point x="502" y="355"/>
      <point x="493" y="390"/>
      <point x="474" y="423" type="curve"/>
      <point x="542" y="490" type="line"/>
      <point x="466" y="567" type="line"/>
      <point x="397" y="500" type="line"/>
      <point x="364" y="518"/>
      <point x="329" y="527"/>
      <point x="292" y="527" type="curve" smooth="yes"/>
      <point x="254" y="528"/>
      <point x="218" y="519"/>
      <point x="185" y="500" type="curve"/>
      <point x="119" y="567" type="line"/>
      <point x="42" y="490" type="line"/>
      <point x="110" y="422" type="line"/>
      <point x="92" y="389"/>
      <point x="83" y="355"/>
      <point x="83" y="318" type="curve" smooth="yes"/>
      <point x="83" y="280"/>
      <point x="92" y="246"/>
      <point x="109" y="215" type="curve"/>
      <point x="42" y="147" type="line"/>
      <point x="118" y="71" type="line"/>
      <point x="185" y="137" type="line"/>
      <point x="217" y="119"/>
      <point x="253" y="110"/>
      <point x="292" y="110" type="curve" smooth="yes"/>
      <point x="330" y="109"/>
      <point x="365" y="118"/>
      <point x="398" y="137" type="curve"/>
    </contour>
    <contour>
      <point x="221" y="245" type="curve" smooth="yes"/>
      <point x="202" y="264"/>
      <point x="193" y="289"/>
      <point x="193" y="318" type="curve" smooth="yes"/>
      <point x="193" y="347"/>
      <point x="202" y="372"/>
      <point x="221" y="392" type="curve" smooth="yes"/>
      <point x="240" y="412"/>
      <point x="263" y="422"/>
      <point x="292" y="422" type="curve" smooth="yes"/>
      <point x="321" y="422"/>
      <point x="345" y="412"/>
      <point x="364" y="392" type="curve" smooth="yes"/>
      <point x="383" y="372"/>
      <point x="392" y="347"/>
      <point x="392" y="318" type="curve" smooth="yes"/>
      <point x="392" y="289"/>
      <point x="383" y="264"/>
      <point x="364" y="245" type="curve" smooth="yes"/>
      <point x="345" y="225"/>
      <point x="321" y="215"/>
      <point x="292" y="215" type="curve" smooth="yes"/>
      <point x="263" y="215"/>
      <point x="240" y="225"/>
    </contour>
  </outline>
</glyph>
<glyph name="yen" format="2">
  <advance width="418"/>
  <unicode hex="00A5"/>
  <outline>
    <contour>
      <point x="146" y="0" type="line"/>
      <point x="272" y="0" type="line"/>
      <point x="272" y="113" type="line"/>
      <point x="378" y="113" type="line"/>
      <point x="378" y="200" type="line"/>
      <point x="272" y="200" type="line"/>
      <point x="272" y="254" type="line"/>
      <point x="378" y="254" type="line"/>
      <point x="378" y="341" type="line"/>
      <point x="285" y="341" type="line"/>
      <point x="414" y="707" type="line"/>
      <point x="283" y="707" type="line"/>
      <point x="212" y="433" type="line"/>
      <point x="138" y="707" type="line"/>
      <point x="5" y="707" type="line"/>
      <point x="134" y="341" type="line"/>
      <point x="41" y="341" type="line"/>
      <point x="41" y="254" type="line"/>
      <point x="146" y="254" type="line"/>
      <point x="146" y="200" type="line"/>
      <point x="41" y="200" type="line"/>
      <point x="41" y="113" type="line"/>
      <point x="146" y="113" type="line"/>
    </contour>
  </outline>
</glyph>
<glyph name="section" format="2">
  <advance width="418"/>
  <unicode hex="00A7"/>
  <outline>
    <contour>
      <point x="208" y="-172" type="curve" smooth="yes"/>
      <point x="313" y="-172"/>
      <point x="365" y="-118"/>
      <point x="365" y="-11" type="curve" smooth="yes"/>
      <point x="365" y="59"/>
      <point x="348" y="106"/>
      <point x="296" y="128" type="curve"/>
      <point x="354" y="150"/>
      <point x="376" y="200"/>
      <point x="376" y="280" type="curve" smooth="yes"/>
      <point x="376" y="384"/>
      <point x="349" y="436"/>
      <point x="259" y="468" type="curve" smooth="yes"/>
      <point x="187" y="492"/>
      <point x="171" y="506"/>
      <point x="171" y="569" type="curve" smooth="yes"/>
      <point x="171" y="611"/>
      <point x="177" y="633"/>
      <point x="211" y="633" type="curve" smooth="yes"/>
      <point x="248" y="633"/>
      <point x="252" y="612"/>
      <point x="252" y="553" type="curve"/>
      <point x="359" y="553" type="line"/>
      <point x="359" y="674"/>
      <point x="321" y="727"/>
      <point x="210" y="727" type="curve" smooth="yes"/>
      <point x="108" y="727"/>
      <point x="56" y="673"/>
      <point x="56" y="569" type="curve" smooth="yes"/>
      <point x="56" y="500"/>
      <point x="74" y="452"/>
      <point x="123" y="432" type="curve"/>
      <point x="65" y="408"/>
      <point x="43" y="358"/>
      <point x="43" y="280" type="curve" smooth="yes"/>
      <point x="43" y="176"/>
      <point x="72" y="123"/>
      <point x="160" y="91" type="curve" smooth="yes"/>
      <point x="236" y="64"/>
      <point x="251" y="52"/>
      <point x="251" y="-15" type="curve" smooth="yes"/>
      <point x="251" y="-55"/>
      <point x="241" y="-78"/>
      <point x="207" y="-78" type="curve" smooth="yes"/>
      <point x="170" y="-78"/>
      <point x="164" y="-58"/>
      <point x="164" y="4" type="curve"/>
      <point x="56" y="4" type="line"/>
      <point x="56" y="-119"/>
      <point x="97" y="-172"/>
    </contour>
    <contour>
      <point x="209" y="182" type="curve" smooth="yes"/>
      <point x="165" y="182"/>
      <point x="156" y="214"/>
      <point x="156" y="280" type="curve" smooth="yes"/>
      <point x="156" y="344"/>
      <point x="161" y="377"/>
      <point x="209" y="377" type="curve" smooth="yes"/>
      <point x="255" y="377"/>
      <point x="263" y="348"/>
      <point x="263" y="280" type="curve" smooth="yes"/>
      <point x="263" y="210"/>
      <point x="254" y="182"/>
    </contour>
  </outline>
</glyph>
<glyph name="copyright" format="2">
  <advance width="719"/>
  <unicode hex="00A9"/>
  <outline>
    <contour>
      <point x="39" y="351" type="curve" smooth="yes"/>
      <point x="39" y="464"/>
      <point x="67" y="552"/>
      <point x="123" y="615" type="curve" smooth="yes"/>
      <point x="179" y="678"/>
      <point x="258" y="709"/>
      <point x="360" y="709" type="curve" smooth="yes"/>
      <point x="463" y="709"/>
      <point x="542" y="677"/>
      <point x="598" y="614" type="curve" smooth="yes"/>
      <point x="653" y="550"/>
      <point x="681" y="462"/>
      <point x="681" y="351" type="curve" smooth="yes"/>
      <point x="681" y="240"/>
      <point x="653" y="152"/>
      <point x="597" y="89" type="curve" smooth="yes"/>
      <point x="541" y="26"/>
      <point x="462" y="-6"/>
      <point x="360" y="-6" type="curve" smooth="yes"/>
      <point x="258" y="-6"/>
      <point x="179" y="26"/>
      <point x="123" y="89" type="curve" smooth="yes"/>
      <point x="67" y="152"/>
      <point x="39" y="240"/>
    </contour>
    <contour>
      <point x="603" y="351" type="curve" smooth="yes"/>
      <point x="603" y="443"/>
      <point x="583" y="514"/>
      <point x="542" y="564" type="curve" smooth="yes"/>
      <point x="501" y="614"/>
      <point x="440" y="639"/>
      <point x="360" y="639" type="curve" smooth="yes"/>
      <point x="279" y="639"/>
      <point x="219" y="614"/>
      <point x="178" y="564" type="curve" smooth="yes"/>
      <point x="137" y="513"/>
      <point x="117" y="442"/>
      <point x="117" y="351" type="curve" smooth="yes"/>
      <point x="117" y="259"/>
      <point x="138" y="188"/>
      <point x="179" y="138" type="curve" smooth="yes"/>
      <point x="220" y="88"/>
      <point x="280" y="63"/>
      <point x="360" y="63" type="curve" smooth="yes"/>
      <point x="441" y="63"/>
      <point x="501" y="88"/>
      <point x="542" y="139" type="curve" smooth="yes"/>
      <point x="583" y="189"/>
      <point x="603" y="260"/>
    </contour>
    <contour>
      <point x="239" y="293" type="curve" smooth="yes"/>
      <point x="239" y="412" type="line" smooth="yes"/>
      <point x="239" y="461"/>
      <point x="249" y="497"/>
      <point x="270" y="519" type="curve" smooth="yes"/>
      <point x="291" y="540"/>
      <point x="321" y="551"/>
      <point x="361" y="551" type="curve" smooth="yes"/>
      <point x="441" y="551"/>
      <point x="481" y="509"/>
      <point x="481" y="426" type="curve" smooth="yes"/>
      <point x="481" y="412" type="line"/>
      <point x="399" y="412" type="line"/>
      <point x="399" y="424" type="line" smooth="yes"/>
      <point x="399" y="441"/>
      <point x="396" y="454"/>
      <point x="389" y="463" type="curve" smooth="yes"/>
      <point x="382" y="472"/>
      <point x="373" y="476"/>
      <point x="361" y="476" type="curve" smooth="yes"/>
      <point x="354" y="476"/>
      <point x="348" y="474"/>
      <point x="343" y="471" type="curve" smooth="yes"/>
      <point x="330" y="463"/>
      <point x="324" y="444"/>
      <point x="324" y="413" type="curve" smooth="yes"/>
      <point x="324" y="292" type="line" smooth="yes"/>
      <point x="324" y="269"/>
      <point x="327" y="253"/>
      <point x="333" y="243" type="curve" smooth="yes"/>
      <point x="339" y="233"/>
      <point x="348" y="228"/>
      <point x="361" y="228" type="curve" smooth="yes"/>
      <point x="386" y="228"/>
      <point x="399" y="246"/>
      <point x="399" y="282" type="curve" smooth="yes"/>
      <point x="399" y="294" type="line"/>
      <point x="481" y="294" type="line"/>
      <point x="481" y="282" type="line" smooth="yes"/>
      <point x="481" y="239"/>
      <point x="471" y="206"/>
      <point x="451" y="185" type="curve" smooth="yes"/>
      <point x="430" y="164"/>
      <point x="400" y="153"/>
      <point x="361" y="153" type="curve" smooth="yes"/>
      <point x="321" y="153"/>
      <point x="291" y="164"/>
      <point x="270" y="186" type="curve" smooth="yes"/>
      <point x="249" y="208"/>
      <point x="239" y="244"/>
    </contour>
  </outline>
</glyph>
<glyph name="ordfeminine" format="2">
  <advance width="314"/>
  <unicode hex="00AA"/>
  <outline>
    <contour>
      <point x="129" y="435" type="curve" smooth="yes"/>
      <point x="159" y="435"/>
      <point x="173" y="446"/>
      <point x="191" y="466" type="curve"/>
      <point x="191" y="440" type="line"/>
      <point x="265" y="440" type="line"/>
      <point x="265" y="659" type="line" smooth="yes"/>
      <point x="265" y="723"/>
      <point x="225" y="764"/>
      <point x="155" y="764" type="curve" smooth="yes"/>
      <point x="87" y="764"/>
      <point x="47" y="730"/>
      <point x="47" y="666" type="curve" smooth="yes"/>
      <point x="47" y="664" type="line"/>
      <point x="120" y="664" type="line"/>
      <point x="120" y="667" type="line" smooth="yes"/>
      <point x="120" y="682"/>
      <point x="133" y="693"/>
      <point x="154" y="693" type="curve" smooth="yes"/>
      <point x="177" y="693"/>
      <point x="187" y="683"/>
      <point x="187" y="664" type="curve" smooth="yes"/>
      <point x="187" y="631" type="line"/>
      <point x="157" y="631" type="line" smooth="yes"/>
      <point x="77" y="631"/>
      <point x="38" y="596"/>
      <point x="38" y="536" type="curve" smooth="yes"/>
      <point x="38" y="470"/>
      <point x="69" y="435"/>
    </contour>
    <contour>
      <point x="152" y="506" type="curve" smooth="yes"/>
      <point x="131" y="506"/>
      <point x="117" y="520"/>
      <point x="117" y="539" type="curve" smooth="yes"/>
      <point x="117" y="562"/>
      <point x="133" y="574"/>
      <point x="166" y="574" type="curve" smooth="yes"/>
      <point x="187" y="574" type="line"/>
      <point x="187" y="538" type="line" smooth="yes"/>
      <point x="187" y="517"/>
      <point x="171" y="506"/>
    </contour>
  </outline>
</glyph>
<glyph name="logicalnot" format="2">
  <advance width="429"/>
  <unicode hex="00AC"/>
  <outline>
    <contour>
      <point x="273" y="129" type="line"/>
      <point x="392" y="129" type="line"/>
      <point x="392" y="339" type="line"/>
      <point x="36" y="339" type="line"/>
      <point x="36" y="225" type="line"/>
      <point x="273" y="225" type="line"/>
    </contour>
  </outline>
</glyph>
<glyph name="registered" format="2">
  <advance width="438"/>
  <unicode hex="00AE"/>
  <outline>
    <contour>
      <point x="218" y="323" type="curve" smooth="yes"/>
      <point x="274" y="323"/>
      <point x="318" y="340"/>
      <point x="349" y="375" type="curve" smooth="yes"/>
      <point x="380" y="410"/>
      <point x="395" y="457"/>
      <point x="395" y="517" type="curve" smooth="yes"/>
      <point x="395" y="576"/>
      <point x="380" y="623"/>
      <point x="349" y="658" type="curve" smooth="yes"/>
      <point x="318" y="693"/>
      <point x="274" y="711"/>
      <point x="218" y="711" type="curve" smooth="yes"/>
      <point x="163" y="711"/>
      <point x="121" y="694"/>
      <point x="90" y="660" type="curve" smooth="yes"/>
      <point x="59" y="625"/>
      <point x="43" y="578"/>
      <point x="43" y="517" type="curve" smooth="yes"/>
      <point x="43" y="456"/>
      <point x="58" y="409"/>
      <point x="89" y="375" type="curve" smooth="yes"/>
      <point x="119" y="340"/>
      <point x="162" y="323"/>
    </contour>
    <contour>
      <point x="119" y="401" type="curve" smooth="yes"/>
      <point x="96" y="428"/>
      <point x="85" y="466"/>
      <point x="85" y="517" type="curve" smooth="yes"/>
      <point x="85" y="566"/>
      <point x="96" y="605"/>
      <point x="119" y="632" type="curve" smooth="yes"/>
      <point x="141" y="659"/>
      <point x="174" y="672"/>
      <point x="218" y="672" type="curve" smooth="yes"/>
      <point x="261" y="672"/>
      <point x="294" y="659"/>
      <point x="317" y="632" type="curve" smooth="yes"/>
      <point x="340" y="605"/>
      <point x="351" y="567"/>
      <point x="351" y="517" type="curve" smooth="yes"/>
      <point x="351" y="467"/>
      <point x="340" y="429"/>
      <point x="318" y="402" type="curve" smooth="yes"/>
      <point x="295" y="375"/>
      <point x="262" y="361"/>
      <point x="218" y="361" type="curve" smooth="yes"/>
      <point x="175" y="361"/>
      <point x="142" y="374"/>
    </contour>
    <contour>
      <point x="161" y="410" type="line"/>
      <point x="206" y="410" type="line"/>
      <point x="206" y="495" type="line"/>
      <point x="218" y="495" type="line"/>
      <point x="245" y="410" type="line"/>
      <point x="292" y="410" type="line"/>
      <point x="260" y="506" type="line"/>
      <point x="277" y="518"/>
      <point x="285" y="537"/>
      <point x="285" y="562" type="curve" smooth="yes"/>
      <point x="284" y="605"/>
      <point x="263" y="627"/>
      <point x="221" y="627" type="curve" smooth="yes"/>
      <point x="161" y="627" type="line"/>
    </contour>
    <contour>
      <point x="206" y="535" type="line"/>
      <point x="206" y="586" type="line"/>
      <point x="216" y="586" type="line" smooth="yes"/>
      <point x="225" y="586"/>
      <point x="231" y="584"/>
      <point x="235" y="581" type="curve" smooth="yes"/>
      <point x="238" y="578"/>
      <point x="240" y="571"/>
      <point x="240" y="561" type="curve" smooth="yes"/>
      <point x="240" y="551"/>
      <point x="238" y="544"/>
      <point x="235" y="541" type="curve" smooth="yes"/>
      <point x="231" y="537"/>
      <point x="225" y="535"/>
      <point x="216" y="535" type="curve" smooth="yes"/>
    </contour>
  </outline>
</glyph>
<glyph name="macron" format="2">
  <advance width="512"/>
  <unicode hex="00AF"/>
  <outline>
    <contour>
      <point x="134" y="717" type="line"/>
      <point x="377" y="717" type="line"/>
      <point x="377" y="610" type="line"/>
      <point x="134" y="610" type="line"/>
    </contour>
  </outline>
</glyph>
<glyph name="degree" format="2">
  <advance width="332"/>
  <unicode hex="00B0"/>
  <outline>
    <contour>
      <point x="166" y="464" type="curve" smooth="yes"/>
      <point x="239" y="464"/>
      <point x="294" y="518"/>
      <point x="294" y="591" type="curve" smooth="yes"/>
      <point x="294" y="663"/>
      <point x="240" y="718"/>
      <point x="166" y="718" type="curve" smooth="yes"/>
      <point x="92" y="718"/>
      <point x="39" y="662"/>
      <point x="39" y="591" type="curve" smooth="yes"/>
      <point x="39" y="519"/>
      <point x="94" y="464"/>
    </contour>
    <contour>
      <point x="108" y="591" type="curve" smooth="yes"/>
      <point x="108" y="624"/>
      <point x="131" y="652"/>
      <point x="166" y="652" type="curve" smooth="yes"/>
      <point x="200" y="652"/>
      <point x="225" y="627"/>
      <point x="225" y="591" type="curve" smooth="yes"/>
      <point x="225" y="554"/>
      <point x="199" y="529"/>
      <point x="166" y="529" type="curve" smooth="yes"/>
      <point x="133" y="529"/>
      <point x="108" y="554"/>
    </contour>
  </outline>
</glyph>
<glyph name="mu" format="2">
  <advance width="419"/>
  <unicode hex="00B5"/>
  <outline>
    <contour>
      <point x="42" y="-162" type="line"/>
      <point x="154" y="-162" type="line"/>
      <point x="154" y="4" type="line"/>
      <point x="165" y="-2"/>
      <point x="179" y="-5"/>
      <point x="196" y="-5" type="curve" smooth="yes"/>
      <point x="209" y="-5"/>
      <point x="223" y="-1"/>
      <point x="236" y="7" type="curve" smooth="yes"/>
      <point x="249" y="14"/>
      <point x="258" y="25"/>
      <point x="264" y="40" type="curve"/>
      <point x="264" y="0" type="line"/>
      <point x="378" y="0" type="line"/>
      <point x="378" y="541" type="line"/>
      <point x="259" y="541" type="line"/>
      <point x="259" y="156" type="line" smooth="yes"/>
      <point x="259" y="137"/>
      <point x="255" y="123"/>
      <point x="246" y="113" type="curve" smooth="yes"/>
      <point x="237" y="103"/>
      <point x="225" y="98"/>
      <point x="210" y="98" type="curve" smooth="yes"/>
      <point x="195" y="98"/>
      <point x="184" y="103"/>
      <point x="175" y="113" type="curve" smooth="yes"/>
      <point x="166" y="123"/>
      <point x="161" y="137"/>
      <point x="161" y="156" type="curve" smooth="yes"/>
      <point x="161" y="541" type="line"/>
      <point x="42" y="541" type="line"/>
    </contour>
  </outline>
</glyph>
<glyph name="paragraph" format="2">
  <advance width="566"/>
  <unicode hex="00B6"/>
  <outline>
    <contour>
      <point x="213" y="-162" type="line"/>
      <point x="327" y="-162" type="line"/>
      <point x="327" y="610" type="line"/>
      <point x="389" y="610" type="line"/>
      <point x="389" y="-162" type="line"/>
      <point x="502" y="-162" type="line"/>
      <point x="502" y="707" type="line"/>
      <point x="248" y="707" type="line" smooth="yes"/>
      <point x="207" y="707"/>
      <point x="171" y="697"/>
      <point x="140" y="678" type="curve" smooth="yes"/>
      <point x="109" y="658"/>
      <point x="85" y="631"/>
      <point x="68" y="598" type="curve" smooth="yes"/>
      <point x="51" y="564"/>
      <point x="43" y="527"/>
      <point x="43" y="487" type="curve" smooth="yes"/>
      <point x="43" y="448"/>
      <point x="50" y="412"/>
      <point x="65" y="380" type="curve" smooth="yes"/>
      <point x="79" y="347"/>
      <point x="99" y="321"/>
      <point x="125" y="301" type="curve" smooth="yes"/>
      <point x="150" y="280"/>
      <point x="180" y="269"/>
      <point x="213" y="267" type="curve"/>
    </contour>
  </outline>
</glyph>
<glyph name="ordmasculine" format="2">
  <advance width="317"/>
  <unicode hex="00BA"/>
  <outline>
    <contour>
      <point x="160" y="435" type="curve" smooth="yes"/>
      <point x="197" y="435"/>
      <point x="225" y="444"/>
      <point x="244" y="463" type="curve" smooth="yes"/>
      <point x="263" y="481"/>
      <point x="273" y="511"/>
      <point x="273" y="552" type="curve" smooth="yes"/>
      <point x="273" y="647" type="line" smooth="yes"/>
      <point x="273" y="689"/>
      <point x="263" y="719"/>
      <point x="244" y="737" type="curve" smooth="yes"/>
      <point x="225" y="755"/>
      <point x="197" y="764"/>
      <point x="160" y="764" type="curve" smooth="yes"/>
      <point x="121" y="764"/>
      <point x="92" y="755"/>
      <point x="73" y="737" type="curve" smooth="yes"/>
      <point x="54" y="718"/>
      <point x="44" y="688"/>
      <point x="44" y="647" type="curve" smooth="yes"/>
      <point x="44" y="552" type="line" smooth="yes"/>
      <point x="44" y="510"/>
      <point x="54" y="480"/>
      <point x="73" y="462" type="curve" smooth="yes"/>
      <point x="92" y="444"/>
      <point x="121" y="435"/>
    </contour>
    <contour>
      <point x="123" y="555" type="curve" smooth="yes"/>
      <point x="123" y="644" type="line" smooth="yes"/>
      <point x="123" y="661"/>
      <point x="126" y="674"/>
      <point x="133" y="681" type="curve" smooth="yes"/>
      <point x="139" y="688"/>
      <point x="148" y="692"/>
      <point x="159" y="692" type="curve" smooth="yes"/>
      <point x="170" y="692"/>
      <point x="179" y="688"/>
      <point x="185" y="681" type="curve" smooth="yes"/>
      <point x="191" y="674"/>
      <point x="194" y="661"/>
      <point x="194" y="644" type="curve" smooth="yes"/>
      <point x="194" y="555" type="line" smooth="yes"/>
      <point x="194" y="538"/>
      <point x="191" y="525"/>
      <point x="185" y="518" type="curve" smooth="yes"/>
      <point x="179" y="511"/>
      <point x="170" y="507"/>
      <point x="159" y="507" type="curve" smooth="yes"/>
      <point x="135" y="507"/>
      <point x="123" y="523"/>
    </contour>
  </outline>
</glyph>
<glyph name="guillemotright" format="2">
  <advance width="452"/>
  <unicode hex="00BB"/>
  <outline>
    <contour>
      <point x="42" y="68" type="line"/>
      <point x="241" y="270" type="line"/>
      <point x="42" y="473" type="line"/>
      <point x="42" y="360" type="line"/>
      <point x="130" y="270" type="line"/>
      <point x="42" y="180" type="line"/>
    </contour>
    <contour>
      <point x="240" y="68" type="line"/>
      <point x="438" y="270" type="line"/>
      <point x="240" y="473" type="line"/>
      <point x="240" y="360" type="line"/>
      <point x="328" y="270" type="line"/>
      <point x="240" y="180" type="line"/>
    </contour>
  </outline>
</glyph>
<glyph name="questiondown" format="2">
  <advance width="385"/>
  <unicode hex="00BF"/>
  <outline>
    <contour>
      <point x="196" y="-172" type="curve" smooth="yes"/>
      <point x="313" y="-172"/>
      <point x="365" y="-105"/>
      <point x="365" y="36" type="curve"/>
      <point x="246" y="36" type="line"/>
      <point x="246" y="-39"/>
      <point x="239" y="-65"/>
      <point x="197" y="-65" type="curve" smooth="yes"/>
      <point x="164" y="-65"/>
      <point x="147" y="-43"/>
      <point x="147" y="0" type="curve" smooth="yes"/>
      <point x="147" y="42"/>
      <point x="154" y="64"/>
      <point x="176" y="98" type="curve" smooth="yes"/>
      <point x="212" y="155" type="line" smooth="yes"/>
      <point x="250" y="213"/>
      <point x="252" y="235"/>
      <point x="252" y="297" type="curve" smooth="yes"/>
      <point x="252" y="338" type="line"/>
      <point x="140" y="338" type="line"/>
      <point x="140" y="297" type="line" smooth="yes"/>
      <point x="140" y="251"/>
      <point x="137" y="232"/>
      <point x="113" y="198" type="curve" smooth="yes"/>
      <point x="72" y="139" type="line" smooth="yes"/>
      <point x="34" y="85"/>
      <point x="27" y="52"/>
      <point x="27" y="-2" type="curve" smooth="yes"/>
      <point x="27" y="-107"/>
      <point x="91" y="-172"/>
    </contour>
    <contour>
      <point x="140" y="411" type="line"/>
      <point x="252" y="411" type="line"/>
      <point x="252" y="541" type="line"/>
      <point x="140" y="541" type="line"/>
    </contour>
  </outline>
</glyph>
<glyph name="AE" format="2">
  <advance width="695"/>
  <unicode hex="00C6"/>
  <outline>
    <contour>
      <point x="6" y="0" type="line"/>
      <point x="137" y="0" type="line"/>
      <point x="187" y="136" type="line"/>
      <point x="354" y="136" type="line"/>
      <point x="354" y="0" type="line"/>
      <point x="670" y="0" type="line"/>
      <point x="670" y="113" type="line"/>
      <point x="480" y="113" type="line"/>
      <point x="480" y="303" type="line"/>
      <point x="644" y="303" type="line"/>
      <point x="644" y="416" type="line"/>
      <point x="480" y="416" type="line"/>
      <point x="480" y="593" type="line"/>
      <point x="670" y="593" type="line"/>
      <point x="670" y="707" type="line"/>
      <point x="272" y="707" type="line"/>
    </contour>
    <contour>
      <point x="228" y="249" type="line"/>
      <point x="354" y="594" type="line"/>
      <point x="354" y="249" type="line"/>
    </contour>
  </outline>
</glyph>
<glyph name="Ccedilla" format="2">
  <advance width="479"/>
  <unicode hex="00C7"/>
  <outline>
    <contour>
      <point x="314" y="488" type="line"/>
      <point x="314" y="509" type="line" smooth="yes"/>
      <point x="314" y="541"/>
      <point x="307" y="565"/>
      <point x="294" y="580" type="curve" smooth="yes"/>
      <point x="281" y="595"/>
      <point x="263" y="603"/>
      <point x="241" y="603" type="curve" smooth="yes"/>
      <point x="214" y="603"/>
      <point x="195" y="594"/>
      <point x="183" y="576" type="curve" smooth="yes"/>
      <point x="171" y="557"/>
      <point x="165" y="530"/>
      <point x="165" y="493" type="curve" smooth="yes"/>
      <point x="165" y="209" type="line" smooth="yes"/>
      <point x="165" y="140"/>
      <point x="190" y="106"/>
      <point x="241" y="105" type="curve" smooth="yes"/>
      <point x="264" y="105"/>
      <point x="282" y="113"/>
      <point x="295" y="129" type="curve" smooth="yes"/>
      <point x="308" y="145"/>
      <point x="314" y="168"/>
      <point x="314" y="199" type="curve" smooth="yes"/>
      <point x="314" y="217" type="line"/>
      <point x="439" y="217" type="line"/>
      <point x="439" y="198" type="line" smooth="yes"/>
      <point x="439" y="143"/>
      <point x="427" y="98"/>
      <point x="402" y="65" type="curve" smooth="yes"/>
      <point x="377" y="32"/>
      <point x="342" y="10"/>
      <point x="299" y="-1" type="curve"/>
      <point x="243" y="-162" type="line"/>
      <point x="138" y="-162" type="line"/>
      <point x="206" y="-6" type="line"/>
      <point x="154" y="-1"/>
      <point x="113" y="19"/>
      <point x="84" y="53" type="curve" smooth="yes"/>
      <point x="54" y="86"/>
      <point x="39" y="134"/>
      <point x="39" y="195" type="curve" smooth="yes"/>
      <point x="39" y="513" type="line" smooth="yes"/>
      <point x="39" y="580"/>
      <point x="58" y="630"/>
      <point x="96" y="665" type="curve" smooth="yes"/>
      <point x="133" y="700"/>
      <point x="183" y="717"/>
      <point x="244" y="717" type="curve" smooth="yes"/>
      <point x="303" y="717"/>
      <point x="350" y="700"/>
      <point x="386" y="666" type="curve" smooth="yes"/>
      <point x="422" y="631"/>
      <point x="440" y="579"/>
      <point x="440" y="510" type="curve" smooth="yes"/>
      <point x="440" y="488" type="line"/>
    </contour>
  </outline>
</glyph>
<glyph name="Eth" format="2">
  <advance width="494"/>
  <unicode hex="00D0"/>
  <outline>
    <contour>
      <point x="63" y="0" type="line"/>
      <point x="253" y="0" type="line" smooth="yes"/>
      <point x="372" y="0"/>
      <point x="456" y="70"/>
      <point x="456" y="203" type="curve" smooth="yes"/>
      <point x="456" y="504" type="line" smooth="yes"/>
      <point x="456" y="637"/>
      <point x="378" y="707"/>
      <point x="259" y="707" type="curve" smooth="yes"/>
      <point x="63" y="707" type="line"/>
      <point x="63" y="420" type="line"/>
      <point x="20" y="420" type="line"/>
      <point x="20" y="307" type="line"/>
      <point x="63" y="307" type="line"/>
    </contour>
    <contour>
      <point x="188" y="113" type="line"/>
      <point x="188" y="307" type="line"/>
      <point x="276" y="307" type="line"/>
      <point x="276" y="420" type="line"/>
      <point x="188" y="420" type="line"/>
      <point x="188" y="593" type="line"/>
      <point x="256" y="593" type="line" smooth="yes"/>
      <point x="305" y="593"/>
      <point x="330" y="555"/>
      <point x="330" y="482" type="curve" smooth="yes"/>
      <point x="330" y="217" type="line" smooth="yes"/>
      <point x="330" y="150"/>
      <point x="303" y="113"/>
      <point x="256" y="113" type="curve" smooth="yes"/>
    </contour>
  </outline>
</glyph>
<glyph name="multiply" format="2">
  <advance width="429"/>
  <unicode hex="00D7"/>
  <outline>
    <contour>
      <point x="43" y="185" type="line"/>
      <point x="140" y="283" type="line"/>
      <point x="43" y="379" type="line"/>
      <point x="118" y="454" type="line"/>
      <point x="215" y="357" type="line"/>
      <point x="311" y="454" type="line"/>
      <point x="386" y="379" type="line"/>
      <point x="290" y="283" type="line"/>
      <point x="386" y="185" type="line"/>
      <point x="311" y="111" type="line"/>
      <point x="215" y="208" type="line"/>
      <point x="118" y="111" type="line"/>
    </contour>
  </outline>
</glyph>
<glyph name="Oslash" format="2">
  <advance width="479"/>
  <unicode hex="00D8"/>
  <anchor x="240" y="707" name="top"/>
  <outline>
    <component base="O"/>
    <contour>
      <point x="39" y="-20" type="line"/>
      <point x="99" y="-20" type="line"/>
      <point x="440" y="735" type="line"/>
      <point x="380" y="735" type="line"/>
    </contour>
  </outline>
</glyph>
<glyph name="Thorn" format="2">
  <advance width="444"/>
  <unicode hex="00DE"/>
  <outline>
    <contour>
      <point x="43" y="0" type="line"/>
      <point x="168" y="0" type="line"/>
      <point x="168" y="147" type="line"/>
      <point x="233" y="147" type="line" smooth="yes"/>
      <point x="370" y="147"/>
      <point x="427" y="220"/>
      <point x="427" y="371" type="curve" smooth="yes"/>
      <point x="427" y="520"/>
      <point x="372" y="593"/>
      <point x="233" y="593" type="curve" smooth="yes"/>
      <point x="168" y="593" type="line"/>
      <point x="168" y="707" type="line"/>
      <point x="43" y="707" type="line"/>
    </contour>
    <contour>
      <point x="168" y="260" type="line"/>
      <point x="168" y="479" type="line"/>
      <point x="229" y="479" type="line" smooth="yes"/>
      <point x="284" y="479"/>
      <point x="301" y="444"/>
      <point x="301" y="371" type="curve" smooth="yes"/>
      <point x="301" y="295"/>
      <point x="283" y="260"/>
      <point x="229" y="260" type="curve" smooth="yes"/>
    </contour>
  </outline>
</glyph>
<glyph name="germandbls" format="2">
  <advance width="430"/>
  <unicode hex="00DF"/>
  <outline>
    <contour>
      <point x="217" y="-5" type="line"/>
      <point x="244" y="-5" type="line" smooth="yes"/>
      <point x="288" y="-5"/>
      <point x="321" y="3"/>
      <point x="342" y="19" type="curve" smooth="yes"/>
      <point x="363" y="34"/>
      <point x="376" y="58"/>
      <point x="382" y="89" type="curve" smooth="yes"/>
      <point x="388" y="120"/>
      <point x="391" y="167"/>
      <point x="391" y="230" type="curve" smooth="yes"/>
      <point x="391" y="273"/>
      <point x="390" y="305"/>
      <point x="387" y="327" type="curve" smooth="yes"/>
      <point x="384" y="349"/>
      <point x="379" y="367"/>
      <point x="371" y="381" type="curve" smooth="yes"/>
      <point x="362" y="394"/>
      <point x="349" y="406"/>
      <point x="331" y="417" type="curve"/>
      <point x="353" y="432"/>
      <point x="368" y="449"/>
      <point x="375" y="468" type="curve" smooth="yes"/>
      <point x="382" y="486"/>
      <point x="386" y="513"/>
      <point x="386" y="550" type="curve" smooth="yes"/>
      <point x="386" y="602"/>
      <point x="371" y="643"/>
      <point x="341" y="673" type="curve" smooth="yes"/>
      <point x="311" y="702"/>
      <point x="269" y="717"/>
      <point x="215" y="717" type="curve" smooth="yes"/>
      <point x="100" y="716"/>
      <point x="42" y="654"/>
      <point x="42" y="531" type="curve" smooth="yes"/>
      <point x="42" y="0" type="line"/>
      <point x="161" y="0" type="line"/>
      <point x="161" y="547" type="line" smooth="yes"/>
      <point x="161" y="568"/>
      <point x="166" y="583"/>
      <point x="175" y="594" type="curve" smooth="yes"/>
      <point x="184" y="605"/>
      <point x="197" y="610"/>
      <point x="215" y="610" type="curve" smooth="yes"/>
      <point x="233" y="610"/>
      <point x="246" y="604"/>
      <point x="255" y="593" type="curve" smooth="yes"/>
      <point x="263" y="581"/>
      <point x="267" y="563"/>
      <point x="267" y="539" type="curve" smooth="yes"/>
      <point x="267" y="510"/>
      <point x="265" y="489"/>
      <point x="261" y="477" type="curve" smooth="yes"/>
      <point x="257" y="464"/>
      <point x="247" y="458"/>
      <point x="231" y="458" type="curve" smooth="yes"/>
      <point x="215" y="458" type="line"/>
      <point x="215" y="358" type="line"/>
      <point x="233" y="358" type="line" smooth="yes"/>
      <point x="246" y="358"/>
      <point x="255" y="354"/>
      <point x="260" y="345" type="curve" smooth="yes"/>
      <point x="265" y="336"/>
      <point x="269" y="324"/>
      <point x="270" y="307" type="curve" smooth="yes"/>
      <point x="271" y="290"/>
      <point x="272" y="265"/>
      <point x="272" y="230" type="curve" smooth="yes"/>
      <point x="272" y="192"/>
      <point x="271" y="164"/>
      <point x="270" y="147" type="curve" smooth="yes"/>
      <point x="269" y="130"/>
      <point x="265" y="117"/>
      <point x="260" y="108" type="curve" smooth="yes"/>
      <point x="254" y="99"/>
      <point x="245" y="95"/>
      <point x="233" y="95" type="curve" smooth="yes"/>
      <point x="217" y="95" type="line"/>
    </contour>
  </outline>
</glyph>
<glyph name="ae" format="2">
  <advance width="635"/>
  <unicode hex="00E6"/>
  <outline>
    <contour>
      <point x="193" y="-8" type="curve" smooth="yes"/>
      <point x="238" y="-8"/>
      <point x="276" y="5"/>
      <point x="308" y="32" type="curve"/>
      <point x="335" y="5"/>
      <point x="375" y="-8"/>
      <point x="427" y="-8" type="curve" smooth="yes"/>
      <point x="533" y="-8"/>
      <point x="594" y="50"/>
      <point x="594" y="164" type="curve" smooth="yes"/>
      <point x="594" y="170" type="line"/>
      <point x="478" y="170" type="line"/>
      <point x="478" y="165" type="line" smooth="yes"/>
      <point x="478" y="119"/>
      <point x="461" y="96"/>
      <point x="426" y="96" type="curve" smooth="yes"/>
      <point x="391" y="96"/>
      <point x="373" y="124"/>
      <point x="373" y="179" type="curve" smooth="yes"/>
      <point x="373" y="228" type="line"/>
      <point x="597" y="228" type="line"/>
      <point x="597" y="336" type="line" smooth="yes"/>
      <point x="597" y="483"/>
      <point x="532" y="549"/>
      <point x="423" y="549" type="curve" smooth="yes"/>
      <point x="377" y="549"/>
      <point x="341" y="538"/>
      <point x="314" y="516" type="curve"/>
      <point x="286" y="538"/>
      <point x="250" y="549"/>
      <point x="207" y="549" type="curve" smooth="yes"/>
      <point x="111" y="549"/>
      <point x="45" y="493"/>
      <point x="45" y="387" type="curve" smooth="yes"/>
      <point x="45" y="383" type="line"/>
      <point x="155" y="383" type="line"/>
      <point x="155" y="391" type="line" smooth="yes"/>
      <point x="155" y="425"/>
      <point x="174" y="444"/>
      <point x="204" y="444" type="curve" smooth="yes"/>
      <point x="237" y="444"/>
      <point x="254" y="423"/>
      <point x="254" y="386" type="curve" smooth="yes"/>
      <point x="254" y="317" type="line"/>
      <point x="209" y="317" type="line" smooth="yes"/>
      <point x="95" y="317"/>
      <point x="31" y="261"/>
      <point x="31" y="159" type="curve" smooth="yes"/>
      <point x="31" y="58"/>
      <point x="94" y="-8"/>
    </contour>
    <contour>
      <point x="150" y="164" type="curve" smooth="yes"/>
      <point x="150" y="213"/>
      <point x="174" y="234"/>
      <point x="223" y="234" type="curve" smooth="yes"/>
      <point x="254" y="234" type="line"/>
      <point x="254" y="162" type="line" smooth="yes"/>
      <point x="254" y="119"/>
      <point x="231" y="95"/>
      <point x="202" y="95" type="curve" smooth="yes"/>
      <point x="169" y="95"/>
      <point x="150" y="117"/>
    </contour>
    <contour>
      <point x="373" y="314" type="line"/>
      <point x="373" y="354" type="line" smooth="yes"/>
      <point x="373" y="416"/>
      <point x="390" y="442"/>
      <point x="426" y="442" type="curve" smooth="yes"/>
      <point x="460" y="442"/>
      <point x="478" y="416"/>
      <point x="478" y="354" type="curve" smooth="yes"/>
      <point x="478" y="314" type="line"/>
    </contour>
  </outline>
</glyph>
<glyph name="ccedilla" format="2">
  <advance width="416"/>
  <unicode hex="00E7"/>
  <outline>
    <contour>
      <point x="113" y="-162" type="line"/>
      <point x="217" y="-162" type="line"/>
      <point x="274" y="0" type="line"/>
      <point x="343" y="21"/>
      <point x="378" y="78"/>
      <point x="378" y="171" type="curve" smooth="yes"/>
      <point x="378" y="188" type="line"/>
      <point x="263" y="188" type="line"/>
      <point x="263" y="171" type="line" smooth="yes"/>
      <point x="263" y="146"/>
      <point x="259" y="128"/>
      <point x="250" y="116" type="curve" smooth="yes"/>
      <point x="241" y="104"/>
      <point x="227" y="98"/>
      <point x="210" y="98" type="curve" smooth="yes"/>
      <point x="193" y="98"/>
      <point x="180" y="105"/>
      <point x="171" y="119" type="curve" smooth="yes"/>
      <point x="162" y="133"/>
      <point x="158" y="155"/>
      <point x="158" y="186" type="curve" smooth="yes"/>
      <point x="158" y="354" type="line" smooth="yes"/>
      <point x="158" y="385"/>
      <point x="162" y="407"/>
      <point x="171" y="421" type="curve" smooth="yes"/>
      <point x="180" y="435"/>
      <point x="193" y="442"/>
      <point x="211" y="442" type="curve" smooth="yes"/>
      <point x="228" y="442"/>
      <point x="241" y="436"/>
      <point x="250" y="425" type="curve" smooth="yes"/>
      <point x="259" y="413"/>
      <point x="263" y="395"/>
      <point x="263" y="371" type="curve" smooth="yes"/>
      <point x="263" y="352" type="line"/>
      <point x="378" y="352" type="line"/>
      <point x="378" y="373" type="line" smooth="yes"/>
      <point x="378" y="432"/>
      <point x="364" y="476"/>
      <point x="335" y="505" type="curve" smooth="yes"/>
      <point x="306" y="534"/>
      <point x="265" y="549"/>
      <point x="211" y="549" type="curve" smooth="yes"/>
      <point x="155" y="549"/>
      <point x="112" y="534"/>
      <point x="83" y="503" type="curve" smooth="yes"/>
      <point x="54" y="472"/>
      <point x="39" y="422"/>
      <point x="39" y="353" type="curve" smooth="yes"/>
      <point x="39" y="187" type="line" smooth="yes"/>
      <point x="39" y="124"/>
      <point x="51" y="78"/>
      <point x="75" y="47" type="curve" smooth="yes"/>
      <point x="98" y="16"/>
      <point x="133" y="-1"/>
      <point x="180" y="-6" type="curve"/>
    </contour>
  </outline>
</glyph>
<glyph name="eth" format="2">
  <advance width="408"/>
  <unicode hex="00F0"/>
  <outline>
    <contour>
      <point x="203" y="-10" type="curve" smooth="yes"/>
      <point x="312" y="-10"/>
      <point x="370" y="56"/>
      <point x="370" y="181" type="curve" smooth="yes"/>
      <point x="370" y="286" type="line" smooth="yes"/>
      <point x="370" y="373"/>
      <point x="353" y="428"/>
      <point x="303" y="527" type="curve" smooth="yes"/>
      <point x="275" y="581" type="line"/>
      <point x="339" y="601" type="line"/>
      <point x="314" y="678" type="line"/>
      <point x="239" y="653" type="line"/>
      <point x="208" y="715" type="line"/>
      <point x="94" y="715" type="line"/>
      <point x="141" y="623" type="line"/>
      <point x="68" y="599" type="line"/>
      <point x="93" y="523" type="line"/>
      <point x="179" y="551" type="line"/>
      <point x="224" y="463" type="line"/>
      <point x="207" y="470"/>
      <point x="190" y="473"/>
      <point x="172" y="473" type="curve" smooth="yes"/>
      <point x="83" y="473"/>
      <point x="39" y="409"/>
      <point x="39" y="292" type="curve" smooth="yes"/>
      <point x="39" y="181" type="line" smooth="yes"/>
      <point x="39" y="55"/>
      <point x="95" y="-10"/>
    </contour>
    <contour>
      <point x="158" y="169" type="curve" smooth="yes"/>
      <point x="158" y="303" type="line" smooth="yes"/>
      <point x="158" y="340"/>
      <point x="174" y="361"/>
      <point x="205" y="361" type="curve" smooth="yes"/>
      <point x="236" y="361"/>
      <point x="251" y="340"/>
      <point x="251" y="303" type="curve" smooth="yes"/>
      <point x="251" y="169" type="line" smooth="yes"/>
      <point x="251" y="126"/>
      <point x="234" y="104"/>
      <point x="205" y="104" type="curve" smooth="yes"/>
      <point x="175" y="104"/>
      <point x="158" y="127"/>
    </contour>
  </outline>
</glyph>
<glyph name="divide" format="2">
  <advance width="429"/>
  <unicode hex="00F7"/>
  <outline>
    <contour>
      <point x="214" y="53" type="curve" smooth="yes"/>
      <point x="250" y="53"/>
      <point x="280" y="82"/>
      <point x="280" y="118" type="curve" smooth="yes"/>
      <point x="280" y="152"/>
      <point x="250" y="183"/>
      <point x="214" y="183" type="curve" smooth="yes"/>
      <point x="177" y="183"/>
      <point x="150" y="153"/>
      <point x="150" y="118" type="curve" smooth="yes"/>
      <point x="150" y="83"/>
      <point x="177" y="53"/>
    </contour>
    <contour>
      <point x="33" y="225" type="line"/>
      <point x="396" y="225" type="line"/>
      <point x="396" y="339" type="line"/>
      <point x="33" y="339" type="line"/>
    </contour>
    <contour>
      <point x="214" y="385" type="curve" smooth="yes"/>
      <point x="250" y="385"/>
      <point x="280" y="415"/>
      <point x="280" y="451" type="curve" smooth="yes"/>
      <point x="280" y="485"/>
      <point x="250" y="515"/>
      <point x="214" y="515" type="curve" smooth="yes"/>
      <point x="176" y="515"/>
      <point x="150" y="486"/>
      <point x="150" y="451" type="curve" smooth="yes"/>
      <point x="150" y="416"/>
      <point x="177" y="385"/>
    </contour>
  </outline>
</glyph>
<glyph name="oslash" format="2">
  <advance width="420"/>
  <unicode hex="00F8"/>
  <outline>
    <component base="o"/>
    <contour>
      <point x="39" y="-30" type="line"/>
      <point x="94" y="-30" type="line"/>
      <point x="382" y="568" type="line"/>
      <point x="327" y="568" type="line"/>
    </contour>
  </outline>
</glyph>
<glyph name="thorn" format="2">
  <advance width="419"/>
  <unicode hex="00FE"/>
  <outline>
    <contour>
      <point x="42" y="-162" type="line"/>
      <point x="157" y="-162" type="line"/>
      <point x="157" y="38" type="line"/>
      <point x="183" y="6"/>
      <point x="212" y="-8"/>
      <point x="250" y="-8" type="curve" smooth="yes"/>
      <point x="327" y="-8"/>
      <point x="381" y="44"/>
      <point x="381" y="167" type="curve" smooth="yes"/>
      <point x="381" y="374" type="line" smooth="yes"/>
      <point x="381" y="496"/>
      <point x="330" y="549"/>
      <point x="252" y="549" type="curve" smooth="yes"/>
      <point x="210" y="549"/>
      <point x="179" y="532"/>
      <point x="161" y="498" type="curve"/>
      <point x="161" y="707" type="line"/>
      <point x="42" y="707" type="line"/>
    </contour>
    <contour>
      <point x="159" y="186" type="curve" smooth="yes"/>
      <point x="159" y="354" type="line" smooth="yes"/>
      <point x="159" y="416"/>
      <point x="177" y="442"/>
      <point x="211" y="442" type="curve" smooth="yes"/>
      <point x="244" y="442"/>
      <point x="262" y="417"/>
      <point x="262" y="354" type="curve" smooth="yes"/>
      <point x="262" y="186" type="line" smooth="yes"/>
      <point x="262" y="121"/>
      <point x="244" y="98"/>
      <point x="211" y="98" type="curve" smooth="yes"/>
      <point x="176" y="98"/>
      <point x="159" y="127"/>
    </contour>
  </outline>
</glyph>
<glyph name="aogonek" format="2">
  <advance width="414"/>
  <unicode hex="0105"/>
  <outline>
    <component base="a"/>
    <contour>
      <point x="372" y="-162" type="curve"/>
      <point x="372" y="-73" type="line"/>
      <point x="337" y="-72"/>
      <point x="316" y="-75"/>
      <point x="295" y="-49" type="curve"/>
      <point x="372" y="1" type="line"/>
      <point x="372" y="13" type="line"/>
      <point x="284" y="13" type="line"/>
      <point x="210" y="-41" type="line"/>
      <point x="218" y="-69"/>
      <point x="229" y="-92"/>
      <point x="246" y="-109" type="curve" smooth="yes"/>
      <point x="277" y="-144"/>
      <point x="319" y="-161"/>
    </contour>
  </outline>
</glyph>
<glyph name="Iogonek" format="2">
  <advance width="219"/>
  <unicode hex="012E"/>
  <outline>
    <component base="I"/>
    <contour>
      <point x="171" y="-218" type="curve"/>
      <point x="171" y="-98" type="line"/>
      <point x="136" y="-97"/>
      <point x="115" y="-101"/>
      <point x="94" y="-66" type="curve"/>
      <point x="171" y="1" type="line"/>
      <point x="171" y="17" type="line"/>
      <point x="63" y="17" type="line"/>
      <point x="9" y="-56" type="line"/>
      <point x="17" y="-93"/>
      <point x="28" y="-124"/>
      <point x="45" y="-147" type="curve" smooth="yes"/>
      <point x="76" y="-194"/>
      <point x="118" y="-216"/>
    </contour>
  </outline>
</glyph>
<glyph name="dotlessi" format="2">
  <advance width="210"/>
  <unicode hex="0131"/>
  <anchor x="105" y="541" name="top"/>
  <outline>
    <contour>
      <point x="46" y="0" type="line"/>
      <point x="165" y="0" type="line"/>
      <point x="165" y="541" type="line"/>
      <point x="46" y="541" type="line"/>
    </contour>
  </outline>
</glyph>
<glyph name="IJ" format="2">
  <advance width="471"/>
  <unicode hex="0132"/>
  <outline>
    <contour>
      <point x="236" y="-8" type="curve" smooth="yes"/>
      <point x="346" y="-8"/>
      <point x="428" y="70"/>
      <point x="428" y="185" type="curve" smooth="yes"/>
      <point x="428" y="707" type="line"/>
      <point x="302" y="707" type="line"/>
      <point x="302" y="188" type="line" smooth="yes"/>
      <point x="302" y="134"/>
      <point x="283" y="105"/>
      <point x="236" y="105" type="curve" smooth="yes"/>
      <point x="202" y="105"/>
      <point x="180" y="118"/>
      <point x="174" y="150" type="curve"/>
      <point x="45" y="150" type="line"/>
      <point x="61" y="57"/>
      <point x="136" y="-8"/>
    </contour>
    <contour>
      <point x="43" y="291" type="line"/>
      <point x="169" y="291" type="line"/>
      <point x="169" y="707" type="line"/>
      <point x="43" y="707" type="line"/>
    </contour>
  </outline>
</glyph>
<glyph name="Lslash" format="2">
  <advance width="375"/>
  <unicode hex="0141"/>
  <outline>
    <component base="L"/>
    <contour>
      <point x="20" y="279" type="line"/>
      <point x="21" y="392" type="line"/>
      <point x="268" y="509" type="line"/>
      <point x="268" y="396" type="line"/>
    </contour>
  </outline>
</glyph>
<glyph name="lslash" format="2">
  <advance width="245"/>
  <unicode hex="0142"/>
  <outline>
    <component base="l"/>
    <contour>
      <point x="20" y="279" type="line"/>
      <point x="230" y="378" type="line"/>
      <point x="229" y="490" type="line"/>
      <point x="21" y="392" type="line"/>
    </contour>
  </outline>
</glyph>
<glyph name="eng" format="2">
  <advance width="419"/>
  <unicode hex="014B"/>
  <outline>
    <contour>
      <point x="189" y="-174" type="line"/>
      <point x="195" y="-174" type="line" smooth="yes"/>
      <point x="317" y="-174"/>
      <point x="378" y="-118"/>
      <point x="378" y="-6" type="curve" smooth="yes"/>
      <point x="378" y="386" type="line" smooth="yes"/>
      <point x="378" y="495"/>
      <point x="334" y="549"/>
      <point x="246" y="549" type="curve" smooth="yes"/>
      <point x="211" y="549"/>
      <point x="181" y="533"/>
      <point x="156" y="501" type="curve"/>
      <point x="156" y="541" type="line"/>
      <point x="42" y="541" type="line"/>
      <point x="42" y="0" type="line"/>
      <point x="161" y="0" type="line"/>
      <point x="161" y="385" type="line" smooth="yes"/>
      <point x="161" y="422"/>
      <point x="179" y="442"/>
      <point x="210" y="442" type="curve" smooth="yes"/>
      <point x="239" y="442"/>
      <point x="259" y="422"/>
      <point x="259" y="385" type="curve" smooth="yes"/>
      <point x="259" y="-6" type="line" smooth="yes"/>
      <point x="259" y="-52"/>
      <point x="237" y="-68"/>
      <point x="194" y="-68" type="curve" smooth="yes"/>
      <point x="189" y="-68" type="line"/>
    </contour>
  </outline>
</glyph>
<glyph name="OE" format="2">
  <advance width="656"/>
  <unicode hex="0152"/>
  <outline>
    <contour>
      <point x="220" y="-8" type="curve" smooth="yes"/>
      <point x="263" y="-8"/>
      <point x="300" y="4"/>
      <point x="332" y="29" type="curve"/>
      <point x="332" y="0" type="line"/>
      <point x="631" y="0" type="line"/>
      <point x="631" y="113" type="line"/>
      <point x="440" y="113" type="line"/>
      <point x="440" y="303" type="line"/>
      <point x="604" y="303" type="line"/>
      <point x="604" y="416" type="line"/>
      <point x="440" y="416" type="line"/>
      <point x="440" y="593" type="line"/>
      <point x="631" y="593" type="line"/>
      <point x="631" y="707" type="line"/>
      <point x="332" y="707" type="line"/>
      <point x="332" y="685" type="line"/>
      <point x="301" y="706"/>
      <point x="266" y="717"/>
      <point x="226" y="717" type="curve" smooth="yes"/>
      <point x="105" y="717"/>
      <point x="39" y="648"/>
      <point x="39" y="513" type="curve" smooth="yes"/>
      <point x="39" y="195" type="line" smooth="yes"/>
      <point x="39" y="58"/>
      <point x="103" y="-8"/>
    </contour>
    <contour>
      <point x="165" y="209" type="curve" smooth="yes"/>
      <point x="165" y="493" type="line" smooth="yes"/>
      <point x="165" y="566"/>
      <point x="186" y="603"/>
      <point x="241" y="603" type="curve" smooth="yes"/>
      <point x="291" y="603"/>
      <point x="314" y="565"/>
      <point x="314" y="493" type="curve" smooth="yes"/>
      <point x="314" y="209" type="line" smooth="yes"/>
      <point x="314" y="141"/>
      <point x="288" y="105"/>
      <point x="241" y="105" type="curve" smooth="yes"/>
      <point x="190" y="106"/>
      <point x="165" y="140"/>
    </contour>
  </outline>
</glyph>
<glyph name="oe" format="2">
  <advance width="645"/>
  <unicode hex="0153"/>
  <outline>
    <contour>
      <point x="382" y="179" type="line" smooth="yes"/>
      <point x="382" y="124"/>
      <point x="400" y="96"/>
      <point x="435" y="96" type="curve" smooth="yes"/>
      <point x="470" y="96"/>
      <point x="487" y="119"/>
      <point x="487" y="165" type="curve" smooth="yes"/>
      <point x="487" y="170" type="line"/>
      <point x="602" y="170" type="line"/>
      <point x="602" y="164" type="line" smooth="yes"/>
      <point x="602" y="107"/>
      <point x="588" y="65"/>
      <point x="559" y="36" type="curve" smooth="yes"/>
      <point x="530" y="7"/>
      <point x="489" y="-8"/>
      <point x="435" y="-8" type="curve" smooth="yes"/>
      <point x="388" y="-8"/>
      <point x="351" y="3"/>
      <point x="325" y="25" type="curve"/>
      <point x="297" y="3"/>
      <point x="259" y="-8"/>
      <point x="211" y="-8" type="curve" smooth="yes"/>
      <point x="155" y="-8"/>
      <point x="112" y="7"/>
      <point x="83" y="38" type="curve" smooth="yes"/>
      <point x="54" y="69"/>
      <point x="39" y="118"/>
      <point x="39" y="187" type="curve" smooth="yes"/>
      <point x="39" y="353" type="line" smooth="yes"/>
      <point x="39" y="422"/>
      <point x="54" y="472"/>
      <point x="83" y="503" type="curve" smooth="yes"/>
      <point x="112" y="534"/>
      <point x="155" y="549"/>
      <point x="211" y="549" type="curve" smooth="yes"/>
      <point x="259" y="549"/>
      <point x="297" y="538"/>
      <point x="325" y="516" type="curve"/>
      <point x="351" y="538"/>
      <point x="387" y="549"/>
      <point x="432" y="549" type="curve" smooth="yes"/>
      <point x="487" y="549"/>
      <point x="530" y="532"/>
      <point x="561" y="497" type="curve" smooth="yes"/>
      <point x="591" y="462"/>
      <point x="606" y="408"/>
      <point x="606" y="336" type="curve" smooth="yes"/>
      <point x="606" y="228" type="line"/>
      <point x="382" y="228" type="line"/>
    </contour>
    <contour>
      <point x="263" y="354" type="line" smooth="yes"/>
      <point x="263" y="385"/>
      <point x="259" y="407"/>
      <point x="250" y="421" type="curve" smooth="yes"/>
      <point x="241" y="435"/>
      <point x="228" y="442"/>
      <point x="210" y="442" type="curve" smooth="yes"/>
      <point x="193" y="442"/>
      <point x="180" y="435"/>
      <point x="171" y="421" type="curve" smooth="yes"/>
      <point x="162" y="407"/>
      <point x="158" y="385"/>
      <point x="158" y="354" type="curve" smooth="yes"/>
      <point x="158" y="186" type="line" smooth="yes"/>
      <point x="158" y="155"/>
      <point x="162" y="133"/>
      <point x="171" y="119" type="curve" smooth="yes"/>
      <point x="180" y="105"/>
      <point x="193" y="98"/>
      <point x="210" y="98" type="curve" smooth="yes"/>
      <point x="228" y="98"/>
      <point x="241" y="105"/>
      <point x="250" y="119" type="curve" smooth="yes"/>
      <point x="259" y="133"/>
      <point x="263" y="155"/>
      <point x="263" y="186" type="curve" smooth="yes"/>
    </contour>
    <contour>
      <point x="382" y="314" type="line"/>
      <point x="487" y="314" type="line"/>
      <point x="487" y="354" type="line" smooth="yes"/>
      <point x="487" y="385"/>
      <point x="483" y="407"/>
      <point x="474" y="421" type="curve" smooth="yes"/>
      <point x="465" y="435"/>
      <point x="452" y="442"/>
      <point x="434" y="442" type="curve" smooth="yes"/>
      <point x="417" y="442"/>
      <point x="404" y="435"/>
      <point x="395" y="421" type="curve" smooth="yes"/>
      <point x="386" y="407"/>
      <point x="382" y="385"/>
      <point x="382" y="354" type="curve" smooth="yes"/>
    </contour>
  </outline>
</glyph>
<glyph name="uogonek" format="2">
  <advance width="419"/>
  <unicode hex="0173"/>
  <outline>
    <component base="u"/>
    <contour>
      <point x="303" y="-211" type="curve"/>
      <point x="303" y="-91" type="line"/>
      <point x="268" y="-90"/>
      <point x="247" y="-94"/>
      <point x="226" y="-59" type="curve"/>
      <point x="303" y="9" type="line"/>
      <point x="199" y="-4" type="line"/>
      <point x="141" y="-49" type="line"/>
      <point x="149" y="-86"/>
      <point x="160" y="-117"/>
      <point x="177" y="-140" type="curve" smooth="yes"/>
      <point x="208" y="-187"/>
      <point x="250" y="-209"/>
    </contour>
  </outline>
</glyph>
<glyph name="florin" format="2">
  <advance width="399"/>
  <unicode hex="0192"/>
  <outline>
    <contour>
      <point x="7" y="-54" type="line"/>
      <point x="30" y="-54" type="line" smooth="yes"/>
      <point x="53" y="-54"/>
      <point x="70" y="-49"/>
      <point x="81" y="-39" type="curve" smooth="yes"/>
      <point x="91" y="-30"/>
      <point x="98" y="-12"/>
      <point x="101" y="15" type="curve" smooth="yes"/>
      <point x="143" y="324" type="line"/>
      <point x="70" y="324" type="line"/>
      <point x="70" y="431" type="line"/>
      <point x="158" y="431" type="line"/>
      <point x="172" y="540" type="line" smooth="yes"/>
      <point x="179" y="597"/>
      <point x="197" y="640"/>
      <point x="226" y="667" type="curve" smooth="yes"/>
      <point x="254" y="694"/>
      <point x="296" y="707"/>
      <point x="351" y="707" type="curve" smooth="yes"/>
      <point x="392" y="707" type="line"/>
      <point x="392" y="599" type="line"/>
      <point x="365" y="599" type="line" smooth="yes"/>
      <point x="342" y="599"/>
      <point x="325" y="594"/>
      <point x="314" y="585" type="curve" smooth="yes"/>
      <point x="303" y="575"/>
      <point x="296" y="557"/>
      <point x="293" y="530" type="curve" smooth="yes"/>
      <point x="280" y="431" type="line"/>
      <point x="354" y="431" type="line"/>
      <point x="354" y="324" type="line"/>
      <point x="264" y="324" type="line"/>
      <point x="222" y="5" type="line" smooth="yes"/>
      <point x="215" y="-53"/>
      <point x="197" y="-95"/>
      <point x="169" y="-122" type="curve" smooth="yes"/>
      <point x="141" y="-149"/>
      <point x="99" y="-162"/>
      <point x="43" y="-162" type="curve" smooth="yes"/>
      <point x="7" y="-162" type="line"/>
    </contour>
  </outline>
</glyph>
<glyph name="oogonek" format="2">
  <advance width="420"/>
  <unicode hex="01EB"/>
  <outline>
    <contour>
      <point x="303" y="-218" type="curve"/>
      <point x="303" y="-98" type="line"/>
      <point x="268" y="-97"/>
      <point x="247" y="-101"/>
      <point x="226" y="-66" type="curve"/>
      <point x="293" y="7" type="line"/>
      <point x="311" y="14"/>
      <point x="326" y="25"/>
      <point x="339" y="38" type="curve" smooth="yes"/>
      <point x="368" y="69"/>
      <point x="382" y="118"/>
      <point x="382" y="187" type="curve" smooth="yes"/>
      <point x="382" y="353" type="line" smooth="yes"/>
      <point x="382" y="422"/>
      <point x="368" y="472"/>
      <point x="339" y="503" type="curve" smooth="yes"/>
      <point x="310" y="534"/>
      <point x="267" y="549"/>
      <point x="211" y="549" type="curve" smooth="yes"/>
      <point x="155" y="549"/>
      <point x="112" y="534"/>
      <point x="83" y="503" type="curve" smooth="yes"/>
      <point x="54" y="472"/>
      <point x="39" y="422"/>
      <point x="39" y="353" type="curve" smooth="yes"/>
      <point x="39" y="187" type="line" smooth="yes"/>
      <point x="39" y="118"/>
      <point x="54" y="69"/>
      <point x="83" y="38" type="curve" smooth="yes"/>
      <point x="111" y="9"/>
      <point x="151" y="-7"/>
      <point x="203" y="-8" type="curve"/>
      <point x="141" y="-56" type="line"/>
      <point x="149" y="-93"/>
      <point x="160" y="-124"/>
      <point x="177" y="-147" type="curve" smooth="yes"/>
      <point x="208" y="-194"/>
      <point x="250" y="-216"/>
    </contour>
    <contour>
      <point x="171" y="119" type="curve" smooth="yes"/>
      <point x="162" y="133"/>
      <point x="158" y="155"/>
      <point x="158" y="186" type="curve" smooth="yes"/>
      <point x="158" y="354" type="line" smooth="yes"/>
      <point x="158" y="385"/>
      <point x="162" y="407"/>
      <point x="171" y="421" type="curve" smooth="yes"/>
      <point x="180" y="435"/>
      <point x="193" y="442"/>
      <point x="210" y="442" type="curve" smooth="yes"/>
      <point x="228" y="442"/>
      <point x="241" y="435"/>
      <point x="250" y="421" type="curve" smooth="yes"/>
      <point x="259" y="407"/>
      <point x="263" y="385"/>
      <point x="263" y="354" type="curve" smooth="yes"/>
      <point x="263" y="186" type="line" smooth="yes"/>
      <point x="263" y="155"/>
      <point x="259" y="133"/>
      <point x="250" y="119" type="curve" smooth="yes"/>
      <point x="241" y="105"/>
      <point x="228" y="98"/>
      <point x="210" y="98" type="curve" smooth="yes"/>
      <point x="193" y="98"/>
      <point x="180" y="105"/>
    </contour>
  </outline>
</glyph>
<glyph name="breve" format="2">
  <advance width="419"/>
  <unicode hex="02D8"/>
  <outline>
    <contour>
      <point x="209" y="573" type="curve" smooth="yes"/>
      <point x="292" y="573"/>
      <point x="336" y="621"/>
      <point x="336" y="707" type="curve" smooth="yes"/>
      <point x="336" y="725" type="line"/>
      <point x="264" y="725" type="line"/>
      <point x="264" y="709" type="line" smooth="yes"/>
      <point x="264" y="654"/>
      <point x="246" y="638"/>
      <point x="209" y="638" type="curve" smooth="yes"/>
      <point x="172" y="638"/>
      <point x="154" y="654"/>
      <point x="154" y="709" type="curve" smooth="yes"/>
      <point x="154" y="725" type="line"/>
      <point x="82" y="725" type="line"/>
      <point x="82" y="707" type="line" smooth="yes"/>
      <point x="82" y="621"/>
      <point x="126" y="573"/>
    </contour>
  </outline>
</glyph>
<glyph name="ring" format="2">
  <advance width="512"/>
  <unicode hex="02DA"/>
  <outline>
    <contour>
      <point x="256" y="587" type="curve" smooth="yes"/>
      <point x="309" y="587"/>
      <point x="352" y="628"/>
      <point x="352" y="683" type="curve" smooth="yes"/>
      <point x="352" y="739"/>
      <point x="310" y="780"/>
      <point x="256" y="780" type="curve" smooth="yes"/>
      <point x="200" y="780"/>
      <point x="160" y="738"/>
      <point x="160" y="683" type="curve" smooth="yes"/>
      <point x="160" y="629"/>
      <point x="202" y="587"/>
    </contour>
    <contour>
      <point x="210" y="683" type="curve" smooth="yes"/>
      <point x="210" y="709"/>
      <point x="230" y="730"/>
      <point x="256" y="730" type="curve" smooth="yes"/>
      <point x="282" y="730"/>
      <point x="301" y="709"/>
      <point x="301" y="683" type="curve" smooth="yes"/>
      <point x="301" y="657"/>
      <point x="282" y="637"/>
      <point x="256" y="637" type="curve" smooth="yes"/>
      <point x="230" y="637"/>
      <point x="210" y="657"/>
    </contour>
  </outline>
</glyph>
<glyph name="tilde" format="2">
  <advance width="512"/>
  <unicode hex="02DC"/>
  <outline>
    <contour>
      <point x="140" y="603" type="line"/>
      <point x="155" y="619"/>
      <point x="166" y="630"/>
      <point x="175" y="635" type="curve" smooth="yes"/>
      <point x="184" y="640"/>
      <point x="193" y="643"/>
      <point x="204" y="643" type="curve" smooth="yes"/>
      <point x="213" y="643"/>
      <point x="220" y="642"/>
      <point x="226" y="639" type="curve" smooth="yes"/>
      <point x="232" y="636"/>
      <point x="240" y="632"/>
      <point x="249" y="627" type="curve" smooth="yes"/>
      <point x="259" y="620"/>
      <point x="268" y="615"/>
      <point x="276" y="612" type="curve" smooth="yes"/>
      <point x="283" y="609"/>
      <point x="293" y="607"/>
      <point x="304" y="607" type="curve" smooth="yes"/>
      <point x="318" y="607"/>
      <point x="330" y="610"/>
      <point x="339" y="615" type="curve" smooth="yes"/>
      <point x="348" y="620"/>
      <point x="358" y="630"/>
      <point x="371" y="645" type="curve"/>
      <point x="371" y="739" type="line"/>
      <point x="355" y="723"/>
      <point x="343" y="712"/>
      <point x="336" y="707" type="curve" smooth="yes"/>
      <point x="328" y="702"/>
      <point x="319" y="699"/>
      <point x="308" y="699" type="curve" smooth="yes"/>
      <point x="300" y="699"/>
      <point x="293" y="700"/>
      <point x="287" y="703" type="curve" smooth="yes"/>
      <point x="280" y="706"/>
      <point x="272" y="710"/>
      <point x="262" y="716" type="curve" smooth="yes"/>
      <point x="253" y="722"/>
      <point x="245" y="727"/>
      <point x="237" y="730" type="curve" smooth="yes"/>
      <point x="228" y="733"/>
      <point x="219" y="735"/>
      <point x="208" y="735" type="curve" smooth="yes"/>
      <point x="195" y="735"/>
      <point x="183" y="733"/>
      <point x="174" y="728" type="curve" smooth="yes"/>
      <point x="165" y="723"/>
      <point x="153" y="713"/>
      <point x="140" y="698" type="curve"/>
    </contour>
  </outline>
</glyph>
<glyph name="acutecomb" format="2">
  <unicode hex="0301"/>
  <anchor x="0" y="541" name="_top"/>
  <outline>
    <contour>
      <point x="-83" y="604" type="line"/>
      <point x="18" y="604" type="line"/>
      <point x="144" y="743" type="line"/>
      <point x="18" y="743" type="line"/>
    </contour>
  </outline>
</glyph>
<glyph name="tildecomb" format="2">
  <unicode hex="0303"/>
  <outline>
    <contour>
      <point x="-116" y="603" type="line"/>
      <point x="-86" y="635"/>
      <point x="-74" y="643"/>
      <point x="-52" y="643" type="curve" smooth="yes"/>
      <point x="-34" y="643"/>
      <point x="-25" y="637"/>
      <point x="-7" y="627" type="curve" smooth="yes"/>
      <point x="12" y="614"/>
      <point x="25" y="607"/>
      <point x="48" y="607" type="curve" smooth="yes"/>
      <point x="76" y="607"/>
      <point x="89" y="615"/>
      <point x="115" y="645" type="curve"/>
      <point x="115" y="739" type="line"/>
      <point x="81" y="705"/>
      <point x="73" y="699"/>
      <point x="52" y="699" type="curve" smooth="yes"/>
      <point x="35" y="699"/>
      <point x="25" y="705"/>
      <point x="6" y="716" type="curve" smooth="yes"/>
      <point x="-13" y="729"/>
      <point x="-27" y="735"/>
      <point x="-48" y="735" type="curve" smooth="yes"/>
      <point x="-74" y="735"/>
      <point x="-90" y="728"/>
      <point x="-116" y="698" type="curve"/>
    </contour>
  </outline>
</glyph>
<glyph name="macroncmb" format="2">
  <unicode hex="0304"/>
  <outline>
    <contour>
      <point x="-122" y="717" type="line"/>
      <point x="121" y="717" type="line"/>
      <point x="121" y="610" type="line"/>
      <point x="-122" y="610" type="line"/>
    </contour>
  </outline>
</glyph>
<glyph name="dotaccentcmb" format="2">
  <unicode hex="0307"/>
  <outline>
    <contour>
      <point x="-59" y="615" type="line"/>
      <point x="65" y="615" type="line"/>
      <point x="65" y="715" type="line"/>
      <point x="-59" y="715" type="line"/>
    </contour>
  </outline>
</glyph>
<glyph name="ringcmb" format="2">
  <unicode hex="030A"/>
  <outline>
    <contour>
      <point x="0" y="587" type="curve" smooth="yes"/>
      <point x="53" y="587"/>
      <point x="96" y="628"/>
      <point x="96" y="683" type="curve" smooth="yes"/>
      <point x="96" y="739"/>
      <point x="54" y="780"/>
      <point x="0" y="780" type="curve" smooth="yes"/>
      <point x="-55" y="780"/>
      <point x="-96" y="738"/>
      <point x="-96" y="683" type="curve" smooth="yes"/>
      <point x="-96" y="629"/>
      <point x="-54" y="587"/>
    </contour>
    <contour>
      <point x="-46" y="683" type="curve" smooth="yes"/>
      <point x="-46" y="709"/>
      <point x="-26" y="730"/>
      <point x="0" y="730" type="curve" smooth="yes"/>
      <point x="26" y="730"/>
      <point x="45" y="709"/>
      <point x="45" y="683" type="curve" smooth="yes"/>
      <point x="45" y="657"/>
      <point x="26" y="637"/>
      <point x="0" y="637" type="curve" smooth="yes"/>
      <point x="-26" y="637"/>
      <point x="-46" y="657"/>
    </contour>
  </outline>
</glyph>
<glyph name="caroncmb" format="2">
  <unicode hex="030C"/>
  <outline>
    <contour>
      <point x="-44" y="592" type="line"/>
      <point x="41" y="592" type="line"/>
      <point x="146" y="743" type="line"/>
      <point x="57" y="743" type="line"/>
      <point x="0" y="663" type="line"/>
      <point x="-58" y="743" type="line"/>
      <point x="-147" y="743" type="line"/>
    </contour>
  </outline>
</glyph>
<glyph name="dotbelowcomb" format="2">
  <unicode hex="0323"/>
  <outline>
    <contour>
      <point x="-59" y="-186" type="line"/>
      <point x="65" y="-186" type="line"/>
      <point x="65" y="-86" type="line"/>
      <point x="-59" y="-86" type="line"/>
    </contour>
  </outline>
</glyph>
<glyph name="commaaccentcomb" format="2">
  <unicode hex="0326"/>
  <outline>
    <contour>
      <point x="-48" y="-173" type="line"/>
      <point x="47" y="-90" type="line"/>
      <point x="47" y="-30" type="line"/>
      <point x="-48" y="-30" type="line"/>
    </contour>
  </outline>
</glyph>
<glyph name="ogonekcmb" format="2">
  <unicode hex="0328"/>
  <anchor x="0" y="0" name="_bottom"/>
  <outline>
    <contour>
      <point x="52" y="-218" type="curve"/>
      <point x="52" y="-98" type="line"/>
      <point x="17" y="-97"/>
      <point x="-4" y="-101"/>
      <point x="-25" y="-66" type="curve"/>
      <point x="52" y="1" type="line"/>
      <point x="52" y="17" type="line"/>
      <point x="-35" y="2" type="line"/>
      <point x="-110" y="-56" type="line"/>
      <point x="-102" y="-93"/>
      <point x="-91" y="-124"/>
      <point x="-74" y="-147" type="curve" smooth="yes"/>
      <point x="-43" y="-194"/>
      <point x="-1" y="-216"/>
    </contour>
  </outline>
</glyph>
<glyph name="alpha" format="2">
  <advance width="481"/>
  <unicode hex="03B1"/>
  <outline>
    <contour>
      <point x="211" y="-8" type="curve" smooth="yes"/>
      <point x="267" y="-8"/>
      <point x="315" y="-8"/>
      <point x="341" y="41" type="curve"/>
      <point x="367" y="23"/>
      <point x="401" y="14"/>
      <point x="442" y="14" type="curve"/>
      <point x="442" y="115" type="line"/>
      <point x="391" y="116"/>
      <point x="383" y="140"/>
      <point x="383" y="194" type="curve" smooth="yes"/>
      <point x="383" y="346" type="line" smooth="yes"/>
      <point x="383" y="400"/>
      <point x="391" y="425"/>
      <point x="442" y="425" type="curve"/>
      <point x="442" y="527" type="line" smooth="yes"/>
      <point x="401" y="527"/>
      <point x="367" y="518"/>
      <point x="341" y="500" type="curve"/>
      <point x="316" y="533"/>
      <point x="267" y="549"/>
      <point x="211" y="549" type="curve" smooth="yes"/>
      <point x="99" y="549"/>
      <point x="39" y="491"/>
      <point x="39" y="353" type="curve" smooth="yes"/>
      <point x="39" y="187" type="line" smooth="yes"/>
      <point x="39" y="49"/>
      <point x="99" y="-8"/>
    </contour>
    <contour>
      <point x="158" y="186" type="curve" smooth="yes"/>
      <point x="158" y="354" type="line" smooth="yes"/>
      <point x="158" y="416"/>
      <point x="176" y="442"/>
      <point x="210" y="442" type="curve" smooth="yes"/>
      <point x="246" y="442"/>
      <point x="263" y="416"/>
      <point x="263" y="354" type="curve" smooth="yes"/>
      <point x="263" y="186" type="line" smooth="yes"/>
      <point x="263" y="124"/>
      <point x="246" y="98"/>
      <point x="210" y="98" type="curve" smooth="yes"/>
      <point x="176" y="98"/>
      <point x="158" y="124"/>
    </contour>
  </outline>
</glyph>
<glyph name="Djecyr" format="2">
  <advance width="547"/>
  <unicode hex="0402"/>
  <anchor x="156" y="0" name="b.cedilla"/>
  <anchor x="189" y="-86" name="bottom"/>
  <anchor x="186" y="770" name="top"/>
  <outline>
    <contour>
      <point x="127" y="0" type="line"/>
      <point x="252" y="0" type="line"/>
      <point x="252" y="332" type="line"/>
      <point x="311" y="332" type="line" smooth="yes"/>
      <point x="361" y="332"/>
      <point x="383" y="299"/>
      <point x="383" y="223" type="curve" smooth="yes"/>
      <point x="383" y="147"/>
      <point x="361" y="113"/>
      <point x="311" y="113" type="curve" smooth="yes"/>
      <point x="295" y="113" type="line"/>
      <point x="295" y="0" type="line"/>
      <point x="315" y="0" type="line" smooth="yes"/>
      <point x="450" y="0"/>
      <point x="509" y="67"/>
      <point x="509" y="223" type="curve" smooth="yes"/>
      <point x="509" y="377"/>
      <point x="449" y="446"/>
      <point x="315" y="446" type="curve" smooth="yes"/>
      <point x="252" y="446" type="line"/>
      <point x="252" y="593" type="line"/>
      <point x="374" y="593" type="line"/>
      <point x="374" y="707" type="line"/>
      <point x="4" y="707" type="line"/>
      <point x="4" y="593" type="line"/>
      <point x="127" y="593" type="line"/>
    </contour>
  </outline>
</glyph>
<glyph name="Ljecyr" format="2">
  <advance width="745"/>
  <unicode hex="0409"/>
  <outline>
    <component base="Elcyr"/>
    <contour>
      <point x="428" y="0" type="line"/>
      <point x="513" y="0" type="line" smooth="yes"/>
      <point x="648" y="0"/>
      <point x="707" y="67"/>
      <point x="707" y="223" type="curve" smooth="yes"/>
      <point x="707" y="377"/>
      <point x="647" y="446"/>
      <point x="513" y="446" type="curve" smooth="yes"/>
      <point x="428" y="446" type="line"/>
      <point x="428" y="332" type="line"/>
      <point x="509" y="332" type="line" smooth="yes"/>
      <point x="559" y="332"/>
      <point x="581" y="299"/>
      <point x="581" y="223" type="curve" smooth="yes"/>
      <point x="581" y="147"/>
      <point x="559" y="113"/>
      <point x="509" y="113" type="curve" smooth="yes"/>
      <point x="428" y="113" type="line"/>
    </contour>
  </outline>
</glyph>
<glyph name="Zhecyr" format="2">
  <advance width="743"/>
  <unicode hex="0416"/>
  <outline>
    <contour>
      <point x="22" y="707" type="line"/>
      <point x="148" y="707" type="line"/>
      <point x="282" y="416" type="line"/>
      <point x="309" y="416" type="line"/>
      <point x="309" y="707" type="line"/>
      <point x="434" y="707" type="line"/>
      <point x="434" y="416" type="line"/>
      <point x="461" y="416" type="line"/>
      <point x="595" y="707" type="line"/>
      <point x="721" y="707" type="line"/>
      <point x="573" y="390" type="line"/>
      <point x="733" y="0" type="line"/>
      <point x="599" y="0" type="line"/>
      <point x="476" y="303" type="line"/>
      <point x="434" y="303" type="line"/>
      <point x="434" y="0" type="line"/>
      <point x="309" y="0" type="line"/>
      <point x="309" y="303" type="line"/>
      <point x="267" y="303" type="line"/>
      <point x="144" y="0" type="line"/>
      <point x="10" y="0" type="line"/>
      <point x="170" y="390" type="line"/>
    </contour>
  </outline>
</glyph>
<glyph name="Icyr" format="2">
  <advance width="482"/>
  <unicode hex="0418"/>
  <guideline x="227" y="0" angle="90" name="h1"/>
  <anchor x="227" y="770" name="top"/>
  <outline>
    <contour>
      <point x="43" y="0" type="line"/>
      <point x="169" y="0" type="line"/>
      <point x="316" y="377" type="line"/>
      <point x="316" y="0" type="line"/>
      <point x="442" y="0" type="line"/>
      <point x="442" y="707" type="line"/>
      <point x="316" y="707" type="line"/>
      <point x="169" y="313" type="line"/>
      <point x="169" y="707" type="line"/>
      <point x="43" y="707" type="line"/>
    </contour>
  </outline>
</glyph>
<glyph name="Kacyr" format="2">
  <advance width="471"/>
  <unicode hex="041A"/>
  <guideline x="236" y="0" angle="90" name="h1"/>
  <anchor x="236" y="770" name="top"/>
  <outline>
    <contour>
      <point x="43" y="707" type="line"/>
      <point x="168" y="707" type="line"/>
      <point x="168" y="416" type="line"/>
      <point x="195" y="416" type="line"/>
      <point x="329" y="707" type="line"/>
      <point x="455" y="707" type="line"/>
      <point x="307" y="390" type="line"/>
      <point x="467" y="0" type="line"/>
      <point x="333" y="0" type="line"/>
      <point x="210" y="303" type="line"/>
      <point x="168" y="303" type="line"/>
      <point x="168" y="0" type="line"/>
      <point x="43" y="0" type="line"/>
    </contour>
  </outline>
</glyph>
<glyph name="Elcyr" format="2">
  <advance width="517"/>
  <unicode hex="041B"/>
  <guideline x="233" y="396" angle="84.4901"/>
  <guideline x="137" y="707" angle="264.665"/>
  <outline>
    <contour>
      <point x="137" y="707" type="line"/>
      <point x="473" y="707" type="line"/>
      <point x="473" y="0" type="line"/>
      <point x="347" y="0" type="line"/>
      <point x="347" y="593" type="line"/>
      <point x="252" y="593" type="line"/>
      <point x="212" y="183" type="line" smooth="yes"/>
      <point x="204" y="99"/>
      <point x="174" y="0"/>
      <point x="20" y="0" type="curve"/>
      <point x="21" y="114" type="line"/>
      <point x="74" y="114"/>
      <point x="86" y="163"/>
      <point x="96" y="263" type="curve" smooth="yes"/>
    </contour>
  </outline>
</glyph>
<glyph name="Pecyr" format="2">
  <advance width="519"/>
  <unicode hex="041F"/>
  <outline>
    <contour>
      <point x="43" y="0" type="line"/>
      <point x="169" y="0" type="line"/>
      <point x="169" y="593" type="line"/>
      <point x="349" y="593" type="line"/>
      <point x="349" y="0" type="line"/>
      <point x="475" y="0" type="line"/>
      <point x="475" y="707" type="line"/>
      <point x="43" y="707" type="line"/>
    </contour>
  </outline>
</glyph>
<glyph name="Ucyr" format="2">
  <advance width="424"/>
  <unicode hex="0423"/>
  <guideline x="218" y="0" angle="90" name="h1"/>
  <anchor x="218" y="770" name="top"/>
  <outline>
    <contour>
      <point x="6" y="707" type="line"/>
      <point x="144" y="707" type="line"/>
      <point x="225" y="440" type="line"/>
      <point x="280" y="707" type="line"/>
      <point x="419" y="707" type="line"/>
      <point x="267" y="203" type="line" smooth="yes"/>
      <point x="225" y="65"/>
      <point x="165" y="0"/>
      <point x="80" y="0" type="curve" smooth="yes"/>
      <point x="61" y="0" type="line"/>
      <point x="61" y="125" type="line"/>
      <point x="72" y="125" type="line" smooth="yes"/>
      <point x="105" y="125"/>
      <point x="132" y="153"/>
      <point x="151" y="206" type="curve" smooth="yes"/>
      <point x="161" y="235" type="line"/>
    </contour>
  </outline>
</glyph>
<glyph name="Efcyr" format="2">
  <advance width="584"/>
  <unicode hex="0424"/>
  <guideline x="304" y="0" angle="90" name="h1"/>
  <anchor x="304" y="770" name="top"/>
  <outline>
    <contour>
      <point x="231" y="185" type="line"/>
      <point x="187" y="190"/>
      <point x="165" y="225"/>
      <point x="165" y="289" type="curve" smooth="yes"/>
      <point x="165" y="413" type="line" smooth="yes"/>
      <point x="165" y="482"/>
      <point x="187" y="518"/>
      <point x="231" y="522" type="curve"/>
    </contour>
    <contour>
      <point x="356" y="186" type="curve"/>
      <point x="356" y="522" type="line"/>
      <point x="397" y="517"/>
      <point x="419" y="480"/>
      <point x="419" y="413" type="curve" smooth="yes"/>
      <point x="419" y="289" type="line" smooth="yes"/>
      <point x="419" y="230"/>
      <point x="395" y="191"/>
    </contour>
    <contour>
      <point x="231" y="0" type="line"/>
      <point x="356" y="0" type="line"/>
      <point x="356" y="72" type="line"/>
      <point x="475" y="76"/>
      <point x="545" y="153"/>
      <point x="545" y="275" type="curve" smooth="yes"/>
      <point x="545" y="433" type="line" smooth="yes"/>
      <point x="545" y="558"/>
      <point x="474" y="633"/>
      <point x="356" y="637" type="curve"/>
      <point x="356" y="707" type="line"/>
      <point x="231" y="707" type="line"/>
      <point x="231" y="637" type="line"/>
      <point x="109" y="633"/>
      <point x="39" y="558"/>
      <point x="39" y="433" type="curve" smooth="yes"/>
      <point x="39" y="275" type="line" smooth="yes"/>
      <point x="39" y="148"/>
      <point x="111" y="76"/>
      <point x="231" y="72" type="curve"/>
    </contour>
  </outline>
</glyph>
<glyph name="Checyr" format="2">
  <advance width="472"/>
  <unicode hex="0427"/>
  <outline>
    <contour>
      <point x="302" y="0" type="line"/>
      <point x="427" y="0" type="line"/>
      <point x="427" y="707" type="line"/>
      <point x="302" y="707" type="line"/>
      <point x="302" y="335" type="line"/>
      <point x="286" y="326"/>
      <point x="254" y="325"/>
      <point x="236" y="325" type="curve" smooth="yes"/>
      <point x="191" y="325"/>
      <point x="169" y="353"/>
      <point x="169" y="408" type="curve" smooth="yes"/>
      <point x="169" y="707" type="line"/>
      <point x="43" y="707" type="line"/>
      <point x="43" y="405" type="line" smooth="yes"/>
      <point x="43" y="292"/>
      <point x="123" y="212"/>
      <point x="236" y="212" type="curve" smooth="yes"/>
      <point x="261" y="212"/>
      <point x="282" y="215"/>
      <point x="302" y="220" type="curve"/>
    </contour>
  </outline>
</glyph>
<glyph name="Shacyr" format="2">
  <advance width="806"/>
  <unicode hex="0428"/>
  <guideline x="44" y="0" angle="90"/>
  <guideline x="170" y="0" angle="90"/>
  <guideline x="340" y="0" angle="90"/>
  <guideline x="466" y="0" angle="90"/>
  <guideline x="636" y="0" angle="90"/>
  <guideline x="762" y="0" angle="90"/>
  <guideline x="0" y="707" angle="0"/>
  <anchor x="677" y="695" name="top"/>
  <outline>
    <contour>
      <point x="44" y="0" type="line"/>
      <point x="761" y="0" type="line"/>
      <point x="761" y="707" type="line"/>
      <point x="636" y="707" type="line"/>
      <point x="636" y="114" type="line"/>
      <point x="465" y="114" type="line"/>
      <point x="465" y="707" type="line"/>
      <point x="340" y="707" type="line"/>
      <point x="340" y="114" type="line"/>
      <point x="169" y="114" type="line"/>
      <point x="169" y="707" type="line"/>
      <point x="44" y="707" type="line"/>
    </contour>
  </outline>
</glyph>
<glyph name="Ereversedcyr" format="2">
  <advance width="479"/>
  <unicode hex="042D"/>
  <guideline x="245" y="0" angle="90" name="h1"/>
  <anchor x="245" y="770" name="top"/>
  <outline>
    <contour>
      <point x="242" y="-8" type="curve" smooth="yes"/>
      <point x="363" y="-8"/>
      <point x="440" y="60"/>
      <point x="440" y="195" type="curve" smooth="yes"/>
      <point x="440" y="513" type="line" smooth="yes"/>
      <point x="440" y="646"/>
      <point x="358" y="717"/>
      <point x="235" y="717" type="curve" smooth="yes"/>
      <point x="116" y="717"/>
      <point x="39" y="647"/>
      <point x="39" y="510" type="curve" smooth="yes"/>
      <point x="39" y="488" type="line"/>
      <point x="165" y="488" type="line"/>
      <point x="165" y="509" type="line" smooth="yes"/>
      <point x="165" y="573"/>
      <point x="194" y="603"/>
      <point x="238" y="603" type="curve" smooth="yes"/>
      <point x="293" y="603"/>
      <point x="314" y="566"/>
      <point x="314" y="493" type="curve" smooth="yes"/>
      <point x="314" y="416" type="line"/>
      <point x="173" y="416" type="line"/>
      <point x="173" y="303" type="line"/>
      <point x="314" y="303" type="line"/>
      <point x="314" y="209" type="line" smooth="yes"/>
      <point x="314" y="140"/>
      <point x="289" y="106"/>
      <point x="238" y="105" type="curve" smooth="yes"/>
      <point x="192" y="105"/>
      <point x="165" y="137"/>
      <point x="165" y="199" type="curve" smooth="yes"/>
      <point x="165" y="217" type="line"/>
      <point x="40" y="217" type="line"/>
      <point x="40" y="198" type="line" smooth="yes"/>
      <point x="40" y="61"/>
      <point x="125" y="-8"/>
    </contour>
  </outline>
</glyph>
<glyph name="Yacyr" format="2">
  <advance width="471"/>
  <unicode hex="042F"/>
  <guideline x="272" y="0" angle="90" name="h1"/>
  <anchor x="272" y="770" name="top"/>
  <outline>
    <contour>
      <point x="21" y="0" type="line"/>
      <point x="153" y="0" type="line"/>
      <point x="242" y="284" type="line"/>
      <point x="302" y="284" type="line"/>
      <point x="302" y="0" type="line"/>
      <point x="428" y="0" type="line"/>
      <point x="428" y="707" type="line"/>
      <point x="235" y="707" type="line" smooth="yes"/>
      <point x="166" y="707"/>
      <point x="116" y="690"/>
      <point x="87" y="657" type="curve" smooth="yes"/>
      <point x="58" y="623"/>
      <point x="44" y="569"/>
      <point x="44" y="496" type="curve" smooth="yes"/>
      <point x="44" y="449"/>
      <point x="50" y="409"/>
      <point x="63" y="378" type="curve" smooth="yes"/>
      <point x="76" y="347"/>
      <point x="98" y="323"/>
      <point x="127" y="307" type="curve"/>
    </contour>
    <contour>
      <point x="184" y="421" type="curve" smooth="yes"/>
      <point x="175" y="438"/>
      <point x="170" y="463"/>
      <point x="170" y="496" type="curve" smooth="yes"/>
      <point x="170" y="529"/>
      <point x="175" y="553"/>
      <point x="184" y="570" type="curve" smooth="yes"/>
      <point x="193" y="586"/>
      <point x="211" y="594"/>
      <point x="237" y="594" type="curve" smooth="yes"/>
      <point x="302" y="594" type="line"/>
      <point x="302" y="396" type="line"/>
      <point x="237" y="396" type="line" smooth="yes"/>
      <point x="212" y="396"/>
      <point x="194" y="404"/>
    </contour>
  </outline>
</glyph>
<glyph name="becyr" format="2">
  <advance width="420"/>
  <unicode hex="0431"/>
  <outline>
    <contour>
      <point x="211" y="-8" type="curve" smooth="yes"/>
      <point x="328" y="-8"/>
      <point x="382" y="54"/>
      <point x="382" y="187" type="curve" smooth="yes"/>
      <point x="382" y="353" type="line" smooth="yes"/>
      <point x="382" y="424"/>
      <point x="328" y="486"/>
      <point x="253" y="486" type="curve" smooth="yes"/>
      <point x="212" y="486"/>
      <point x="173" y="470"/>
      <point x="158" y="448" type="curve"/>
      <point x="162" y="550"/>
      <point x="222" y="539"/>
      <point x="330" y="586" type="curve"/>
      <point x="330" y="707" type="line"/>
      <point x="177" y="638"/>
      <point x="39" y="677"/>
      <point x="39" y="450" type="curve" smooth="yes"/>
      <point x="39" y="187" type="line" smooth="yes"/>
      <point x="39" y="56"/>
      <point x="95" y="-8"/>
    </contour>
    <contour>
      <point x="158" y="186" type="curve" smooth="yes"/>
      <point x="158" y="291" type="line" smooth="yes"/>
      <point x="158" y="349"/>
      <point x="176" y="379"/>
      <point x="210" y="379" type="curve" smooth="yes"/>
      <point x="245" y="379"/>
      <point x="263" y="349"/>
      <point x="263" y="291" type="curve" smooth="yes"/>
      <point x="263" y="186" type="line" smooth="yes"/>
      <point x="263" y="128"/>
      <point x="245" y="98"/>
      <point x="210" y="98" type="curve" smooth="yes"/>
      <point x="176" y="98"/>
      <point x="158" y="128"/>
    </contour>
  </outline>
</glyph>
<glyph name="vecyr" format="2">
  <advance width="419"/>
  <unicode hex="0432"/>
  <outline>
    <contour>
      <point x="42" y="0" type="line"/>
      <point x="244" y="0" type="line" smooth="yes"/>
      <point x="329" y="0"/>
      <point x="378" y="62"/>
      <point x="378" y="169" type="curve" smooth="yes"/>
      <point x="378" y="235"/>
      <point x="346" y="276"/>
      <point x="305" y="297" type="curve"/>
      <point x="341" y="317"/>
      <point x="358" y="351"/>
      <point x="358" y="415" type="curve" smooth="yes"/>
      <point x="358" y="487"/>
      <point x="301" y="541"/>
      <point x="224" y="541" type="curve" smooth="yes"/>
      <point x="42" y="541" type="line"/>
    </contour>
    <contour>
      <point x="161" y="350" type="line"/>
      <point x="161" y="422" type="line"/>
      <point x="203" y="422" type="line" smooth="yes"/>
      <point x="227" y="422"/>
      <point x="239" y="401"/>
      <point x="239" y="386" type="curve" smooth="yes"/>
      <point x="239" y="369"/>
      <point x="227" y="350"/>
      <point x="203" y="350" type="curve" smooth="yes"/>
    </contour>
    <contour>
      <point x="161" y="120" type="line"/>
      <point x="161" y="230" type="line"/>
      <point x="210" y="230" type="line" smooth="yes"/>
      <point x="245" y="230"/>
      <point x="259" y="204"/>
      <point x="259" y="170" type="curve" smooth="yes"/>
      <point x="259" y="136"/>
      <point x="243" y="120"/>
      <point x="210" y="120" type="curve" smooth="yes"/>
    </contour>
  </outline>
</glyph>
<glyph name="decyr" format="2">
  <advance width="544"/>
  <unicode hex="0434"/>
  <guideline x="150" y="541" angle="265.314"/>
  <guideline x="249" y="264" angle="85.8703"/>
  <outline>
    <contour>
      <point x="20" y="-170" type="line"/>
      <point x="139" y="-170" type="line"/>
      <point x="139" y="0" type="line"/>
      <point x="405" y="0" type="line"/>
      <point x="405" y="-170" type="line"/>
      <point x="524" y="-170" type="line"/>
      <point x="524" y="119" type="line"/>
      <point x="456" y="119" type="line"/>
      <point x="456" y="541" type="line"/>
      <point x="150" y="541" type="line"/>
      <point x="130" y="297" type="line" smooth="yes"/>
      <point x="120" y="175"/>
      <point x="98" y="119"/>
      <point x="60" y="119" type="curve"/>
      <point x="20" y="119" type="line"/>
    </contour>
    <contour>
      <point x="211" y="119" type="line"/>
      <point x="231" y="161"/>
      <point x="245" y="211"/>
      <point x="249" y="264" type="curve" smooth="yes"/>
      <point x="260" y="422" type="line"/>
      <point x="337" y="422" type="line"/>
      <point x="337" y="119" type="line"/>
    </contour>
  </outline>
</glyph>
<glyph name="zhecyr" format="2">
  <advance width="655"/>
  <unicode hex="0436"/>
  <outline>
    <component base="kacyr" xOffset="226"/>
    <contour>
      <point x="10" y="0" type="line"/>
      <point x="141" y="0" type="line"/>
      <point x="234" y="230" type="line"/>
      <point x="288" y="230" type="line"/>
      <point x="288" y="350" type="line"/>
      <point x="251" y="350" type="line"/>
      <point x="139" y="541" type="line"/>
      <point x="15" y="541" type="line"/>
      <point x="154" y="328" type="line"/>
    </contour>
  </outline>
</glyph>
<glyph name="zecyr" format="2">
  <advance width="443"/>
  <unicode hex="0437"/>
  <outline>
    <contour>
      <point x="224" y="-8" type="curve" smooth="yes"/>
      <point x="328" y="-8"/>
      <point x="405" y="60"/>
      <point x="405" y="153" type="curve" smooth="yes"/>
      <point x="405" y="177" type="line" smooth="yes"/>
      <point x="405" y="237"/>
      <point x="372" y="295"/>
      <point x="332" y="303" type="curve"/>
      <point x="370" y="316"/>
      <point x="395" y="357"/>
      <point x="395" y="404" type="curve" smooth="yes"/>
      <point x="395" y="416" type="line" smooth="yes"/>
      <point x="395" y="491"/>
      <point x="324" y="549"/>
      <point x="225" y="549" type="curve" smooth="yes"/>
      <point x="117" y="549"/>
      <point x="39" y="487"/>
      <point x="39" y="386" type="curve" smooth="yes"/>
      <point x="39" y="377" type="line"/>
      <point x="158" y="377" type="line"/>
      <point x="158" y="385" type="line" smooth="yes"/>
      <point x="158" y="419"/>
      <point x="186" y="442"/>
      <point x="223" y="442" type="curve" smooth="yes"/>
      <point x="253" y="442"/>
      <point x="276" y="424"/>
      <point x="276" y="401" type="curve" smooth="yes"/>
      <point x="276" y="388" type="line" smooth="yes"/>
      <point x="276" y="358"/>
      <point x="261" y="340"/>
      <point x="235" y="340" type="curve" smooth="yes"/>
      <point x="186" y="340" type="line"/>
      <point x="186" y="240" type="line"/>
      <point x="228" y="240" type="line" smooth="yes"/>
      <point x="266" y="240"/>
      <point x="286" y="216"/>
      <point x="286" y="170" type="curve" smooth="yes"/>
      <point x="286" y="160" type="line" smooth="yes"/>
      <point x="286" y="126"/>
      <point x="262" y="98"/>
      <point x="226" y="98" type="curve" smooth="yes"/>
      <point x="186" y="98"/>
      <point x="158" y="121"/>
      <point x="158" y="158" type="curve" smooth="yes"/>
      <point x="158" y="165" type="line"/>
      <point x="39" y="165" type="line"/>
      <point x="39" y="157" type="line" smooth="yes"/>
      <point x="39" y="54"/>
      <point x="124" y="-8"/>
    </contour>
  </outline>
</glyph>
<glyph name="icyr" format="2">
  <advance width="435"/>
  <unicode hex="0438"/>
  <guideline x="213" y="0" angle="90" name="h1"/>
  <anchor x="213" y="604" name="top"/>
  <outline>
    <contour>
      <point x="42" y="0" type="line"/>
      <point x="171" y="0" type="line"/>
      <point x="274" y="279" type="line"/>
      <point x="274" y="0" type="line"/>
      <point x="393" y="0" type="line"/>
      <point x="393" y="541" type="line"/>
      <point x="264" y="541" type="line"/>
      <point x="161" y="262" type="line"/>
      <point x="161" y="541" type="line"/>
      <point x="42" y="541" type="line"/>
    </contour>
  </outline>
</glyph>
<glyph name="emcyr" format="2">
  <advance width="589"/>
  <unicode hex="043C"/>
  <outline>
    <contour>
      <point x="42" y="0" type="line"/>
      <point x="161" y="0" type="line"/>
      <point x="161" y="289" type="line"/>
      <point x="264" y="0" type="line"/>
      <point x="324" y="0" type="line"/>
      <point x="427" y="289" type="line"/>
      <point x="427" y="0" type="line"/>
      <point x="546" y="0" type="line"/>
      <point x="546" y="541" type="line"/>
      <point x="417" y="541" type="line"/>
      <point x="314" y="252" type="line"/>
      <point x="274" y="252" type="line"/>
      <point x="171" y="541" type="line"/>
      <point x="42" y="541" type="line"/>
    </contour>
  </outline>
</glyph>
<glyph name="encyr" format="2">
  <advance width="420"/>
  <unicode hex="043D"/>
  <outline>
    <contour>
      <point x="42" y="0" type="line"/>
      <point x="161" y="0" type="line"/>
      <point x="161" y="230" type="line"/>
      <point x="259" y="230" type="line"/>
      <point x="259" y="0" type="line"/>
      <point x="378" y="0" type="line"/>
      <point x="378" y="541" type="line"/>
      <point x="259" y="541" type="line"/>
      <point x="259" y="350" type="line"/>
      <point x="161" y="350" type="line"/>
      <point x="161" y="541" type="line"/>
      <point x="42" y="541" type="line"/>
    </contour>
  </outline>
</glyph>
<glyph name="tsecyr" format="2">
  <advance width="456"/>
  <unicode hex="0446"/>
  <outline>
    <contour>
      <point x="327" y="-170" type="line"/>
      <point x="446" y="-170" type="line"/>
      <point x="446" y="119" type="line"/>
      <point x="378" y="119" type="line"/>
      <point x="378" y="541" type="line"/>
      <point x="259" y="541" type="line"/>
      <point x="259" y="119" type="line"/>
      <point x="161" y="119" type="line"/>
      <point x="161" y="541" type="line"/>
      <point x="42" y="541" type="line"/>
      <point x="42" y="0" type="line"/>
      <point x="327" y="0" type="line"/>
    </contour>
  </outline>
</glyph>
<glyph name="ereversedcyr" format="2">
  <advance width="415"/>
  <unicode hex="044D"/>
  <guideline x="210" y="0" angle="90" name="h1"/>
  <anchor x="210" y="604" name="top"/>
  <outline>
    <contour>
      <point x="205" y="-8" type="curve" smooth="yes"/>
      <point x="317" y="-8"/>
      <point x="377" y="49"/>
      <point x="377" y="187" type="curve" smooth="yes"/>
      <point x="377" y="353" type="line" smooth="yes"/>
      <point x="377" y="491"/>
      <point x="317" y="549"/>
      <point x="205" y="549" type="curve" smooth="yes"/>
      <point x="97" y="549"/>
      <point x="38" y="491"/>
      <point x="38" y="373" type="curve" smooth="yes"/>
      <point x="38" y="352" type="line"/>
      <point x="153" y="352" type="line"/>
      <point x="153" y="371" type="line" smooth="yes"/>
      <point x="153" y="418"/>
      <point x="170" y="442"/>
      <point x="205" y="442" type="curve" smooth="yes"/>
      <point x="241" y="442"/>
      <point x="258" y="416"/>
      <point x="258" y="354" type="curve" smooth="yes"/>
      <point x="258" y="350" type="line"/>
      <point x="201" y="350" type="line"/>
      <point x="201" y="230" type="line"/>
      <point x="258" y="230" type="line"/>
      <point x="258" y="186" type="line" smooth="yes"/>
      <point x="258" y="124"/>
      <point x="240" y="98"/>
      <point x="206" y="98" type="curve" smooth="yes"/>
      <point x="172" y="98"/>
      <point x="153" y="121"/>
      <point x="153" y="171" type="curve" smooth="yes"/>
      <point x="153" y="188" type="line"/>
      <point x="38" y="188" type="line"/>
      <point x="38" y="171" type="line" smooth="yes"/>
      <point x="38" y="50"/>
      <point x="98" y="-8"/>
    </contour>
  </outline>
</glyph>
<glyph name="djecyr" format="2">
  <advance width="419"/>
  <unicode hex="0452"/>
  <guideline x="244" y="0" angle="90" name="h1"/>
  <anchor x="244" y="604" name="top"/>
  <outline>
    <contour>
      <point x="188" y="-162" type="line"/>
      <point x="195" y="-162" type="line" smooth="yes"/>
      <point x="315" y="-162"/>
      <point x="376" y="-108"/>
      <point x="378" y="0" type="curve"/>
      <point x="378" y="0" type="line"/>
      <point x="378" y="386" type="line" smooth="yes"/>
      <point x="378" y="496"/>
      <point x="335" y="549"/>
      <point x="246" y="549" type="curve" smooth="yes"/>
      <point x="214" y="549"/>
      <point x="185" y="534"/>
      <point x="161" y="506" type="curve"/>
      <point x="161" y="598" type="line"/>
      <point x="282" y="598" type="line"/>
      <point x="282" y="661" type="line"/>
      <point x="161" y="661" type="line"/>
      <point x="161" y="707" type="line"/>
      <point x="42" y="707" type="line"/>
      <point x="42" y="661" type="line"/>
      <point x="0" y="661" type="line"/>
      <point x="0" y="598" type="line"/>
      <point x="42" y="598" type="line"/>
      <point x="42" y="0" type="line"/>
      <point x="161" y="0" type="line"/>
      <point x="161" y="385" type="line" smooth="yes"/>
      <point x="161" y="418"/>
      <point x="174" y="442"/>
      <point x="210" y="442" type="curve" smooth="yes"/>
      <point x="244" y="442"/>
      <point x="259" y="416"/>
      <point x="259" y="385" type="curve" smooth="yes"/>
      <point x="259" y="13" type="line" smooth="yes"/>
      <point x="259" y="-33"/>
      <point x="238" y="-55"/>
      <point x="194" y="-55" type="curve" smooth="yes"/>
      <point x="188" y="-55" type="line"/>
    </contour>
  </outline>
</glyph>
<glyph name="ljecyr" format="2">
  <advance width="646"/>
  <unicode hex="0459"/>
  <outline>
    <contour>
      <point x="101" y="541" type="line"/>
      <point x="407" y="541" type="line"/>
      <point x="407" y="350" type="line"/>
      <point x="453" y="350" type="line" smooth="yes"/>
      <point x="568" y="350"/>
      <point x="608" y="269"/>
      <point x="608" y="169" type="curve" smooth="yes"/>
      <point x="608" y="76"/>
      <point x="547" y="0"/>
      <point x="474" y="0" type="curve" smooth="yes"/>
      <point x="288" y="0" type="line"/>
      <point x="288" y="422" type="line"/>
      <point x="212" y="422" type="line"/>
      <point x="191" y="134" type="line" smooth="yes"/>
      <point x="185" y="50"/>
      <point x="117" y="0"/>
      <point x="11" y="0" type="curve"/>
      <point x="11" y="119" type="line"/>
      <point x="49" y="119"/>
      <point x="69" y="149"/>
      <point x="72" y="191" type="curve" smooth="yes"/>
    </contour>
    <contour>
      <point x="440" y="230" type="curve" smooth="yes"/>
      <point x="407" y="230" type="line"/>
      <point x="407" y="120" type="line"/>
      <point x="440" y="120" type="line" smooth="yes"/>
      <point x="473" y="120"/>
      <point x="489" y="136"/>
      <point x="489" y="170" type="curve" smooth="yes"/>
      <point x="489" y="204"/>
      <point x="475" y="230"/>
    </contour>
  </outline>
</glyph>
<glyph name="Gheupturncyrillic" format="2">
  <advance width="379"/>
  <unicode hex="0490"/>
  <outline>
    <component base="Gecyr"/>
    <contour>
      <point x="248" y="707" type="line"/>
      <point x="358" y="707" type="line"/>
      <point x="358" y="867" type="line"/>
      <point x="248" y="867" type="line"/>
    </contour>
  </outline>
</glyph>
<glyph name="gheupturncyrillic" format="2">
  <advance width="313"/>
  <unicode hex="0491"/>
  <outline>
    <component base="gecyr"/>
    <contour>
      <point x="189" y="541" type="line"/>
      <point x="189" y="687" type="line"/>
      <point x="299" y="687" type="line"/>
      <point x="299" y="541" type="line"/>
    </contour>
  </outline>
</glyph>
<glyph name="ustraightcyrillic" format="2">
  <advance width="385"/>
  <unicode hex="04AF"/>
  <outline>
    <contour>
      <point x="130" y="-162" type="line"/>
      <point x="255" y="-162" type="line"/>
      <point x="255" y="109" type="line"/>
      <point x="379" y="541" type="line"/>
      <point x="240" y="541" type="line"/>
      <point x="192" y="280" type="line"/>
      <point x="144" y="541" type="line"/>
      <point x="6" y="541" type="line"/>
      <point x="130" y="112" type="line"/>
    </contour>
  </outline>
</glyph>
<glyph name="Germandbls" format="2">
  <advance width="577"/>
  <unicode hex="1E9E"/>
  <outline>
    <contour>
      <point x="217" y="-3" type="line"/>
      <point x="311" y="-3" type="line" smooth="yes"/>
      <point x="440" y="-3"/>
      <point x="545" y="26"/>
      <point x="545" y="210" type="curve" smooth="yes"/>
      <point x="545" y="320"/>
      <point x="480" y="400"/>
      <point x="370" y="418" type="curve"/>
      <point x="483" y="581" type="line"/>
      <point x="428" y="677"/>
      <point x="334" y="714"/>
      <point x="262" y="714" type="curve" smooth="yes"/>
      <point x="135" y="716"/>
      <point x="42" y="657"/>
      <point x="42" y="479" type="curve" smooth="yes"/>
      <point x="42" y="1" type="line"/>
      <point x="161" y="1" type="line"/>
      <point x="161" y="481" type="line" smooth="yes"/>
      <point x="161" y="574"/>
      <point x="188" y="621"/>
      <point x="242" y="622" type="curve" smooth="yes"/>
      <point x="310" y="623"/>
      <point x="344" y="609"/>
      <point x="345" y="580" type="curve"/>
      <point x="219" y="402" type="line"/>
      <point x="219" y="305" type="line"/>
      <point x="322" y="305" type="line" smooth="yes"/>
      <point x="373" y="305"/>
      <point x="426" y="283"/>
      <point x="426" y="210" type="curve" smooth="yes"/>
      <point x="426" y="121"/>
      <point x="358" y="114"/>
      <point x="325" y="114" type="curve" smooth="yes"/>
      <point x="217" y="114" type="line"/>
    </contour>
  </outline>
</glyph>
<glyph name="endash" format="2">
  <advance width="427"/>
  <unicode hex="2013"/>
  <outline>
    <contour>
      <point x="0" y="298" type="line"/>
      <point x="427" y="298" type="line"/>
      <point x="427" y="411" type="line"/>
      <point x="0" y="411" type="line"/>
    </contour>
  </outline>
</glyph>
<glyph name="emdash" format="2">
  <advance width="852"/>
  <unicode hex="2014"/>
  <outline>
    <contour>
      <point x="0" y="298" type="line"/>
      <point x="853" y="298" type="line"/>
      <point x="853" y="411" type="line"/>
      <point x="0" y="411" type="line"/>
    </contour>
  </outline>
</glyph>
<glyph name="bullet" format="2">
  <advance width="405"/>
  <unicode hex="2022"/>
  <outline>
    <contour>
      <point x="202" y="176" type="curve" smooth="yes"/>
      <point x="242" y="176"/>
      <point x="275" y="189"/>
      <point x="302" y="216" type="curve" smooth="yes"/>
      <point x="329" y="243"/>
      <point x="342" y="276"/>
      <point x="342" y="315" type="curve" smooth="yes"/>
      <point x="342" y="355"/>
      <point x="329" y="388"/>
      <point x="302" y="415" type="curve" smooth="yes"/>
      <point x="275" y="442"/>
      <point x="242" y="455"/>
      <point x="202" y="455" type="curve" smooth="yes"/>
      <point x="162" y="455"/>
      <point x="129" y="442"/>
      <point x="102" y="415" type="curve" smooth="yes"/>
      <point x="75" y="388"/>
      <point x="62" y="355"/>
      <point x="62" y="315" type="curve" smooth="yes"/>
      <point x="62" y="276"/>
      <point x="75" y="243"/>
      <point x="102" y="216" type="curve" smooth="yes"/>
      <point x="129" y="189"/>
      <point x="162" y="176"/>
    </contour>
  </outline>
</glyph>
<glyph name="perthousand" format="2">
  <advance width="1071"/>
  <unicode hex="2030"/>
  <outline>
    <contour>
      <point x="521" y="108" type="curve" smooth="yes"/>
      <point x="521" y="318" type="line" smooth="yes"/>
      <point x="521" y="395"/>
      <point x="559" y="433"/>
      <point x="635" y="433" type="curve" smooth="yes"/>
      <point x="711" y="433"/>
      <point x="749" y="395"/>
      <point x="749" y="318" type="curve" smooth="yes"/>
      <point x="749" y="108" type="line" smooth="yes"/>
      <point x="749" y="31"/>
      <point x="711" y="-7"/>
      <point x="635" y="-7" type="curve" smooth="yes"/>
      <point x="559" y="-7"/>
      <point x="521" y="31"/>
    </contour>
    <contour>
      <point x="32" y="387" type="curve" smooth="yes"/>
      <point x="32" y="598" type="line" smooth="yes"/>
      <point x="32" y="675"/>
      <point x="70" y="713"/>
      <point x="145" y="713" type="curve" smooth="yes"/>
      <point x="221" y="713"/>
      <point x="259" y="675"/>
      <point x="259" y="598" type="curve" smooth="yes"/>
      <point x="259" y="387" type="line" smooth="yes"/>
      <point x="259" y="310"/>
      <point x="221" y="272"/>
      <point x="145" y="272" type="curve" smooth="yes"/>
      <point x="70" y="272"/>
      <point x="32" y="310"/>
    </contour>
    <contour>
      <point x="812" y="108" type="curve" smooth="yes"/>
      <point x="812" y="318" type="line" smooth="yes"/>
      <point x="812" y="395"/>
      <point x="850" y="433"/>
      <point x="926" y="433" type="curve" smooth="yes"/>
      <point x="964" y="433"/>
      <point x="992" y="424"/>
      <point x="1011" y="405" type="curve" smooth="yes"/>
      <point x="1030" y="386"/>
      <point x="1039" y="357"/>
      <point x="1039" y="318" type="curve" smooth="yes"/>
      <point x="1039" y="108" type="line" smooth="yes"/>
      <point x="1039" y="31"/>
      <point x="1001" y="-7"/>
      <point x="926" y="-7" type="curve" smooth="yes"/>
      <point x="850" y="-7"/>
      <point x="812" y="31"/>
    </contour>
    <contour>
      <point x="481" y="715" type="line"/>
      <point x="565" y="715" type="line"/>
      <point x="299" y="0" type="line"/>
      <point x="215" y="0" type="line"/>
    </contour>
    <contour>
      <point x="666" y="120" type="curve" smooth="yes"/>
      <point x="666" y="306" type="line" smooth="yes"/>
      <point x="666" y="327"/>
      <point x="664" y="340"/>
      <point x="659" y="347" type="curve" smooth="yes"/>
      <point x="654" y="354"/>
      <point x="646" y="357"/>
      <point x="635" y="357" type="curve" smooth="yes"/>
      <point x="624" y="357"/>
      <point x="616" y="354"/>
      <point x="612" y="347" type="curve" smooth="yes"/>
      <point x="607" y="340"/>
      <point x="605" y="327"/>
      <point x="605" y="306" type="curve" smooth="yes"/>
      <point x="605" y="120" type="line" smooth="yes"/>
      <point x="605" y="100"/>
      <point x="607" y="87"/>
      <point x="611" y="80" type="curve" smooth="yes"/>
      <point x="615" y="73"/>
      <point x="623" y="69"/>
      <point x="635" y="69" type="curve" smooth="yes"/>
      <point x="646" y="69"/>
      <point x="654" y="73"/>
      <point x="659" y="80" type="curve" smooth="yes"/>
      <point x="664" y="87"/>
      <point x="666" y="100"/>
    </contour>
    <contour>
      <point x="176" y="399" type="curve" smooth="yes"/>
      <point x="176" y="586" type="line" smooth="yes"/>
      <point x="176" y="607"/>
      <point x="174" y="620"/>
      <point x="170" y="627" type="curve" smooth="yes"/>
      <point x="165" y="634"/>
      <point x="157" y="637"/>
      <point x="145" y="637" type="curve" smooth="yes"/>
      <point x="134" y="637"/>
      <point x="126" y="634"/>
      <point x="122" y="627" type="curve" smooth="yes"/>
      <point x="118" y="620"/>
      <point x="116" y="606"/>
      <point x="116" y="586" type="curve" smooth="yes"/>
      <point x="116" y="399" type="line" smooth="yes"/>
      <point x="116" y="379"/>
      <point x="118" y="366"/>
      <point x="122" y="359" type="curve" smooth="yes"/>
      <point x="126" y="352"/>
      <point x="134" y="348"/>
      <point x="145" y="348" type="curve" smooth="yes"/>
      <point x="157" y="348"/>
      <point x="165" y="352"/>
      <point x="170" y="359" type="curve" smooth="yes"/>
      <point x="174" y="366"/>
      <point x="176" y="380"/>
    </contour>
    <contour>
      <point x="956" y="120" type="curve" smooth="yes"/>
      <point x="956" y="306" type="line" smooth="yes"/>
      <point x="956" y="327"/>
      <point x="954" y="340"/>
      <point x="950" y="347" type="curve" smooth="yes"/>
      <point x="945" y="354"/>
      <point x="937" y="357"/>
      <point x="926" y="357" type="curve" smooth="yes"/>
      <point x="915" y="357"/>
      <point x="907" y="354"/>
      <point x="903" y="347" type="curve" smooth="yes"/>
      <point x="898" y="340"/>
      <point x="896" y="327"/>
      <point x="896" y="306" type="curve" smooth="yes"/>
      <point x="896" y="120" type="line" smooth="yes"/>
      <point x="896" y="100"/>
      <point x="898" y="87"/>
      <point x="902" y="80" type="curve" smooth="yes"/>
      <point x="906" y="73"/>
      <point x="914" y="69"/>
      <point x="926" y="69" type="curve" smooth="yes"/>
      <point x="937" y="69"/>
      <point x="945" y="73"/>
      <point x="950" y="80" type="curve" smooth="yes"/>
      <point x="954" y="87"/>
      <point x="956" y="100"/>
    </contour>
  </outline>
</glyph>
